STARTFONT 2.1
FONT -FontForge-Noto Sans-Book-R-Normal-Sans--8-80-75-75-P-41-ISO10646-1
SIZE 8 75 75
FONTBOUNDINGBOX 27 14 -5 -3
COMMENT "Generated by fontforge, http://fontforge.sourceforge.net"
COMMENT "Copyright 2015-2021 Google LLC. All Rights Reserved."
STARTPROPERTIES 41
FOUNDRY "FontForge"
FAMILY_NAME "Noto Sans"
WEIGHT_NAME "Book"
SLANT "R"
SETWIDTH_NAME "Normal"
ADD_STYLE_NAME "Sans"
PIXEL_SIZE 8
POINT_SIZE 80
RESOLUTION_X 75
RESOLUTION_Y 75
SPACING "P"
AVERAGE_WIDTH 41
CHARSET_REGISTRY "ISO10646"
CHARSET_ENCODING "1"
FONTNAME_REGISTRY ""
CHARSET_COLLECTIONS "ISO8859-2 ISO8859-5 ISO8859-7 ISO8859-9 ISO8859-4 ISO10646-1"
FONT_NAME "NotoSans-Regular"
FACE_NAME "Noto Sans Regular"
COPYRIGHT "Copyright 2015-2021 Google LLC. All Rights Reserved."
FONT_VERSION "2.007"
FONT_ASCENT 6
FONT_DESCENT 2
UNDERLINE_POSITION -1
UNDERLINE_THICKNESS 1
X_HEIGHT 3
CAP_HEIGHT 5
DEFAULT_CHAR 1
RAW_ASCENT 800
RAW_DESCENT 200
NORM_SPACE 2
RELATIVE_WEIGHT 40
RELATIVE_SETWIDTH 50
SUPERSCRIPT_X 0
SUPERSCRIPT_Y 2
SUPERSCRIPT_SIZE 4
SUBSCRIPT_X 0
SUBSCRIPT_Y 0
SUBSCRIPT_SIZE 4
FIGURE_WIDTH 5
AVG_LOWERCASE_WIDTH 44
AVG_UPPERCASE_WIDTH 55
ENDPROPERTIES
CHARS 4689
STARTCHAR NULL
ENCODING 0
SWIDTH 0 0
DWIDTH 0 0
BBX 1 1 0 0
BITMAP
00
ENDCHAR
STARTCHAR CR
ENCODING 13
SWIDTH 260 0
DWIDTH 2 0
BBX 1 1 0 0
BITMAP
00
ENDCHAR
STARTCHAR space
ENCODING 32
SWIDTH 260 0
DWIDTH 2 0
BBX 1 1 0 0
BITMAP
00
ENDCHAR
STARTCHAR exclam
ENCODING 33
SWIDTH 269 0
DWIDTH 2 0
BBX 1 6 1 0
BITMAP
80
80
80
80
00
80
ENDCHAR
STARTCHAR quotedbl
ENCODING 34
SWIDTH 408 0
DWIDTH 3 0
BBX 2 2 1 4
BITMAP
C0
C0
ENDCHAR
STARTCHAR numbersign
ENCODING 35
SWIDTH 646 0
DWIDTH 5 0
BBX 5 6 0 0
BITMAP
30
30
F8
50
F8
60
ENDCHAR
STARTCHAR dollar
ENCODING 36
SWIDTH 572 0
DWIDTH 5 0
BBX 4 6 0 0
BITMAP
20
F0
60
30
30
E0
ENDCHAR
STARTCHAR percent
ENCODING 37
SWIDTH 831 0
DWIDTH 7 0
BBX 6 6 0 0
BITMAP
48
A8
B4
5C
2C
6C
ENDCHAR
STARTCHAR ampersand
ENCODING 38
SWIDTH 732 0
DWIDTH 6 0
BBX 6 6 0 0
BITMAP
60
50
60
64
98
7C
ENDCHAR
STARTCHAR quotesingle
ENCODING 39
SWIDTH 225 0
DWIDTH 2 0
BBX 1 2 0 4
BITMAP
80
80
ENDCHAR
STARTCHAR parenleft
ENCODING 40
SWIDTH 300 0
DWIDTH 2 0
BBX 2 7 0 -1
BITMAP
40
40
80
80
80
80
40
ENDCHAR
STARTCHAR parenright
ENCODING 41
SWIDTH 300 0
DWIDTH 2 0
BBX 2 7 0 -1
BITMAP
80
40
40
40
40
40
C0
ENDCHAR
STARTCHAR asterisk
ENCODING 42
SWIDTH 551 0
DWIDTH 4 0
BBX 4 4 0 2
BITMAP
20
F0
60
70
ENDCHAR
STARTCHAR plus
ENCODING 43
SWIDTH 572 0
DWIDTH 5 0
BBX 4 4 0 1
BITMAP
20
20
F0
20
ENDCHAR
STARTCHAR comma
ENCODING 44
SWIDTH 268 0
DWIDTH 2 0
BBX 2 2 0 -1
BITMAP
40
80
ENDCHAR
STARTCHAR hyphen
ENCODING 45
SWIDTH 322 0
DWIDTH 3 0
BBX 2 1 0 2
BITMAP
C0
ENDCHAR
STARTCHAR period
ENCODING 46
SWIDTH 268 0
DWIDTH 2 0
BBX 1 1 1 0
BITMAP
80
ENDCHAR
STARTCHAR slash
ENCODING 47
SWIDTH 372 0
DWIDTH 3 0
BBX 3 6 0 0
BITMAP
20
20
40
40
80
80
ENDCHAR
STARTCHAR zero
ENCODING 48
SWIDTH 572 0
DWIDTH 5 0
BBX 4 6 0 0
BITMAP
60
90
90
90
90
70
ENDCHAR
STARTCHAR one
ENCODING 49
SWIDTH 572 0
DWIDTH 5 0
BBX 2 6 1 0
BITMAP
40
C0
40
40
40
40
ENDCHAR
STARTCHAR two
ENCODING 50
SWIDTH 572 0
DWIDTH 5 0
BBX 4 6 0 0
BITMAP
E0
10
10
20
40
F0
ENDCHAR
STARTCHAR three
ENCODING 51
SWIDTH 572 0
DWIDTH 5 0
BBX 4 6 0 0
BITMAP
E0
10
10
70
10
F0
ENDCHAR
STARTCHAR four
ENCODING 52
SWIDTH 572 0
DWIDTH 5 0
BBX 4 6 0 0
BITMAP
10
30
50
90
F0
10
ENDCHAR
STARTCHAR five
ENCODING 53
SWIDTH 572 0
DWIDTH 5 0
BBX 4 6 0 0
BITMAP
70
40
E0
10
10
F0
ENDCHAR
STARTCHAR six
ENCODING 54
SWIDTH 572 0
DWIDTH 5 0
BBX 4 6 0 0
BITMAP
30
40
A0
D0
90
70
ENDCHAR
STARTCHAR seven
ENCODING 55
SWIDTH 572 0
DWIDTH 5 0
BBX 4 6 0 0
BITMAP
F0
10
10
20
20
40
ENDCHAR
STARTCHAR eight
ENCODING 56
SWIDTH 572 0
DWIDTH 5 0
BBX 4 6 0 0
BITMAP
60
90
50
70
90
70
ENDCHAR
STARTCHAR nine
ENCODING 57
SWIDTH 572 0
DWIDTH 5 0
BBX 4 6 0 0
BITMAP
60
90
90
70
10
60
ENDCHAR
STARTCHAR colon
ENCODING 58
SWIDTH 268 0
DWIDTH 2 0
BBX 1 4 1 0
BITMAP
80
00
00
80
ENDCHAR
STARTCHAR semicolon
ENCODING 59
SWIDTH 268 0
DWIDTH 2 0
BBX 2 5 0 -1
BITMAP
40
00
00
80
80
ENDCHAR
STARTCHAR less
ENCODING 60
SWIDTH 572 0
DWIDTH 5 0
BBX 4 4 0 1
BITMAP
10
60
C0
30
ENDCHAR
STARTCHAR equal
ENCODING 61
SWIDTH 572 0
DWIDTH 5 0
BBX 4 2 0 2
BITMAP
F0
F0
ENDCHAR
STARTCHAR greater
ENCODING 62
SWIDTH 572 0
DWIDTH 5 0
BBX 4 4 0 1
BITMAP
C0
20
30
C0
ENDCHAR
STARTCHAR question
ENCODING 63
SWIDTH 434 0
DWIDTH 3 0
BBX 3 6 0 0
BITMAP
E0
20
20
40
00
40
ENDCHAR
STARTCHAR at
ENCODING 64
SWIDTH 899 0
DWIDTH 7 0
BBX 7 7 0 -1
BITMAP
38
44
BA
AA
BE
40
38
ENDCHAR
STARTCHAR A
ENCODING 65
SWIDTH 639 0
DWIDTH 5 0
BBX 5 6 0 0
BITMAP
20
20
50
70
88
88
ENDCHAR
STARTCHAR B
ENCODING 66
SWIDTH 650 0
DWIDTH 5 0
BBX 4 6 1 0
BITMAP
E0
90
A0
D0
90
E0
ENDCHAR
STARTCHAR C
ENCODING 67
SWIDTH 632 0
DWIDTH 5 0
BBX 5 6 0 0
BITMAP
38
40
80
80
40
78
ENDCHAR
STARTCHAR D
ENCODING 68
SWIDTH 730 0
DWIDTH 6 0
BBX 4 6 1 0
BITMAP
E0
90
90
90
90
E0
ENDCHAR
STARTCHAR E
ENCODING 69
SWIDTH 556 0
DWIDTH 4 0
BBX 3 6 1 0
BITMAP
E0
80
80
E0
80
E0
ENDCHAR
STARTCHAR F
ENCODING 70
SWIDTH 519 0
DWIDTH 4 0
BBX 3 6 1 0
BITMAP
E0
80
80
E0
80
80
ENDCHAR
STARTCHAR G
ENCODING 71
SWIDTH 728 0
DWIDTH 6 0
BBX 5 6 0 0
BITMAP
38
40
80
98
48
78
ENDCHAR
STARTCHAR H
ENCODING 72
SWIDTH 741 0
DWIDTH 6 0
BBX 4 6 1 0
BITMAP
90
90
90
F0
90
90
ENDCHAR
STARTCHAR I
ENCODING 73
SWIDTH 339 0
DWIDTH 3 0
BBX 2 6 0 0
BITMAP
C0
40
40
40
40
C0
ENDCHAR
STARTCHAR J
ENCODING 74
SWIDTH 273 0
DWIDTH 2 0
BBX 2 8 -1 -2
BITMAP
40
40
40
40
40
40
40
80
ENDCHAR
STARTCHAR K
ENCODING 75
SWIDTH 619 0
DWIDTH 5 0
BBX 4 6 1 0
BITMAP
90
A0
C0
C0
A0
90
ENDCHAR
STARTCHAR L
ENCODING 76
SWIDTH 524 0
DWIDTH 4 0
BBX 3 6 1 0
BITMAP
80
80
80
80
80
E0
ENDCHAR
STARTCHAR M
ENCODING 77
SWIDTH 907 0
DWIDTH 7 0
BBX 5 6 1 0
BITMAP
88
88
D8
D8
A8
A8
ENDCHAR
STARTCHAR N
ENCODING 78
SWIDTH 760 0
DWIDTH 6 0
BBX 4 6 1 0
BITMAP
90
90
D0
B0
B0
90
ENDCHAR
STARTCHAR O
ENCODING 79
SWIDTH 781 0
DWIDTH 6 0
BBX 6 6 0 0
BITMAP
30
48
84
84
44
78
ENDCHAR
STARTCHAR P
ENCODING 80
SWIDTH 605 0
DWIDTH 5 0
BBX 3 6 1 0
BITMAP
E0
A0
A0
E0
80
80
ENDCHAR
STARTCHAR Q
ENCODING 81
SWIDTH 781 0
DWIDTH 6 0
BBX 6 7 0 -1
BITMAP
30
48
84
84
44
78
08
ENDCHAR
STARTCHAR R
ENCODING 82
SWIDTH 622 0
DWIDTH 5 0
BBX 4 6 1 0
BITMAP
E0
90
A0
C0
A0
90
ENDCHAR
STARTCHAR S
ENCODING 83
SWIDTH 549 0
DWIDTH 4 0
BBX 4 6 0 0
BITMAP
70
80
40
30
10
F0
ENDCHAR
STARTCHAR T
ENCODING 84
SWIDTH 556 0
DWIDTH 4 0
BBX 4 6 0 0
BITMAP
F0
20
20
20
20
20
ENDCHAR
STARTCHAR U
ENCODING 85
SWIDTH 731 0
DWIDTH 6 0
BBX 4 6 1 0
BITMAP
90
90
90
90
90
F0
ENDCHAR
STARTCHAR V
ENCODING 86
SWIDTH 600 0
DWIDTH 5 0
BBX 5 6 0 0
BITMAP
88
90
50
50
60
20
ENDCHAR
STARTCHAR W
ENCODING 87
SWIDTH 930 0
DWIDTH 7 0
BBX 7 6 0 0
BITMAP
92
92
5A
6A
6C
44
ENDCHAR
STARTCHAR X
ENCODING 88
SWIDTH 586 0
DWIDTH 5 0
BBX 5 6 0 0
BITMAP
98
50
20
20
50
98
ENDCHAR
STARTCHAR Y
ENCODING 89
SWIDTH 566 0
DWIDTH 5 0
BBX 5 6 0 0
BITMAP
88
50
60
20
20
20
ENDCHAR
STARTCHAR Z
ENCODING 90
SWIDTH 572 0
DWIDTH 5 0
BBX 4 6 0 0
BITMAP
F0
10
20
40
40
F0
ENDCHAR
STARTCHAR bracketleft
ENCODING 91
SWIDTH 329 0
DWIDTH 3 0
BBX 1 7 1 -1
BITMAP
80
80
80
80
80
80
80
ENDCHAR
STARTCHAR backslash
ENCODING 92
SWIDTH 372 0
DWIDTH 3 0
BBX 3 6 0 0
BITMAP
80
80
40
40
40
20
ENDCHAR
STARTCHAR bracketright
ENCODING 93
SWIDTH 329 0
DWIDTH 3 0
BBX 2 7 0 -1
BITMAP
C0
40
40
40
40
40
C0
ENDCHAR
STARTCHAR asciicircum
ENCODING 94
SWIDTH 572 0
DWIDTH 5 0
BBX 4 4 0 2
BITMAP
20
60
50
90
ENDCHAR
STARTCHAR underscore
ENCODING 95
SWIDTH 444 0
DWIDTH 4 0
BBX 4 1 0 -1
BITMAP
F0
ENDCHAR
STARTCHAR grave
ENCODING 96
SWIDTH 281 0
DWIDTH 2 0
BBX 2 1 0 5
BITMAP
C0
ENDCHAR
STARTCHAR a
ENCODING 97
SWIDTH 561 0
DWIDTH 4 0
BBX 4 4 0 0
BITMAP
70
70
90
70
ENDCHAR
STARTCHAR b
ENCODING 98
SWIDTH 615 0
DWIDTH 5 0
BBX 3 6 1 0
BITMAP
80
C0
A0
A0
A0
E0
ENDCHAR
STARTCHAR c
ENCODING 99
SWIDTH 480 0
DWIDTH 4 0
BBX 4 4 0 0
BITMAP
70
80
80
70
ENDCHAR
STARTCHAR d
ENCODING 100
SWIDTH 615 0
DWIDTH 5 0
BBX 4 6 0 0
BITMAP
10
30
50
90
90
70
ENDCHAR
STARTCHAR e
ENCODING 101
SWIDTH 564 0
DWIDTH 5 0
BBX 4 4 0 0
BITMAP
70
F0
80
70
ENDCHAR
STARTCHAR f
ENCODING 102
SWIDTH 344 0
DWIDTH 3 0
BBX 3 6 0 0
BITMAP
60
60
C0
40
40
40
ENDCHAR
STARTCHAR g
ENCODING 103
SWIDTH 615 0
DWIDTH 5 0
BBX 4 6 0 -2
BITMAP
70
90
90
70
10
70
ENDCHAR
STARTCHAR h
ENCODING 104
SWIDTH 618 0
DWIDTH 5 0
BBX 3 6 1 0
BITMAP
80
C0
A0
A0
A0
A0
ENDCHAR
STARTCHAR i
ENCODING 105
SWIDTH 258 0
DWIDTH 2 0
BBX 1 6 1 0
BITMAP
80
00
80
80
80
80
ENDCHAR
STARTCHAR j
ENCODING 106
SWIDTH 258 0
DWIDTH 2 0
BBX 1 8 0 -2
BITMAP
80
00
80
80
80
80
80
80
ENDCHAR
STARTCHAR k
ENCODING 107
SWIDTH 534 0
DWIDTH 4 0
BBX 3 6 1 0
BITMAP
80
80
E0
80
C0
A0
ENDCHAR
STARTCHAR l
ENCODING 108
SWIDTH 258 0
DWIDTH 2 0
BBX 1 6 1 0
BITMAP
80
80
80
80
80
80
ENDCHAR
STARTCHAR m
ENCODING 109
SWIDTH 935 0
DWIDTH 7 0
BBX 6 4 1 0
BITMAP
FC
A4
A4
A4
ENDCHAR
STARTCHAR n
ENCODING 110
SWIDTH 618 0
DWIDTH 5 0
BBX 3 4 1 0
BITMAP
E0
A0
A0
A0
ENDCHAR
STARTCHAR o
ENCODING 111
SWIDTH 605 0
DWIDTH 5 0
BBX 4 4 0 0
BITMAP
70
90
90
70
ENDCHAR
STARTCHAR p
ENCODING 112
SWIDTH 615 0
DWIDTH 5 0
BBX 3 6 1 -2
BITMAP
E0
A0
A0
E0
80
80
ENDCHAR
STARTCHAR q
ENCODING 113
SWIDTH 615 0
DWIDTH 5 0
BBX 4 6 0 -2
BITMAP
70
90
90
70
10
10
ENDCHAR
STARTCHAR r
ENCODING 114
SWIDTH 413 0
DWIDTH 3 0
BBX 2 4 1 0
BITMAP
C0
80
80
80
ENDCHAR
STARTCHAR s
ENCODING 115
SWIDTH 479 0
DWIDTH 4 0
BBX 3 4 0 0
BITMAP
E0
40
20
E0
ENDCHAR
STARTCHAR t
ENCODING 116
SWIDTH 361 0
DWIDTH 3 0
BBX 3 5 0 0
BITMAP
60
C0
40
40
60
ENDCHAR
STARTCHAR u
ENCODING 117
SWIDTH 618 0
DWIDTH 5 0
BBX 3 4 1 0
BITMAP
A0
A0
A0
E0
ENDCHAR
STARTCHAR v
ENCODING 118
SWIDTH 508 0
DWIDTH 4 0
BBX 4 4 0 0
BITMAP
90
50
60
60
ENDCHAR
STARTCHAR w
ENCODING 119
SWIDTH 786 0
DWIDTH 6 0
BBX 6 4 0 0
BITMAP
94
B4
68
48
ENDCHAR
STARTCHAR x
ENCODING 120
SWIDTH 529 0
DWIDTH 4 0
BBX 4 4 0 0
BITMAP
D0
60
60
90
ENDCHAR
STARTCHAR y
ENCODING 121
SWIDTH 510 0
DWIDTH 4 0
BBX 4 6 0 -2
BITMAP
90
50
60
20
40
C0
ENDCHAR
STARTCHAR z
ENCODING 122
SWIDTH 470 0
DWIDTH 4 0
BBX 3 4 0 0
BITMAP
E0
20
40
E0
ENDCHAR
STARTCHAR braceleft
ENCODING 123
SWIDTH 380 0
DWIDTH 3 0
BBX 3 7 0 -1
BITMAP
20
40
40
C0
40
40
60
ENDCHAR
STARTCHAR bar
ENCODING 124
SWIDTH 551 0
DWIDTH 4 0
BBX 1 8 2 -2
BITMAP
80
80
80
80
80
80
80
80
ENDCHAR
STARTCHAR braceright
ENCODING 125
SWIDTH 380 0
DWIDTH 3 0
BBX 3 7 0 -1
BITMAP
80
40
40
60
40
40
C0
ENDCHAR
STARTCHAR asciitilde
ENCODING 126
SWIDTH 572 0
DWIDTH 5 0
BBX 4 1 0 2
BITMAP
F0
ENDCHAR
STARTCHAR uni00A0
ENCODING 160
SWIDTH 260 0
DWIDTH 2 0
BBX 1 1 0 0
BITMAP
00
ENDCHAR
STARTCHAR exclamdown
ENCODING 161
SWIDTH 269 0
DWIDTH 2 0
BBX 1 5 1 -1
BITMAP
80
80
80
80
80
ENDCHAR
STARTCHAR cent
ENCODING 162
SWIDTH 572 0
DWIDTH 5 0
BBX 3 6 1 0
BITMAP
40
A0
80
80
A0
40
ENDCHAR
STARTCHAR sterling
ENCODING 163
SWIDTH 572 0
DWIDTH 5 0
BBX 4 6 0 0
BITMAP
30
40
40
E0
40
F0
ENDCHAR
STARTCHAR currency
ENCODING 164
SWIDTH 572 0
DWIDTH 5 0
BBX 4 4 0 1
BITMAP
B0
50
50
F0
ENDCHAR
STARTCHAR yen
ENCODING 165
SWIDTH 572 0
DWIDTH 5 0
BBX 4 6 0 0
BITMAP
90
50
60
70
70
20
ENDCHAR
STARTCHAR brokenbar
ENCODING 166
SWIDTH 551 0
DWIDTH 4 0
BBX 1 8 2 -2
BITMAP
80
80
80
00
00
80
80
80
ENDCHAR
STARTCHAR section
ENCODING 167
SWIDTH 513 0
DWIDTH 4 0
BBX 4 6 0 0
BITMAP
70
40
B0
50
30
E0
ENDCHAR
STARTCHAR dieresis
ENCODING 168
SWIDTH 580 0
DWIDTH 5 0
BBX 2 1 1 5
BITMAP
C0
ENDCHAR
STARTCHAR copyright
ENCODING 169
SWIDTH 832 0
DWIDTH 7 0
BBX 6 6 0 0
BITMAP
38
54
A4
A4
B4
78
ENDCHAR
STARTCHAR ordfeminine
ENCODING 170
SWIDTH 357 0
DWIDTH 3 0
BBX 2 3 0 3
BITMAP
C0
40
C0
ENDCHAR
STARTCHAR guillemotleft
ENCODING 171
SWIDTH 509 0
DWIDTH 4 0
BBX 4 4 0 0
BITMAP
50
A0
60
50
ENDCHAR
STARTCHAR logicalnot
ENCODING 172
SWIDTH 572 0
DWIDTH 5 0
BBX 4 2 0 1
BITMAP
F0
10
ENDCHAR
STARTCHAR uni00AD
ENCODING 173
SWIDTH 322 0
DWIDTH 3 0
BBX 2 1 0 2
BITMAP
C0
ENDCHAR
STARTCHAR registered
ENCODING 174
SWIDTH 832 0
DWIDTH 7 0
BBX 6 6 0 0
BITMAP
38
74
AC
B4
AC
78
ENDCHAR
STARTCHAR overscore
ENCODING 175
SWIDTH 500 0
DWIDTH 4 0
BBX 4 1 0 6
BITMAP
F0
ENDCHAR
STARTCHAR degree
ENCODING 176
SWIDTH 428 0
DWIDTH 3 0
BBX 3 3 0 3
BITMAP
60
A0
40
ENDCHAR
STARTCHAR plusminus
ENCODING 177
SWIDTH 572 0
DWIDTH 5 0
BBX 4 5 0 0
BITMAP
20
20
F0
20
F0
ENDCHAR
STARTCHAR uni00B2
ENCODING 178
SWIDTH 350 0
DWIDTH 3 0
BBX 2 4 0 3
BITMAP
C0
40
40
C0
ENDCHAR
STARTCHAR uni00B3
ENCODING 179
SWIDTH 350 0
DWIDTH 3 0
BBX 3 4 0 3
BITMAP
C0
60
20
C0
ENDCHAR
STARTCHAR acute
ENCODING 180
SWIDTH 281 0
DWIDTH 2 0
BBX 2 1 0 5
BITMAP
C0
ENDCHAR
STARTCHAR uni00B5
ENCODING 181
SWIDTH 623 0
DWIDTH 5 0
BBX 3 6 1 -2
BITMAP
A0
A0
A0
E0
80
80
ENDCHAR
STARTCHAR paragraph
ENCODING 182
SWIDTH 655 0
DWIDTH 5 0
BBX 4 7 0 -1
BITMAP
70
F0
F0
70
30
30
30
ENDCHAR
STARTCHAR periodcentered
ENCODING 183
SWIDTH 268 0
DWIDTH 2 0
BBX 1 1 1 2
BITMAP
80
ENDCHAR
STARTCHAR cedilla
ENCODING 184
SWIDTH 225 0
DWIDTH 2 0
BBX 2 2 0 -2
BITMAP
80
C0
ENDCHAR
STARTCHAR uni00B9
ENCODING 185
SWIDTH 350 0
DWIDTH 3 0
BBX 2 4 0 3
BITMAP
40
C0
40
40
ENDCHAR
STARTCHAR ordmasculine
ENCODING 186
SWIDTH 376 0
DWIDTH 3 0
BBX 3 3 0 3
BITMAP
40
A0
E0
ENDCHAR
STARTCHAR guillemotright
ENCODING 187
SWIDTH 509 0
DWIDTH 4 0
BBX 4 4 0 0
BITMAP
A0
50
60
A0
ENDCHAR
STARTCHAR onequarter
ENCODING 188
SWIDTH 745 0
DWIDTH 6 0
BBX 6 6 0 0
BITMAP
48
C8
50
68
3C
44
ENDCHAR
STARTCHAR onehalf
ENCODING 189
SWIDTH 771 0
DWIDTH 6 0
BBX 6 6 0 0
BITMAP
48
D0
58
64
48
4C
ENDCHAR
STARTCHAR threequarters
ENCODING 190
SWIDTH 781 0
DWIDTH 6 0
BBX 6 6 0 0
BITMAP
C4
68
30
DC
3C
44
ENDCHAR
STARTCHAR questiondown
ENCODING 191
SWIDTH 434 0
DWIDTH 3 0
BBX 3 6 0 -2
BITMAP
20
20
40
80
80
60
ENDCHAR
STARTCHAR Agrave
ENCODING 192
SWIDTH 639 0
DWIDTH 5 0
BBX 5 7 0 0
BITMAP
60
20
20
50
70
88
88
ENDCHAR
STARTCHAR Aacute
ENCODING 193
SWIDTH 639 0
DWIDTH 5 0
BBX 5 7 0 0
BITMAP
30
20
20
50
70
88
88
ENDCHAR
STARTCHAR Acircumflex
ENCODING 194
SWIDTH 639 0
DWIDTH 5 0
BBX 5 7 0 0
BITMAP
70
20
20
50
70
88
88
ENDCHAR
STARTCHAR Atilde
ENCODING 195
SWIDTH 639 0
DWIDTH 5 0
BBX 5 7 0 0
BITMAP
70
20
20
50
70
88
88
ENDCHAR
STARTCHAR Adieresis
ENCODING 196
SWIDTH 639 0
DWIDTH 5 0
BBX 5 7 0 0
BITMAP
50
20
20
50
70
88
88
ENDCHAR
STARTCHAR Aring
ENCODING 197
SWIDTH 639 0
DWIDTH 5 0
BBX 5 7 0 0
BITMAP
20
20
20
50
70
88
88
ENDCHAR
STARTCHAR AE
ENCODING 198
SWIDTH 881 0
DWIDTH 7 0
BBX 7 6 0 0
BITMAP
1E
30
30
7C
50
8E
ENDCHAR
STARTCHAR Ccedilla
ENCODING 199
SWIDTH 632 0
DWIDTH 5 0
BBX 5 8 0 -2
BITMAP
38
40
80
80
40
78
20
30
ENDCHAR
STARTCHAR Egrave
ENCODING 200
SWIDTH 556 0
DWIDTH 4 0
BBX 3 7 1 0
BITMAP
C0
E0
80
80
E0
80
E0
ENDCHAR
STARTCHAR Eacute
ENCODING 201
SWIDTH 556 0
DWIDTH 4 0
BBX 3 7 1 0
BITMAP
60
E0
80
80
E0
80
E0
ENDCHAR
STARTCHAR Ecircumflex
ENCODING 202
SWIDTH 556 0
DWIDTH 4 0
BBX 3 7 1 0
BITMAP
40
E0
80
80
E0
80
E0
ENDCHAR
STARTCHAR Edieresis
ENCODING 203
SWIDTH 556 0
DWIDTH 4 0
BBX 3 7 1 0
BITMAP
A0
E0
80
80
E0
80
E0
ENDCHAR
STARTCHAR Igrave
ENCODING 204
SWIDTH 339 0
DWIDTH 3 0
BBX 2 7 0 0
BITMAP
C0
C0
40
40
40
40
C0
ENDCHAR
STARTCHAR Iacute
ENCODING 205
SWIDTH 339 0
DWIDTH 3 0
BBX 3 7 0 0
BITMAP
60
C0
40
40
40
40
C0
ENDCHAR
STARTCHAR Icircumflex
ENCODING 206
SWIDTH 339 0
DWIDTH 3 0
BBX 3 7 0 0
BITMAP
40
E0
40
40
40
40
C0
ENDCHAR
STARTCHAR Idieresis
ENCODING 207
SWIDTH 339 0
DWIDTH 3 0
BBX 2 7 0 0
BITMAP
C0
C0
40
40
40
40
C0
ENDCHAR
STARTCHAR Eth
ENCODING 208
SWIDTH 730 0
DWIDTH 6 0
BBX 5 6 0 0
BITMAP
70
48
48
E8
48
70
ENDCHAR
STARTCHAR Ntilde
ENCODING 209
SWIDTH 760 0
DWIDTH 6 0
BBX 4 7 1 0
BITMAP
70
90
90
D0
B0
B0
90
ENDCHAR
STARTCHAR Ograve
ENCODING 210
SWIDTH 781 0
DWIDTH 6 0
BBX 6 7 0 0
BITMAP
20
30
48
84
84
44
78
ENDCHAR
STARTCHAR Oacute
ENCODING 211
SWIDTH 781 0
DWIDTH 6 0
BBX 6 7 0 0
BITMAP
10
30
48
84
84
44
78
ENDCHAR
STARTCHAR Ocircumflex
ENCODING 212
SWIDTH 781 0
DWIDTH 6 0
BBX 6 7 0 0
BITMAP
30
30
48
84
84
44
78
ENDCHAR
STARTCHAR Otilde
ENCODING 213
SWIDTH 781 0
DWIDTH 6 0
BBX 6 7 0 0
BITMAP
28
30
48
84
84
44
78
ENDCHAR
STARTCHAR Odieresis
ENCODING 214
SWIDTH 781 0
DWIDTH 6 0
BBX 6 7 0 0
BITMAP
30
30
48
84
84
44
78
ENDCHAR
STARTCHAR multiply
ENCODING 215
SWIDTH 572 0
DWIDTH 5 0
BBX 3 4 1 1
BITMAP
A0
C0
40
A0
ENDCHAR
STARTCHAR Oslash
ENCODING 216
SWIDTH 781 0
DWIDTH 6 0
BBX 6 6 0 0
BITMAP
38
48
94
A4
44
78
ENDCHAR
STARTCHAR Ugrave
ENCODING 217
SWIDTH 731 0
DWIDTH 6 0
BBX 4 7 1 0
BITMAP
40
90
90
90
90
90
F0
ENDCHAR
STARTCHAR Uacute
ENCODING 218
SWIDTH 731 0
DWIDTH 6 0
BBX 4 7 1 0
BITMAP
20
D0
90
90
90
90
F0
ENDCHAR
STARTCHAR Ucircumflex
ENCODING 219
SWIDTH 731 0
DWIDTH 6 0
BBX 4 7 1 0
BITMAP
60
90
90
90
90
90
F0
ENDCHAR
STARTCHAR Udieresis
ENCODING 220
SWIDTH 731 0
DWIDTH 6 0
BBX 4 7 1 0
BITMAP
60
90
90
90
90
90
F0
ENDCHAR
STARTCHAR Yacute
ENCODING 221
SWIDTH 566 0
DWIDTH 5 0
BBX 5 7 0 0
BITMAP
20
88
50
60
20
20
20
ENDCHAR
STARTCHAR Thorn
ENCODING 222
SWIDTH 605 0
DWIDTH 5 0
BBX 3 6 1 0
BITMAP
80
E0
A0
A0
E0
80
ENDCHAR
STARTCHAR germandbls
ENCODING 223
SWIDTH 631 0
DWIDTH 5 0
BBX 4 6 1 0
BITMAP
E0
A0
C0
A0
90
F0
ENDCHAR
STARTCHAR agrave
ENCODING 224
SWIDTH 561 0
DWIDTH 4 0
BBX 4 6 0 0
BITMAP
60
20
50
70
90
70
ENDCHAR
STARTCHAR aacute
ENCODING 225
SWIDTH 561 0
DWIDTH 4 0
BBX 4 6 0 0
BITMAP
20
20
50
70
90
70
ENDCHAR
STARTCHAR acircumflex
ENCODING 226
SWIDTH 561 0
DWIDTH 4 0
BBX 4 6 0 0
BITMAP
60
30
50
70
90
70
ENDCHAR
STARTCHAR atilde
ENCODING 227
SWIDTH 561 0
DWIDTH 4 0
BBX 4 6 0 0
BITMAP
70
20
50
70
90
70
ENDCHAR
STARTCHAR adieresis
ENCODING 228
SWIDTH 561 0
DWIDTH 4 0
BBX 4 6 0 0
BITMAP
60
20
50
70
90
70
ENDCHAR
STARTCHAR aring
ENCODING 229
SWIDTH 561 0
DWIDTH 4 0
BBX 4 7 0 0
BITMAP
20
60
20
50
70
90
70
ENDCHAR
STARTCHAR ae
ENCODING 230
SWIDTH 864 0
DWIDTH 7 0
BBX 7 4 0 0
BITMAP
FC
7E
90
6C
ENDCHAR
STARTCHAR ccedilla
ENCODING 231
SWIDTH 480 0
DWIDTH 4 0
BBX 4 6 0 -2
BITMAP
70
80
80
70
20
60
ENDCHAR
STARTCHAR egrave
ENCODING 232
SWIDTH 564 0
DWIDTH 5 0
BBX 4 6 0 0
BITMAP
60
20
50
F0
80
70
ENDCHAR
STARTCHAR eacute
ENCODING 233
SWIDTH 564 0
DWIDTH 5 0
BBX 4 6 0 0
BITMAP
20
20
50
F0
80
70
ENDCHAR
STARTCHAR ecircumflex
ENCODING 234
SWIDTH 564 0
DWIDTH 5 0
BBX 4 6 0 0
BITMAP
60
30
50
F0
80
70
ENDCHAR
STARTCHAR edieresis
ENCODING 235
SWIDTH 564 0
DWIDTH 5 0
BBX 4 6 0 0
BITMAP
50
20
50
F0
80
70
ENDCHAR
STARTCHAR igrave
ENCODING 236
SWIDTH 258 0
DWIDTH 2 0
BBX 2 6 0 0
BITMAP
80
40
40
40
40
40
ENDCHAR
STARTCHAR iacute
ENCODING 237
SWIDTH 258 0
DWIDTH 2 0
BBX 1 6 1 0
BITMAP
80
00
80
80
80
80
ENDCHAR
STARTCHAR icircumflex
ENCODING 238
SWIDTH 258 0
DWIDTH 2 0
BBX 2 6 0 0
BITMAP
C0
00
40
40
40
40
ENDCHAR
STARTCHAR idieresis
ENCODING 239
SWIDTH 258 0
DWIDTH 2 0
BBX 2 6 0 0
BITMAP
C0
00
40
40
40
40
ENDCHAR
STARTCHAR eth
ENCODING 240
SWIDTH 605 0
DWIDTH 5 0
BBX 4 6 0 0
BITMAP
70
50
70
90
90
70
ENDCHAR
STARTCHAR ntilde
ENCODING 241
SWIDTH 618 0
DWIDTH 5 0
BBX 3 6 1 0
BITMAP
E0
40
A0
A0
A0
A0
ENDCHAR
STARTCHAR ograve
ENCODING 242
SWIDTH 605 0
DWIDTH 5 0
BBX 4 6 0 0
BITMAP
60
20
50
90
90
70
ENDCHAR
STARTCHAR oacute
ENCODING 243
SWIDTH 605 0
DWIDTH 5 0
BBX 4 6 0 0
BITMAP
30
20
50
90
90
70
ENDCHAR
STARTCHAR ocircumflex
ENCODING 244
SWIDTH 605 0
DWIDTH 5 0
BBX 4 6 0 0
BITMAP
70
20
50
90
90
70
ENDCHAR
STARTCHAR otilde
ENCODING 245
SWIDTH 605 0
DWIDTH 5 0
BBX 4 6 0 0
BITMAP
70
20
50
90
90
70
ENDCHAR
STARTCHAR odieresis
ENCODING 246
SWIDTH 605 0
DWIDTH 5 0
BBX 4 6 0 0
BITMAP
50
20
50
90
90
70
ENDCHAR
STARTCHAR divide
ENCODING 247
SWIDTH 572 0
DWIDTH 5 0
BBX 4 4 0 1
BITMAP
20
00
F0
20
ENDCHAR
STARTCHAR oslash
ENCODING 248
SWIDTH 605 0
DWIDTH 5 0
BBX 4 5 0 0
BITMAP
30
50
B0
D0
70
ENDCHAR
STARTCHAR ugrave
ENCODING 249
SWIDTH 618 0
DWIDTH 5 0
BBX 3 6 1 0
BITMAP
C0
00
A0
A0
A0
E0
ENDCHAR
STARTCHAR uacute
ENCODING 250
SWIDTH 618 0
DWIDTH 5 0
BBX 3 6 1 0
BITMAP
60
00
A0
A0
A0
E0
ENDCHAR
STARTCHAR ucircumflex
ENCODING 251
SWIDTH 618 0
DWIDTH 5 0
BBX 3 6 1 0
BITMAP
E0
00
A0
A0
A0
E0
ENDCHAR
STARTCHAR udieresis
ENCODING 252
SWIDTH 618 0
DWIDTH 5 0
BBX 3 6 1 0
BITMAP
A0
00
A0
A0
A0
E0
ENDCHAR
STARTCHAR yacute
ENCODING 253
SWIDTH 510 0
DWIDTH 4 0
BBX 4 8 0 -2
BITMAP
20
00
90
50
60
20
40
C0
ENDCHAR
STARTCHAR thorn
ENCODING 254
SWIDTH 615 0
DWIDTH 5 0
BBX 3 8 1 -2
BITMAP
80
C0
A0
A0
A0
E0
80
80
ENDCHAR
STARTCHAR ydieresis
ENCODING 255
SWIDTH 510 0
DWIDTH 4 0
BBX 4 8 0 -2
BITMAP
60
00
90
50
60
20
40
C0
ENDCHAR
STARTCHAR Amacron
ENCODING 256
SWIDTH 639 0
DWIDTH 5 0
BBX 5 6 0 0
BITMAP
70
20
50
70
88
88
ENDCHAR
STARTCHAR amacron
ENCODING 257
SWIDTH 561 0
DWIDTH 4 0
BBX 4 5 0 0
BITMAP
60
50
70
90
70
ENDCHAR
STARTCHAR Abreve
ENCODING 258
SWIDTH 639 0
DWIDTH 5 0
BBX 5 7 0 0
BITMAP
50
20
20
50
70
88
88
ENDCHAR
STARTCHAR abreve
ENCODING 259
SWIDTH 561 0
DWIDTH 4 0
BBX 4 6 0 0
BITMAP
50
20
50
70
90
70
ENDCHAR
STARTCHAR Aogonek
ENCODING 260
SWIDTH 639 0
DWIDTH 5 0
BBX 5 8 0 -2
BITMAP
20
20
50
70
88
88
08
08
ENDCHAR
STARTCHAR aogonek
ENCODING 261
SWIDTH 561 0
DWIDTH 4 0
BBX 4 6 0 -2
BITMAP
70
70
90
70
10
10
ENDCHAR
STARTCHAR Cacute
ENCODING 262
SWIDTH 632 0
DWIDTH 5 0
BBX 5 7 0 0
BITMAP
10
38
40
80
80
40
78
ENDCHAR
STARTCHAR cacute
ENCODING 263
SWIDTH 480 0
DWIDTH 4 0
BBX 4 6 0 0
BITMAP
20
30
40
80
80
70
ENDCHAR
STARTCHAR Ccircumflex
ENCODING 264
SWIDTH 632 0
DWIDTH 5 0
BBX 5 7 0 0
BITMAP
30
38
40
80
80
40
78
ENDCHAR
STARTCHAR ccircumflex
ENCODING 265
SWIDTH 480 0
DWIDTH 4 0
BBX 4 6 0 0
BITMAP
60
30
40
80
80
70
ENDCHAR
STARTCHAR Cdotaccent
ENCODING 266
SWIDTH 632 0
DWIDTH 5 0
BBX 5 7 0 0
BITMAP
10
38
40
80
80
40
78
ENDCHAR
STARTCHAR cdotaccent
ENCODING 267
SWIDTH 480 0
DWIDTH 4 0
BBX 4 6 0 0
BITMAP
20
30
40
80
80
70
ENDCHAR
STARTCHAR Ccaron
ENCODING 268
SWIDTH 632 0
DWIDTH 5 0
BBX 5 7 0 0
BITMAP
30
38
40
80
80
40
78
ENDCHAR
STARTCHAR ccaron
ENCODING 269
SWIDTH 480 0
DWIDTH 4 0
BBX 4 6 0 0
BITMAP
70
30
40
80
80
70
ENDCHAR
STARTCHAR Dcaron
ENCODING 270
SWIDTH 730 0
DWIDTH 6 0
BBX 4 7 1 0
BITMAP
60
E0
90
90
90
90
E0
ENDCHAR
STARTCHAR dcaron
ENCODING 271
SWIDTH 615 0
DWIDTH 5 0
BBX 6 6 0 0
BITMAP
1C
30
50
90
90
70
ENDCHAR
STARTCHAR Dcroat
ENCODING 272
SWIDTH 730 0
DWIDTH 6 0
BBX 5 6 0 0
BITMAP
70
48
48
E8
48
70
ENDCHAR
STARTCHAR dcroat
ENCODING 273
SWIDTH 617 0
DWIDTH 5 0
BBX 5 6 0 0
BITMAP
18
30
50
90
90
70
ENDCHAR
STARTCHAR Emacron
ENCODING 274
SWIDTH 556 0
DWIDTH 4 0
BBX 3 6 1 0
BITMAP
E0
80
80
E0
80
E0
ENDCHAR
STARTCHAR emacron
ENCODING 275
SWIDTH 564 0
DWIDTH 5 0
BBX 4 5 0 0
BITMAP
60
50
F0
80
70
ENDCHAR
STARTCHAR Ebreve
ENCODING 276
SWIDTH 556 0
DWIDTH 4 0
BBX 3 7 1 0
BITMAP
A0
E0
80
80
E0
80
E0
ENDCHAR
STARTCHAR ebreve
ENCODING 277
SWIDTH 564 0
DWIDTH 5 0
BBX 4 6 0 0
BITMAP
50
20
50
F0
80
70
ENDCHAR
STARTCHAR Edotaccent
ENCODING 278
SWIDTH 556 0
DWIDTH 4 0
BBX 3 7 1 0
BITMAP
40
E0
80
80
E0
80
E0
ENDCHAR
STARTCHAR edotaccent
ENCODING 279
SWIDTH 564 0
DWIDTH 5 0
BBX 4 6 0 0
BITMAP
20
20
50
F0
80
70
ENDCHAR
STARTCHAR Eogonek
ENCODING 280
SWIDTH 556 0
DWIDTH 4 0
BBX 3 8 1 -2
BITMAP
E0
80
80
E0
80
E0
20
20
ENDCHAR
STARTCHAR eogonek
ENCODING 281
SWIDTH 564 0
DWIDTH 5 0
BBX 4 6 0 -2
BITMAP
70
F0
80
70
20
10
ENDCHAR
STARTCHAR Ecaron
ENCODING 282
SWIDTH 556 0
DWIDTH 4 0
BBX 3 7 1 0
BITMAP
E0
E0
80
80
E0
80
E0
ENDCHAR
STARTCHAR ecaron
ENCODING 283
SWIDTH 564 0
DWIDTH 5 0
BBX 4 6 0 0
BITMAP
70
20
50
F0
80
70
ENDCHAR
STARTCHAR Gcircumflex
ENCODING 284
SWIDTH 728 0
DWIDTH 6 0
BBX 5 7 0 0
BITMAP
30
38
40
80
98
48
78
ENDCHAR
STARTCHAR gcircumflex
ENCODING 285
SWIDTH 615 0
DWIDTH 5 0
BBX 4 8 0 -2
BITMAP
70
20
50
90
90
70
10
70
ENDCHAR
STARTCHAR Gbreve
ENCODING 286
SWIDTH 728 0
DWIDTH 6 0
BBX 5 7 0 0
BITMAP
28
38
40
80
98
48
78
ENDCHAR
STARTCHAR gbreve
ENCODING 287
SWIDTH 615 0
DWIDTH 5 0
BBX 4 8 0 -2
BITMAP
50
20
50
90
90
70
10
70
ENDCHAR
STARTCHAR Gdotaccent
ENCODING 288
SWIDTH 728 0
DWIDTH 6 0
BBX 5 7 0 0
BITMAP
10
38
40
80
98
48
78
ENDCHAR
STARTCHAR gdotaccent
ENCODING 289
SWIDTH 615 0
DWIDTH 5 0
BBX 4 8 0 -2
BITMAP
20
20
50
90
90
70
10
70
ENDCHAR
STARTCHAR uni0122
ENCODING 290
SWIDTH 728 0
DWIDTH 6 0
BBX 5 8 0 -2
BITMAP
38
40
80
98
48
78
10
10
ENDCHAR
STARTCHAR uni0123
ENCODING 291
SWIDTH 615 0
DWIDTH 5 0
BBX 4 8 0 -2
BITMAP
20
20
50
90
90
70
10
70
ENDCHAR
STARTCHAR Hcircumflex
ENCODING 292
SWIDTH 741 0
DWIDTH 6 0
BBX 4 7 1 0
BITMAP
60
90
90
90
F0
90
90
ENDCHAR
STARTCHAR hcircumflex
ENCODING 293
SWIDTH 618 0
DWIDTH 5 0
BBX 4 8 0 0
BITMAP
C0
00
40
60
50
50
50
50
ENDCHAR
STARTCHAR Hbar
ENCODING 294
SWIDTH 741 0
DWIDTH 6 0
BBX 6 6 0 0
BITMAP
48
FC
48
78
48
48
ENDCHAR
STARTCHAR hbar
ENCODING 295
SWIDTH 618 0
DWIDTH 5 0
BBX 4 6 0 0
BITMAP
E0
40
70
50
50
50
ENDCHAR
STARTCHAR Itilde
ENCODING 296
SWIDTH 339 0
DWIDTH 3 0
BBX 3 7 0 0
BITMAP
E0
C0
40
40
40
40
C0
ENDCHAR
STARTCHAR itilde
ENCODING 297
SWIDTH 258 0
DWIDTH 2 0
BBX 3 6 0 0
BITMAP
E0
00
40
40
40
40
ENDCHAR
STARTCHAR Imacron
ENCODING 298
SWIDTH 339 0
DWIDTH 3 0
BBX 3 6 0 0
BITMAP
E0
40
40
40
40
C0
ENDCHAR
STARTCHAR imacron
ENCODING 299
SWIDTH 258 0
DWIDTH 2 0
BBX 2 5 0 0
BITMAP
C0
40
40
40
40
ENDCHAR
STARTCHAR Ibreve
ENCODING 300
SWIDTH 339 0
DWIDTH 3 0
BBX 3 7 0 0
BITMAP
A0
C0
40
40
40
40
C0
ENDCHAR
STARTCHAR ibreve
ENCODING 301
SWIDTH 258 0
DWIDTH 2 0
BBX 2 6 0 0
BITMAP
C0
00
40
40
40
40
ENDCHAR
STARTCHAR Iogonek
ENCODING 302
SWIDTH 339 0
DWIDTH 3 0
BBX 2 8 0 -2
BITMAP
C0
40
40
40
40
C0
40
40
ENDCHAR
STARTCHAR iogonek
ENCODING 303
SWIDTH 258 0
DWIDTH 2 0
BBX 2 8 0 -2
BITMAP
40
00
40
40
40
40
80
C0
ENDCHAR
STARTCHAR Idotaccent
ENCODING 304
SWIDTH 339 0
DWIDTH 3 0
BBX 2 7 0 0
BITMAP
40
C0
40
40
40
40
C0
ENDCHAR
STARTCHAR dotlessi
ENCODING 305
SWIDTH 258 0
DWIDTH 2 0
BBX 1 4 1 0
BITMAP
80
80
80
80
ENDCHAR
STARTCHAR IJ
ENCODING 306
SWIDTH 612 0
DWIDTH 5 0
BBX 4 8 0 -2
BITMAP
D0
50
50
50
50
D0
10
20
ENDCHAR
STARTCHAR ij
ENCODING 307
SWIDTH 516 0
DWIDTH 4 0
BBX 3 8 1 -2
BITMAP
A0
00
A0
A0
A0
A0
20
40
ENDCHAR
STARTCHAR Jcircumflex
ENCODING 308
SWIDTH 273 0
DWIDTH 2 0
BBX 3 9 -1 -2
BITMAP
60
20
20
20
20
20
20
20
C0
ENDCHAR
STARTCHAR jcircumflex
ENCODING 309
SWIDTH 258 0
DWIDTH 2 0
BBX 2 8 0 -2
BITMAP
C0
00
40
40
40
40
40
80
ENDCHAR
STARTCHAR uni0136
ENCODING 310
SWIDTH 619 0
DWIDTH 5 0
BBX 4 8 1 -2
BITMAP
90
A0
C0
C0
A0
90
40
40
ENDCHAR
STARTCHAR uni0137
ENCODING 311
SWIDTH 534 0
DWIDTH 4 0
BBX 3 8 1 -2
BITMAP
80
80
E0
80
C0
A0
40
80
ENDCHAR
STARTCHAR kgreenlandic
ENCODING 312
SWIDTH 534 0
DWIDTH 4 0
BBX 3 4 1 0
BITMAP
E0
C0
C0
A0
ENDCHAR
STARTCHAR Lacute
ENCODING 313
SWIDTH 524 0
DWIDTH 4 0
BBX 3 7 1 0
BITMAP
80
80
80
80
80
80
E0
ENDCHAR
STARTCHAR lacute
ENCODING 314
SWIDTH 258 0
DWIDTH 2 0
BBX 1 8 1 0
BITMAP
80
00
80
80
80
80
80
80
ENDCHAR
STARTCHAR uni013B
ENCODING 315
SWIDTH 524 0
DWIDTH 4 0
BBX 3 8 1 -2
BITMAP
80
80
80
80
80
E0
40
40
ENDCHAR
STARTCHAR uni013C
ENCODING 316
SWIDTH 258 0
DWIDTH 2 0
BBX 1 8 1 -2
BITMAP
80
80
80
80
80
80
80
80
ENDCHAR
STARTCHAR Lcaron
ENCODING 317
SWIDTH 524 0
DWIDTH 4 0
BBX 3 6 1 0
BITMAP
A0
A0
80
80
80
E0
ENDCHAR
STARTCHAR lcaron
ENCODING 318
SWIDTH 258 0
DWIDTH 2 0
BBX 2 6 1 0
BITMAP
C0
80
80
80
80
80
ENDCHAR
STARTCHAR Ldot
ENCODING 319
SWIDTH 524 0
DWIDTH 4 0
BBX 3 6 1 0
BITMAP
80
80
80
A0
80
E0
ENDCHAR
STARTCHAR ldot
ENCODING 320
SWIDTH 268 0
DWIDTH 2 0
BBX 2 6 1 0
BITMAP
80
80
C0
80
80
80
ENDCHAR
STARTCHAR Lslash
ENCODING 321
SWIDTH 524 0
DWIDTH 4 0
BBX 4 6 0 0
BITMAP
40
40
60
C0
40
70
ENDCHAR
STARTCHAR lslash
ENCODING 322
SWIDTH 258 0
DWIDTH 2 0
BBX 2 6 0 0
BITMAP
80
80
40
80
80
80
ENDCHAR
STARTCHAR Nacute
ENCODING 323
SWIDTH 760 0
DWIDTH 6 0
BBX 4 7 1 0
BITMAP
20
90
90
D0
B0
B0
90
ENDCHAR
STARTCHAR nacute
ENCODING 324
SWIDTH 618 0
DWIDTH 5 0
BBX 3 6 1 0
BITMAP
60
40
A0
A0
A0
A0
ENDCHAR
STARTCHAR uni0145
ENCODING 325
SWIDTH 760 0
DWIDTH 6 0
BBX 4 8 1 -2
BITMAP
90
90
D0
B0
B0
90
20
40
ENDCHAR
STARTCHAR uni0146
ENCODING 326
SWIDTH 618 0
DWIDTH 5 0
BBX 3 6 1 -2
BITMAP
E0
A0
A0
A0
40
40
ENDCHAR
STARTCHAR Ncaron
ENCODING 327
SWIDTH 760 0
DWIDTH 6 0
BBX 4 7 1 0
BITMAP
60
90
90
D0
B0
B0
90
ENDCHAR
STARTCHAR ncaron
ENCODING 328
SWIDTH 618 0
DWIDTH 5 0
BBX 3 6 1 0
BITMAP
E0
40
A0
A0
A0
A0
ENDCHAR
STARTCHAR napostrophe
ENCODING 329
SWIDTH 688 0
DWIDTH 6 0
BBX 5 6 0 0
BITMAP
80
90
68
48
48
48
ENDCHAR
STARTCHAR Eng
ENCODING 330
SWIDTH 760 0
DWIDTH 6 0
BBX 4 8 1 -2
BITMAP
90
90
D0
B0
90
90
10
20
ENDCHAR
STARTCHAR eng
ENCODING 331
SWIDTH 618 0
DWIDTH 5 0
BBX 3 6 1 -2
BITMAP
E0
A0
A0
A0
20
20
ENDCHAR
STARTCHAR Omacron
ENCODING 332
SWIDTH 781 0
DWIDTH 6 0
BBX 6 6 0 0
BITMAP
30
48
84
84
44
78
ENDCHAR
STARTCHAR omacron
ENCODING 333
SWIDTH 605 0
DWIDTH 5 0
BBX 4 5 0 0
BITMAP
70
50
90
90
70
ENDCHAR
STARTCHAR Obreve
ENCODING 334
SWIDTH 781 0
DWIDTH 6 0
BBX 6 7 0 0
BITMAP
30
30
48
84
84
44
78
ENDCHAR
STARTCHAR obreve
ENCODING 335
SWIDTH 605 0
DWIDTH 5 0
BBX 4 6 0 0
BITMAP
50
20
50
90
90
70
ENDCHAR
STARTCHAR Ohungarumlaut
ENCODING 336
SWIDTH 781 0
DWIDTH 6 0
BBX 6 7 0 0
BITMAP
38
30
48
84
84
44
78
ENDCHAR
STARTCHAR ohungarumlaut
ENCODING 337
SWIDTH 605 0
DWIDTH 5 0
BBX 4 6 0 0
BITMAP
50
20
50
90
90
70
ENDCHAR
STARTCHAR OE
ENCODING 338
SWIDTH 928 0
DWIDTH 7 0
BBX 7 6 0 0
BITMAP
3E
48
88
8E
48
7E
ENDCHAR
STARTCHAR oe
ENCODING 339
SWIDTH 946 0
DWIDTH 8 0
BBX 7 4 0 0
BITMAP
7E
8E
90
7E
ENDCHAR
STARTCHAR Racute
ENCODING 340
SWIDTH 622 0
DWIDTH 5 0
BBX 4 7 1 0
BITMAP
60
E0
90
A0
C0
A0
90
ENDCHAR
STARTCHAR racute
ENCODING 341
SWIDTH 413 0
DWIDTH 3 0
BBX 2 6 1 0
BITMAP
40
C0
80
80
80
80
ENDCHAR
STARTCHAR uni0156
ENCODING 342
SWIDTH 622 0
DWIDTH 5 0
BBX 4 8 1 -2
BITMAP
E0
90
A0
C0
A0
90
40
40
ENDCHAR
STARTCHAR uni0157
ENCODING 343
SWIDTH 413 0
DWIDTH 3 0
BBX 3 6 0 -2
BITMAP
60
40
40
40
40
80
ENDCHAR
STARTCHAR Rcaron
ENCODING 344
SWIDTH 622 0
DWIDTH 5 0
BBX 4 7 1 0
BITMAP
E0
E0
90
A0
C0
A0
90
ENDCHAR
STARTCHAR rcaron
ENCODING 345
SWIDTH 413 0
DWIDTH 3 0
BBX 2 6 1 0
BITMAP
C0
40
80
80
80
80
ENDCHAR
STARTCHAR Sacute
ENCODING 346
SWIDTH 549 0
DWIDTH 4 0
BBX 4 7 0 0
BITMAP
20
70
80
40
30
10
F0
ENDCHAR
STARTCHAR sacute
ENCODING 347
SWIDTH 479 0
DWIDTH 4 0
BBX 3 6 0 0
BITMAP
20
60
80
40
20
E0
ENDCHAR
STARTCHAR Scircumflex
ENCODING 348
SWIDTH 549 0
DWIDTH 4 0
BBX 4 7 0 0
BITMAP
60
70
80
40
30
10
F0
ENDCHAR
STARTCHAR scircumflex
ENCODING 349
SWIDTH 479 0
DWIDTH 4 0
BBX 3 6 0 0
BITMAP
60
60
80
40
20
E0
ENDCHAR
STARTCHAR Scedilla
ENCODING 350
SWIDTH 549 0
DWIDTH 4 0
BBX 4 8 0 -2
BITMAP
70
80
40
30
10
F0
20
60
ENDCHAR
STARTCHAR scedilla
ENCODING 351
SWIDTH 479 0
DWIDTH 4 0
BBX 3 6 0 -2
BITMAP
E0
40
20
E0
40
60
ENDCHAR
STARTCHAR Scaron
ENCODING 352
SWIDTH 549 0
DWIDTH 4 0
BBX 4 7 0 0
BITMAP
70
70
80
40
30
10
F0
ENDCHAR
STARTCHAR scaron
ENCODING 353
SWIDTH 479 0
DWIDTH 4 0
BBX 3 6 0 0
BITMAP
60
60
80
40
20
E0
ENDCHAR
STARTCHAR uni0162
ENCODING 354
SWIDTH 556 0
DWIDTH 4 0
BBX 4 8 0 -2
BITMAP
F0
20
20
20
20
20
20
60
ENDCHAR
STARTCHAR uni0163
ENCODING 355
SWIDTH 361 0
DWIDTH 3 0
BBX 3 7 0 -2
BITMAP
60
C0
40
40
60
40
60
ENDCHAR
STARTCHAR Tcaron
ENCODING 356
SWIDTH 556 0
DWIDTH 4 0
BBX 4 7 0 0
BITMAP
70
F0
20
20
20
20
20
ENDCHAR
STARTCHAR tcaron
ENCODING 357
SWIDTH 361 0
DWIDTH 3 0
BBX 4 6 0 0
BITMAP
10
60
C0
40
40
60
ENDCHAR
STARTCHAR Tbar
ENCODING 358
SWIDTH 556 0
DWIDTH 4 0
BBX 4 6 0 0
BITMAP
F0
20
20
70
20
20
ENDCHAR
STARTCHAR tbar
ENCODING 359
SWIDTH 361 0
DWIDTH 3 0
BBX 3 5 0 0
BITMAP
60
C0
E0
40
60
ENDCHAR
STARTCHAR Utilde
ENCODING 360
SWIDTH 731 0
DWIDTH 6 0
BBX 4 7 1 0
BITMAP
70
90
90
90
90
90
F0
ENDCHAR
STARTCHAR utilde
ENCODING 361
SWIDTH 618 0
DWIDTH 5 0
BBX 3 6 1 0
BITMAP
E0
00
A0
A0
A0
E0
ENDCHAR
STARTCHAR Umacron
ENCODING 362
SWIDTH 731 0
DWIDTH 6 0
BBX 4 6 1 0
BITMAP
F0
90
90
90
90
F0
ENDCHAR
STARTCHAR umacron
ENCODING 363
SWIDTH 618 0
DWIDTH 5 0
BBX 3 5 1 0
BITMAP
E0
A0
A0
A0
E0
ENDCHAR
STARTCHAR Ubreve
ENCODING 364
SWIDTH 731 0
DWIDTH 6 0
BBX 4 7 1 0
BITMAP
60
90
90
90
90
90
F0
ENDCHAR
STARTCHAR ubreve
ENCODING 365
SWIDTH 618 0
DWIDTH 5 0
BBX 3 6 1 0
BITMAP
E0
00
A0
A0
A0
E0
ENDCHAR
STARTCHAR Uring
ENCODING 366
SWIDTH 731 0
DWIDTH 6 0
BBX 4 8 1 0
BITMAP
40
60
90
90
90
90
90
F0
ENDCHAR
STARTCHAR uring
ENCODING 367
SWIDTH 618 0
DWIDTH 5 0
BBX 3 7 1 0
BITMAP
40
E0
00
A0
A0
A0
E0
ENDCHAR
STARTCHAR Uhungarumlaut
ENCODING 368
SWIDTH 731 0
DWIDTH 6 0
BBX 4 7 1 0
BITMAP
60
90
90
90
90
90
F0
ENDCHAR
STARTCHAR uhungarumlaut
ENCODING 369
SWIDTH 618 0
DWIDTH 5 0
BBX 3 6 1 0
BITMAP
E0
40
A0
A0
A0
E0
ENDCHAR
STARTCHAR Uogonek
ENCODING 370
SWIDTH 731 0
DWIDTH 6 0
BBX 4 8 1 -2
BITMAP
90
90
90
90
90
F0
20
20
ENDCHAR
STARTCHAR uogonek
ENCODING 371
SWIDTH 618 0
DWIDTH 5 0
BBX 3 6 1 -2
BITMAP
A0
A0
A0
E0
20
20
ENDCHAR
STARTCHAR Wcircumflex
ENCODING 372
SWIDTH 930 0
DWIDTH 7 0
BBX 7 7 0 0
BITMAP
18
B2
92
5A
6A
6C
44
ENDCHAR
STARTCHAR wcircumflex
ENCODING 373
SWIDTH 786 0
DWIDTH 6 0
BBX 6 6 0 0
BITMAP
30
08
94
B4
68
48
ENDCHAR
STARTCHAR Ycircumflex
ENCODING 374
SWIDTH 566 0
DWIDTH 5 0
BBX 5 7 0 0
BITMAP
60
98
50
60
20
20
20
ENDCHAR
STARTCHAR ycircumflex
ENCODING 375
SWIDTH 510 0
DWIDTH 4 0
BBX 4 8 0 -2
BITMAP
60
00
90
50
60
20
40
C0
ENDCHAR
STARTCHAR Ydieresis
ENCODING 376
SWIDTH 566 0
DWIDTH 5 0
BBX 5 7 0 0
BITMAP
50
88
50
60
20
20
20
ENDCHAR
STARTCHAR Zacute
ENCODING 377
SWIDTH 572 0
DWIDTH 5 0
BBX 4 7 0 0
BITMAP
30
F0
10
20
40
40
F0
ENDCHAR
STARTCHAR zacute
ENCODING 378
SWIDTH 470 0
DWIDTH 4 0
BBX 3 6 0 0
BITMAP
20
C0
20
20
40
E0
ENDCHAR
STARTCHAR Zdotaccent
ENCODING 379
SWIDTH 572 0
DWIDTH 5 0
BBX 4 7 0 0
BITMAP
20
F0
10
20
40
40
F0
ENDCHAR
STARTCHAR zdotaccent
ENCODING 380
SWIDTH 470 0
DWIDTH 4 0
BBX 3 6 0 0
BITMAP
40
C0
20
20
40
E0
ENDCHAR
STARTCHAR Zcaron
ENCODING 381
SWIDTH 572 0
DWIDTH 5 0
BBX 4 7 0 0
BITMAP
70
F0
10
20
40
40
F0
ENDCHAR
STARTCHAR zcaron
ENCODING 382
SWIDTH 470 0
DWIDTH 4 0
BBX 3 6 0 0
BITMAP
60
C0
20
20
40
E0
ENDCHAR
STARTCHAR longs
ENCODING 383
SWIDTH 326 0
DWIDTH 3 0
BBX 2 6 1 0
BITMAP
C0
80
80
80
80
80
ENDCHAR
STARTCHAR uni0180
ENCODING 384
SWIDTH 615 0
DWIDTH 5 0
BBX 4 6 0 0
BITMAP
C0
60
50
50
50
70
ENDCHAR
STARTCHAR uni0181
ENCODING 385
SWIDTH 730 0
DWIDTH 6 0
BBX 5 6 0 0
BITMAP
F0
C8
48
78
48
78
ENDCHAR
STARTCHAR uni0182
ENCODING 386
SWIDTH 615 0
DWIDTH 5 0
BBX 4 6 1 0
BITMAP
E0
80
80
E0
90
E0
ENDCHAR
STARTCHAR uni0183
ENCODING 387
SWIDTH 615 0
DWIDTH 5 0
BBX 3 6 1 0
BITMAP
E0
C0
A0
A0
A0
E0
ENDCHAR
STARTCHAR uni0184
ENCODING 388
SWIDTH 635 0
DWIDTH 5 0
BBX 4 6 1 0
BITMAP
80
80
80
E0
90
E0
ENDCHAR
STARTCHAR uni0185
ENCODING 389
SWIDTH 612 0
DWIDTH 5 0
BBX 3 6 1 0
BITMAP
80
C0
A0
A0
A0
E0
ENDCHAR
STARTCHAR uni0186
ENCODING 390
SWIDTH 632 0
DWIDTH 5 0
BBX 5 6 0 0
BITMAP
E0
10
08
08
10
F0
ENDCHAR
STARTCHAR uni0187
ENCODING 391
SWIDTH 632 0
DWIDTH 5 0
BBX 6 7 0 0
BITMAP
0C
38
40
80
80
40
78
ENDCHAR
STARTCHAR uni0188
ENCODING 392
SWIDTH 503 0
DWIDTH 4 0
BBX 4 6 0 0
BITMAP
10
30
40
80
80
70
ENDCHAR
STARTCHAR Dtail
ENCODING 393
SWIDTH 730 0
DWIDTH 6 0
BBX 5 6 0 0
BITMAP
70
48
48
E8
48
70
ENDCHAR
STARTCHAR uni018A
ENCODING 394
SWIDTH 810 0
DWIDTH 6 0
BBX 6 6 0 0
BITMAP
F8
C4
44
44
44
78
ENDCHAR
STARTCHAR uni018B
ENCODING 395
SWIDTH 615 0
DWIDTH 5 0
BBX 4 6 0 0
BITMAP
70
10
10
70
90
70
ENDCHAR
STARTCHAR uni018C
ENCODING 396
SWIDTH 615 0
DWIDTH 5 0
BBX 4 6 0 0
BITMAP
70
30
50
90
90
70
ENDCHAR
STARTCHAR uni018D
ENCODING 397
SWIDTH 604 0
DWIDTH 5 0
BBX 3 6 1 -2
BITMAP
E0
A0
A0
40
20
C0
ENDCHAR
STARTCHAR uni018E
ENCODING 398
SWIDTH 556 0
DWIDTH 4 0
BBX 4 6 0 0
BITMAP
F0
10
10
70
10
F0
ENDCHAR
STARTCHAR uni018F
ENCODING 399
SWIDTH 739 0
DWIDTH 6 0
BBX 5 6 0 0
BITMAP
70
08
08
F8
48
78
ENDCHAR
STARTCHAR uni0190
ENCODING 400
SWIDTH 588 0
DWIDTH 5 0
BBX 4 6 0 0
BITMAP
70
40
40
70
80
70
ENDCHAR
STARTCHAR uni0191
ENCODING 401
SWIDTH 589 0
DWIDTH 5 0
BBX 5 8 0 -2
BITMAP
78
40
40
70
40
40
C0
C0
ENDCHAR
STARTCHAR fhook
ENCODING 402
SWIDTH 414 0
DWIDTH 3 0
BBX 4 8 0 -2
BITMAP
30
60
40
40
40
40
40
C0
ENDCHAR
STARTCHAR uni0193
ENCODING 403
SWIDTH 728 0
DWIDTH 6 0
BBX 6 7 0 0
BITMAP
04
38
40
80
98
48
78
ENDCHAR
STARTCHAR Gammalatin
ENCODING 404
SWIDTH 570 0
DWIDTH 5 0
BBX 5 8 0 -2
BITMAP
88
90
50
60
20
20
60
20
ENDCHAR
STARTCHAR uni0195
ENCODING 405
SWIDTH 934 0
DWIDTH 7 0
BBX 6 6 1 0
BITMAP
80
C0
A4
A4
A4
9C
ENDCHAR
STARTCHAR Iotalatin
ENCODING 406
SWIDTH 348 0
DWIDTH 3 0
BBX 2 6 1 0
BITMAP
80
80
80
80
80
C0
ENDCHAR
STARTCHAR uni0197
ENCODING 407
SWIDTH 339 0
DWIDTH 3 0
BBX 2 6 0 0
BITMAP
C0
40
40
C0
40
C0
ENDCHAR
STARTCHAR uni0198
ENCODING 408
SWIDTH 619 0
DWIDTH 5 0
BBX 4 6 1 0
BITMAP
90
A0
C0
C0
A0
90
ENDCHAR
STARTCHAR uni0199
ENCODING 409
SWIDTH 534 0
DWIDTH 4 0
BBX 3 6 1 0
BITMAP
80
80
E0
80
C0
A0
ENDCHAR
STARTCHAR uni019A
ENCODING 410
SWIDTH 258 0
DWIDTH 2 0
BBX 2 6 0 0
BITMAP
40
40
C0
40
40
40
ENDCHAR
STARTCHAR uni019B
ENCODING 411
SWIDTH 542 0
DWIDTH 4 0
BBX 4 6 0 0
BITMAP
E0
A0
60
60
90
90
ENDCHAR
STARTCHAR uni019C
ENCODING 412
SWIDTH 1030 0
DWIDTH 8 0
BBX 6 6 1 0
BITMAP
94
94
94
94
94
FC
ENDCHAR
STARTCHAR uni019D
ENCODING 413
SWIDTH 760 0
DWIDTH 6 0
BBX 5 8 0 -2
BITMAP
48
48
68
58
58
48
40
80
ENDCHAR
STARTCHAR uni019E
ENCODING 414
SWIDTH 618 0
DWIDTH 5 0
BBX 3 6 1 -2
BITMAP
E0
A0
A0
A0
20
20
ENDCHAR
STARTCHAR uni019F
ENCODING 415
SWIDTH 782 0
DWIDTH 6 0
BBX 6 6 0 0
BITMAP
30
48
84
FC
44
78
ENDCHAR
STARTCHAR Ohorn
ENCODING 416
SWIDTH 784 0
DWIDTH 6 0
BBX 6 6 0 0
BITMAP
34
48
84
84
44
78
ENDCHAR
STARTCHAR ohorn
ENCODING 417
SWIDTH 616 0
DWIDTH 5 0
BBX 5 5 0 0
BITMAP
28
50
88
90
70
ENDCHAR
STARTCHAR uni01A2
ENCODING 418
SWIDTH 1075 0
DWIDTH 9 0
BBX 8 6 0 0
BITMAP
36
49
85
85
49
79
ENDCHAR
STARTCHAR uni01A3
ENCODING 419
SWIDTH 845 0
DWIDTH 7 0
BBX 6 6 0 -2
BITMAP
7C
94
94
74
04
04
ENDCHAR
STARTCHAR uni01A4
ENCODING 420
SWIDTH 685 0
DWIDTH 5 0
BBX 5 6 0 0
BITMAP
F0
C8
48
70
40
40
ENDCHAR
STARTCHAR uni01A5
ENCODING 421
SWIDTH 615 0
DWIDTH 5 0
BBX 3 8 1 -2
BITMAP
80
C0
A0
A0
A0
E0
80
80
ENDCHAR
STARTCHAR uni01A6
ENCODING 422
SWIDTH 622 0
DWIDTH 5 0
BBX 4 7 1 -1
BITMAP
80
E0
90
A0
E0
A0
10
ENDCHAR
STARTCHAR uni01A7
ENCODING 423
SWIDTH 549 0
DWIDTH 4 0
BBX 4 6 0 0
BITMAP
60
10
10
60
80
70
ENDCHAR
STARTCHAR uni01A8
ENCODING 424
SWIDTH 479 0
DWIDTH 4 0
BBX 3 4 0 0
BITMAP
60
60
80
60
ENDCHAR
STARTCHAR uni01A9
ENCODING 425
SWIDTH 572 0
DWIDTH 5 0
BBX 4 6 0 0
BITMAP
F0
40
20
20
40
F0
ENDCHAR
STARTCHAR uni01AA
ENCODING 426
SWIDTH 357 0
DWIDTH 3 0
BBX 3 8 0 -2
BITMAP
C0
C0
40
40
40
40
40
60
ENDCHAR
STARTCHAR uni01AB
ENCODING 427
SWIDTH 361 0
DWIDTH 3 0
BBX 3 7 0 -2
BITMAP
60
C0
40
40
60
20
60
ENDCHAR
STARTCHAR uni01AC
ENCODING 428
SWIDTH 576 0
DWIDTH 5 0
BBX 5 6 0 0
BITMAP
F8
A0
20
20
20
20
ENDCHAR
STARTCHAR uni01AD
ENCODING 429
SWIDTH 361 0
DWIDTH 3 0
BBX 3 6 0 0
BITMAP
60
60
C0
40
40
60
ENDCHAR
STARTCHAR uni01AE
ENCODING 430
SWIDTH 556 0
DWIDTH 4 0
BBX 4 8 0 -2
BITMAP
F0
20
20
20
20
20
20
20
ENDCHAR
STARTCHAR Uhorn
ENCODING 431
SWIDTH 780 0
DWIDTH 6 0
BBX 6 6 1 0
BITMAP
94
98
90
90
90
F0
ENDCHAR
STARTCHAR uhorn
ENCODING 432
SWIDTH 674 0
DWIDTH 5 0
BBX 5 5 1 0
BITMAP
08
90
A0
A0
E0
ENDCHAR
STARTCHAR Upsilonlatin
ENCODING 433
SWIDTH 782 0
DWIDTH 6 0
BBX 6 6 0 0
BITMAP
EC
48
44
84
44
78
ENDCHAR
STARTCHAR uni01B2
ENCODING 434
SWIDTH 731 0
DWIDTH 6 0
BBX 4 6 1 0
BITMAP
B0
90
90
90
90
F0
ENDCHAR
STARTCHAR uni01B3
ENCODING 435
SWIDTH 576 0
DWIDTH 5 0
BBX 5 6 0 0
BITMAP
98
50
60
20
20
20
ENDCHAR
STARTCHAR uni01B4
ENCODING 436
SWIDTH 542 0
DWIDTH 4 0
BBX 4 6 0 -2
BITMAP
90
50
60
20
40
C0
ENDCHAR
STARTCHAR uni01B5
ENCODING 437
SWIDTH 572 0
DWIDTH 5 0
BBX 4 6 0 0
BITMAP
F0
10
20
50
40
F0
ENDCHAR
STARTCHAR uni01B6
ENCODING 438
SWIDTH 470 0
DWIDTH 4 0
BBX 3 4 0 0
BITMAP
E0
E0
40
E0
ENDCHAR
STARTCHAR uni01B7
ENCODING 439
SWIDTH 584 0
DWIDTH 5 0
BBX 4 6 0 0
BITMAP
F0
20
40
30
10
F0
ENDCHAR
STARTCHAR uni01B8
ENCODING 440
SWIDTH 584 0
DWIDTH 5 0
BBX 4 6 0 0
BITMAP
70
40
20
40
80
70
ENDCHAR
STARTCHAR uni01B9
ENCODING 441
SWIDTH 498 0
DWIDTH 4 0
BBX 4 6 0 -2
BITMAP
F0
20
60
80
80
70
ENDCHAR
STARTCHAR uni01BA
ENCODING 442
SWIDTH 498 0
DWIDTH 4 0
BBX 4 6 0 -2
BITMAP
E0
60
10
10
E0
E0
ENDCHAR
STARTCHAR uni01BB
ENCODING 443
SWIDTH 570 0
DWIDTH 5 0
BBX 4 6 0 0
BITMAP
E0
10
50
20
40
F0
ENDCHAR
STARTCHAR uni01BC
ENCODING 444
SWIDTH 584 0
DWIDTH 5 0
BBX 4 6 0 0
BITMAP
F0
40
40
10
10
F0
ENDCHAR
STARTCHAR uni01BD
ENCODING 445
SWIDTH 490 0
DWIDTH 4 0
BBX 4 4 0 0
BITMAP
E0
60
10
E0
ENDCHAR
STARTCHAR uni01BE
ENCODING 446
SWIDTH 463 0
DWIDTH 4 0
BBX 3 5 0 0
BITMAP
60
C0
40
20
E0
ENDCHAR
STARTCHAR uni01BF
ENCODING 447
SWIDTH 587 0
DWIDTH 5 0
BBX 3 6 1 -2
BITMAP
E0
A0
A0
C0
80
80
ENDCHAR
STARTCHAR uni01C0
ENCODING 448
SWIDTH 336 0
DWIDTH 3 0
BBX 1 6 1 0
BITMAP
80
80
80
80
80
80
ENDCHAR
STARTCHAR uni01C1
ENCODING 449
SWIDTH 555 0
DWIDTH 4 0
BBX 2 6 1 0
BITMAP
C0
C0
C0
C0
C0
C0
ENDCHAR
STARTCHAR uni01C2
ENCODING 450
SWIDTH 516 0
DWIDTH 4 0
BBX 3 6 1 0
BITMAP
40
40
E0
E0
40
40
ENDCHAR
STARTCHAR uni01C3
ENCODING 451
SWIDTH 269 0
DWIDTH 2 0
BBX 1 6 1 0
BITMAP
80
80
80
80
00
80
ENDCHAR
STARTCHAR uni01C4
ENCODING 452
SWIDTH 1292 0
DWIDTH 10 0
BBX 9 7 1 0
BITMAP
0300
E780
9080
9100
9200
9200
E780
ENDCHAR
STARTCHAR uni01C5
ENCODING 453
SWIDTH 1200 0
DWIDTH 10 0
BBX 8 6 1 0
BITMAP
E7
96
91
92
92
E7
ENDCHAR
STARTCHAR uni01C6
ENCODING 454
SWIDTH 1085 0
DWIDTH 9 0
BBX 8 6 0 0
BITMAP
17
36
51
91
92
77
ENDCHAR
STARTCHAR uni01C7
ENCODING 455
SWIDTH 797 0
DWIDTH 6 0
BBX 5 8 1 -2
BITMAP
88
88
88
88
88
E8
08
10
ENDCHAR
STARTCHAR uni01C8
ENCODING 456
SWIDTH 782 0
DWIDTH 6 0
BBX 5 8 1 -2
BITMAP
88
80
88
88
88
E8
08
10
ENDCHAR
STARTCHAR uni01C9
ENCODING 457
SWIDTH 516 0
DWIDTH 4 0
BBX 3 8 1 -2
BITMAP
A0
80
A0
A0
A0
A0
20
40
ENDCHAR
STARTCHAR uni01CA
ENCODING 458
SWIDTH 1033 0
DWIDTH 8 0
BBX 7 8 1 -2
BITMAP
92
92
D2
B2
B2
92
02
0C
ENDCHAR
STARTCHAR uni01CB
ENCODING 459
SWIDTH 1018 0
DWIDTH 8 0
BBX 7 8 1 -2
BITMAP
92
90
D2
B2
B2
92
02
04
ENDCHAR
STARTCHAR uni01CC
ENCODING 460
SWIDTH 876 0
DWIDTH 7 0
BBX 5 8 1 -2
BITMAP
08
40
A8
A8
A8
A8
08
18
ENDCHAR
STARTCHAR uni01CD
ENCODING 461
SWIDTH 639 0
DWIDTH 5 0
BBX 5 7 0 0
BITMAP
70
20
20
50
70
88
88
ENDCHAR
STARTCHAR uni01CE
ENCODING 462
SWIDTH 561 0
DWIDTH 4 0
BBX 4 6 0 0
BITMAP
70
20
50
70
90
70
ENDCHAR
STARTCHAR uni01CF
ENCODING 463
SWIDTH 339 0
DWIDTH 3 0
BBX 3 7 0 0
BITMAP
E0
C0
40
40
40
40
C0
ENDCHAR
STARTCHAR uni01D0
ENCODING 464
SWIDTH 258 0
DWIDTH 2 0
BBX 2 6 0 0
BITMAP
C0
00
40
40
40
40
ENDCHAR
STARTCHAR uni01D1
ENCODING 465
SWIDTH 781 0
DWIDTH 6 0
BBX 6 7 0 0
BITMAP
30
30
48
84
84
44
78
ENDCHAR
STARTCHAR uni01D2
ENCODING 466
SWIDTH 605 0
DWIDTH 5 0
BBX 4 6 0 0
BITMAP
70
20
50
90
90
70
ENDCHAR
STARTCHAR uni01D3
ENCODING 467
SWIDTH 731 0
DWIDTH 6 0
BBX 4 7 1 0
BITMAP
60
90
90
90
90
90
F0
ENDCHAR
STARTCHAR uni01D4
ENCODING 468
SWIDTH 618 0
DWIDTH 5 0
BBX 3 6 1 0
BITMAP
E0
00
A0
A0
A0
E0
ENDCHAR
STARTCHAR uni01D5
ENCODING 469
SWIDTH 731 0
DWIDTH 6 0
BBX 4 8 1 0
BITMAP
60
60
90
90
90
90
90
F0
ENDCHAR
STARTCHAR uni01D6
ENCODING 470
SWIDTH 618 0
DWIDTH 5 0
BBX 3 7 1 0
BITMAP
E0
A0
00
A0
A0
A0
E0
ENDCHAR
STARTCHAR uni01D7
ENCODING 471
SWIDTH 731 0
DWIDTH 6 0
BBX 4 8 1 0
BITMAP
60
60
90
90
90
90
90
F0
ENDCHAR
STARTCHAR uni01D8
ENCODING 472
SWIDTH 618 0
DWIDTH 5 0
BBX 3 7 1 0
BITMAP
60
A0
00
A0
A0
A0
E0
ENDCHAR
STARTCHAR uni01D9
ENCODING 473
SWIDTH 731 0
DWIDTH 6 0
BBX 4 8 1 0
BITMAP
60
60
90
90
90
90
90
F0
ENDCHAR
STARTCHAR uni01DA
ENCODING 474
SWIDTH 618 0
DWIDTH 5 0
BBX 3 7 1 0
BITMAP
E0
A0
00
A0
A0
A0
E0
ENDCHAR
STARTCHAR uni01DB
ENCODING 475
SWIDTH 731 0
DWIDTH 6 0
BBX 4 8 1 0
BITMAP
40
60
90
90
90
90
90
F0
ENDCHAR
STARTCHAR uni01DC
ENCODING 476
SWIDTH 618 0
DWIDTH 5 0
BBX 3 7 1 0
BITMAP
C0
A0
00
A0
A0
A0
E0
ENDCHAR
STARTCHAR uni01DD
ENCODING 477
SWIDTH 564 0
DWIDTH 5 0
BBX 4 4 0 0
BITMAP
F0
10
F0
70
ENDCHAR
STARTCHAR uni01DE
ENCODING 478
SWIDTH 639 0
DWIDTH 5 0
BBX 5 8 0 0
BITMAP
70
50
20
20
50
70
88
88
ENDCHAR
STARTCHAR uni01DF
ENCODING 479
SWIDTH 561 0
DWIDTH 4 0
BBX 4 7 0 0
BITMAP
60
60
20
50
70
90
70
ENDCHAR
STARTCHAR uni01E0
ENCODING 480
SWIDTH 639 0
DWIDTH 5 0
BBX 5 8 0 0
BITMAP
70
20
20
20
50
70
88
88
ENDCHAR
STARTCHAR uni01E1
ENCODING 481
SWIDTH 561 0
DWIDTH 4 0
BBX 4 7 0 0
BITMAP
60
20
20
50
70
90
70
ENDCHAR
STARTCHAR uni01E2
ENCODING 482
SWIDTH 881 0
DWIDTH 7 0
BBX 7 6 0 0
BITMAP
1E
30
30
7C
50
8E
ENDCHAR
STARTCHAR uni01E3
ENCODING 483
SWIDTH 864 0
DWIDTH 7 0
BBX 7 5 0 0
BITMAP
38
D4
7E
90
6C
ENDCHAR
STARTCHAR uni01E4
ENCODING 484
SWIDTH 728 0
DWIDTH 6 0
BBX 6 6 0 0
BITMAP
38
40
80
98
5C
78
ENDCHAR
STARTCHAR uni01E5
ENCODING 485
SWIDTH 615 0
DWIDTH 5 0
BBX 5 6 0 -2
BITMAP
70
90
90
70
38
70
ENDCHAR
STARTCHAR Gcaron
ENCODING 486
SWIDTH 728 0
DWIDTH 6 0
BBX 5 7 0 0
BITMAP
38
38
40
80
98
48
78
ENDCHAR
STARTCHAR gcaron
ENCODING 487
SWIDTH 615 0
DWIDTH 5 0
BBX 4 8 0 -2
BITMAP
70
20
50
90
90
70
10
70
ENDCHAR
STARTCHAR uni01E8
ENCODING 488
SWIDTH 619 0
DWIDTH 5 0
BBX 4 7 1 0
BITMAP
E0
90
A0
C0
C0
A0
90
ENDCHAR
STARTCHAR uni01E9
ENCODING 489
SWIDTH 534 0
DWIDTH 4 0
BBX 4 8 0 0
BITMAP
C0
00
40
40
70
40
60
50
ENDCHAR
STARTCHAR uni01EA
ENCODING 490
SWIDTH 781 0
DWIDTH 6 0
BBX 6 8 0 -2
BITMAP
30
48
84
84
44
78
20
10
ENDCHAR
STARTCHAR uni01EB
ENCODING 491
SWIDTH 605 0
DWIDTH 5 0
BBX 4 6 0 -2
BITMAP
70
90
90
70
20
20
ENDCHAR
STARTCHAR uni01EC
ENCODING 492
SWIDTH 781 0
DWIDTH 6 0
BBX 6 8 0 -2
BITMAP
30
48
84
84
44
78
10
10
ENDCHAR
STARTCHAR uni01ED
ENCODING 493
SWIDTH 605 0
DWIDTH 5 0
BBX 4 7 0 -2
BITMAP
70
50
90
90
70
20
20
ENDCHAR
STARTCHAR uni01EE
ENCODING 494
SWIDTH 584 0
DWIDTH 5 0
BBX 4 7 0 0
BITMAP
70
F0
20
40
30
10
F0
ENDCHAR
STARTCHAR uni01EF
ENCODING 495
SWIDTH 498 0
DWIDTH 4 0
BBX 4 8 0 -2
BITMAP
60
10
E0
40
60
10
10
E0
ENDCHAR
STARTCHAR uni01F0
ENCODING 496
SWIDTH 258 0
DWIDTH 2 0
BBX 2 8 0 -2
BITMAP
C0
00
40
40
40
40
40
80
ENDCHAR
STARTCHAR uni01F1
ENCODING 497
SWIDTH 1292 0
DWIDTH 10 0
BBX 9 6 1 0
BITMAP
E780
9080
9100
9200
9200
E780
ENDCHAR
STARTCHAR uni01F2
ENCODING 498
SWIDTH 1200 0
DWIDTH 10 0
BBX 8 6 1 0
BITMAP
E0
96
91
92
92
E7
ENDCHAR
STARTCHAR uni01F3
ENCODING 499
SWIDTH 1085 0
DWIDTH 9 0
BBX 8 6 0 0
BITMAP
10
36
51
91
92
77
ENDCHAR
STARTCHAR uni01F4
ENCODING 500
SWIDTH 728 0
DWIDTH 6 0
BBX 5 7 0 0
BITMAP
10
38
40
80
98
48
78
ENDCHAR
STARTCHAR uni01F5
ENCODING 501
SWIDTH 615 0
DWIDTH 5 0
BBX 4 8 0 -2
BITMAP
30
20
50
90
90
70
10
70
ENDCHAR
STARTCHAR uni01F6
ENCODING 502
SWIDTH 938 0
DWIDTH 8 0
BBX 6 6 1 0
BITMAP
90
90
94
F4
94
9C
ENDCHAR
STARTCHAR uni01F7
ENCODING 503
SWIDTH 661 0
DWIDTH 5 0
BBX 4 8 1 -2
BITMAP
E0
90
90
90
A0
C0
80
80
ENDCHAR
STARTCHAR uni01F8
ENCODING 504
SWIDTH 760 0
DWIDTH 6 0
BBX 4 7 1 0
BITMAP
40
B0
90
D0
B0
B0
90
ENDCHAR
STARTCHAR uni01F9
ENCODING 505
SWIDTH 618 0
DWIDTH 5 0
BBX 3 6 1 0
BITMAP
C0
40
A0
A0
A0
A0
ENDCHAR
STARTCHAR Aringacute
ENCODING 506
SWIDTH 640 0
DWIDTH 5 0
BBX 5 8 0 0
BITMAP
10
20
50
20
50
50
A8
88
ENDCHAR
STARTCHAR aringacute
ENCODING 507
SWIDTH 561 0
DWIDTH 4 0
BBX 4 8 0 0
BITMAP
30
20
60
20
50
70
90
70
ENDCHAR
STARTCHAR AEacute
ENCODING 508
SWIDTH 881 0
DWIDTH 7 0
BBX 7 7 0 0
BITMAP
08
1E
30
30
7C
50
8E
ENDCHAR
STARTCHAR aeacute
ENCODING 509
SWIDTH 864 0
DWIDTH 7 0
BBX 7 6 0 0
BITMAP
18
28
D4
7E
90
6C
ENDCHAR
STARTCHAR Oslashacute
ENCODING 510
SWIDTH 781 0
DWIDTH 6 0
BBX 6 7 0 0
BITMAP
10
38
48
94
A4
44
78
ENDCHAR
STARTCHAR oslashacute
ENCODING 511
SWIDTH 605 0
DWIDTH 5 0
BBX 4 6 0 0
BITMAP
30
30
50
B0
D0
70
ENDCHAR
STARTCHAR uni0200
ENCODING 512
SWIDTH 639 0
DWIDTH 5 0
BBX 5 7 0 0
BITMAP
60
30
20
50
70
88
88
ENDCHAR
STARTCHAR uni0201
ENCODING 513
SWIDTH 561 0
DWIDTH 4 0
BBX 4 6 0 0
BITMAP
E0
20
50
70
90
70
ENDCHAR
STARTCHAR uni0202
ENCODING 514
SWIDTH 639 0
DWIDTH 5 0
BBX 5 7 0 0
BITMAP
70
20
20
50
70
88
88
ENDCHAR
STARTCHAR uni0203
ENCODING 515
SWIDTH 561 0
DWIDTH 4 0
BBX 4 6 0 0
BITMAP
60
20
50
70
90
70
ENDCHAR
STARTCHAR uni0204
ENCODING 516
SWIDTH 556 0
DWIDTH 4 0
BBX 3 7 1 0
BITMAP
C0
E0
80
80
E0
80
E0
ENDCHAR
STARTCHAR uni0205
ENCODING 517
SWIDTH 564 0
DWIDTH 5 0
BBX 4 6 0 0
BITMAP
E0
20
50
F0
80
70
ENDCHAR
STARTCHAR uni0206
ENCODING 518
SWIDTH 556 0
DWIDTH 4 0
BBX 3 7 1 0
BITMAP
C0
E0
80
80
E0
80
E0
ENDCHAR
STARTCHAR uni0207
ENCODING 519
SWIDTH 564 0
DWIDTH 5 0
BBX 4 6 0 0
BITMAP
60
30
50
F0
80
70
ENDCHAR
STARTCHAR uni0208
ENCODING 520
SWIDTH 339 0
DWIDTH 3 0
BBX 2 7 0 0
BITMAP
C0
C0
40
40
40
40
C0
ENDCHAR
STARTCHAR uni0209
ENCODING 521
SWIDTH 258 0
DWIDTH 2 0
BBX 3 6 -1 0
BITMAP
E0
00
20
20
20
20
ENDCHAR
STARTCHAR uni020A
ENCODING 522
SWIDTH 339 0
DWIDTH 3 0
BBX 3 7 0 0
BITMAP
E0
C0
40
40
40
40
C0
ENDCHAR
STARTCHAR uni020B
ENCODING 523
SWIDTH 258 0
DWIDTH 2 0
BBX 2 6 0 0
BITMAP
C0
00
40
40
40
40
ENDCHAR
STARTCHAR uni020C
ENCODING 524
SWIDTH 781 0
DWIDTH 6 0
BBX 6 7 0 0
BITMAP
70
30
48
84
84
44
78
ENDCHAR
STARTCHAR uni020D
ENCODING 525
SWIDTH 605 0
DWIDTH 5 0
BBX 4 6 0 0
BITMAP
60
30
50
90
90
70
ENDCHAR
STARTCHAR uni020E
ENCODING 526
SWIDTH 781 0
DWIDTH 6 0
BBX 6 7 0 0
BITMAP
30
30
48
84
84
44
78
ENDCHAR
STARTCHAR uni020F
ENCODING 527
SWIDTH 605 0
DWIDTH 5 0
BBX 4 6 0 0
BITMAP
70
20
50
90
90
70
ENDCHAR
STARTCHAR uni0210
ENCODING 528
SWIDTH 622 0
DWIDTH 5 0
BBX 4 7 1 0
BITMAP
C0
E0
90
A0
C0
A0
90
ENDCHAR
STARTCHAR uni0211
ENCODING 529
SWIDTH 413 0
DWIDTH 3 0
BBX 3 6 0 0
BITMAP
A0
60
40
40
40
40
ENDCHAR
STARTCHAR uni0212
ENCODING 530
SWIDTH 622 0
DWIDTH 5 0
BBX 4 7 1 0
BITMAP
E0
E0
90
A0
C0
A0
90
ENDCHAR
STARTCHAR uni0213
ENCODING 531
SWIDTH 413 0
DWIDTH 3 0
BBX 2 6 1 0
BITMAP
C0
40
80
80
80
80
ENDCHAR
STARTCHAR uni0214
ENCODING 532
SWIDTH 731 0
DWIDTH 6 0
BBX 4 7 1 0
BITMAP
A0
D0
90
90
90
90
F0
ENDCHAR
STARTCHAR uni0215
ENCODING 533
SWIDTH 618 0
DWIDTH 5 0
BBX 3 6 1 0
BITMAP
C0
20
A0
A0
A0
E0
ENDCHAR
STARTCHAR uni0216
ENCODING 534
SWIDTH 731 0
DWIDTH 6 0
BBX 4 7 1 0
BITMAP
60
90
90
90
90
90
F0
ENDCHAR
STARTCHAR uni0217
ENCODING 535
SWIDTH 618 0
DWIDTH 5 0
BBX 3 6 1 0
BITMAP
E0
00
A0
A0
A0
E0
ENDCHAR
STARTCHAR uni0218
ENCODING 536
SWIDTH 549 0
DWIDTH 4 0
BBX 4 8 0 -2
BITMAP
70
80
40
30
10
F0
20
40
ENDCHAR
STARTCHAR uni0219
ENCODING 537
SWIDTH 479 0
DWIDTH 4 0
BBX 3 6 0 -2
BITMAP
E0
40
20
E0
20
40
ENDCHAR
STARTCHAR uni021A
ENCODING 538
SWIDTH 556 0
DWIDTH 4 0
BBX 4 8 0 -2
BITMAP
F0
20
20
20
20
20
20
20
ENDCHAR
STARTCHAR uni021B
ENCODING 539
SWIDTH 361 0
DWIDTH 3 0
BBX 3 7 0 -2
BITMAP
60
C0
40
40
60
40
40
ENDCHAR
STARTCHAR uni021C
ENCODING 540
SWIDTH 575 0
DWIDTH 5 0
BBX 4 7 0 -1
BITMAP
E0
10
30
50
10
10
E0
ENDCHAR
STARTCHAR uni021D
ENCODING 541
SWIDTH 496 0
DWIDTH 4 0
BBX 4 6 0 -2
BITMAP
E0
20
60
10
20
C0
ENDCHAR
STARTCHAR uni021E
ENCODING 542
SWIDTH 741 0
DWIDTH 6 0
BBX 4 7 1 0
BITMAP
60
90
90
90
F0
90
90
ENDCHAR
STARTCHAR uni021F
ENCODING 543
SWIDTH 618 0
DWIDTH 5 0
BBX 4 8 0 0
BITMAP
C0
00
40
60
50
50
50
50
ENDCHAR
STARTCHAR uni0220
ENCODING 544
SWIDTH 741 0
DWIDTH 6 0
BBX 4 8 1 -2
BITMAP
E0
90
90
90
90
90
10
10
ENDCHAR
STARTCHAR uni0221
ENCODING 545
SWIDTH 863 0
DWIDTH 7 0
BBX 7 7 0 -1
BITMAP
10
30
50
90
96
7E
08
ENDCHAR
STARTCHAR uni0222
ENCODING 546
SWIDTH 671 0
DWIDTH 5 0
BBX 5 6 0 0
BITMAP
48
48
70
88
88
70
ENDCHAR
STARTCHAR uni0223
ENCODING 547
SWIDTH 596 0
DWIDTH 5 0
BBX 4 6 0 0
BITMAP
50
50
60
90
90
70
ENDCHAR
STARTCHAR uni0224
ENCODING 548
SWIDTH 572 0
DWIDTH 5 0
BBX 4 8 0 -2
BITMAP
F0
10
20
40
40
F0
10
10
ENDCHAR
STARTCHAR uni0225
ENCODING 549
SWIDTH 470 0
DWIDTH 4 0
BBX 3 6 0 -2
BITMAP
E0
20
40
E0
20
20
ENDCHAR
STARTCHAR uni0226
ENCODING 550
SWIDTH 639 0
DWIDTH 5 0
BBX 5 7 0 0
BITMAP
20
20
20
50
70
88
88
ENDCHAR
STARTCHAR uni0227
ENCODING 551
SWIDTH 561 0
DWIDTH 4 0
BBX 4 6 0 0
BITMAP
20
20
50
70
90
70
ENDCHAR
STARTCHAR uni0228
ENCODING 552
SWIDTH 556 0
DWIDTH 4 0
BBX 3 8 1 -2
BITMAP
E0
80
80
E0
80
E0
40
40
ENDCHAR
STARTCHAR uni0229
ENCODING 553
SWIDTH 564 0
DWIDTH 5 0
BBX 4 6 0 -2
BITMAP
70
F0
80
70
20
20
ENDCHAR
STARTCHAR uni022A
ENCODING 554
SWIDTH 781 0
DWIDTH 6 0
BBX 6 8 0 0
BITMAP
30
30
30
48
84
84
44
78
ENDCHAR
STARTCHAR uni022B
ENCODING 555
SWIDTH 605 0
DWIDTH 5 0
BBX 4 7 0 0
BITMAP
70
50
20
50
90
90
70
ENDCHAR
STARTCHAR uni022C
ENCODING 556
SWIDTH 781 0
DWIDTH 6 0
BBX 6 8 0 0
BITMAP
30
30
30
48
84
84
44
78
ENDCHAR
STARTCHAR uni022D
ENCODING 557
SWIDTH 605 0
DWIDTH 5 0
BBX 4 7 0 0
BITMAP
70
70
20
50
90
90
70
ENDCHAR
STARTCHAR uni022E
ENCODING 558
SWIDTH 781 0
DWIDTH 6 0
BBX 6 7 0 0
BITMAP
10
30
48
84
84
44
78
ENDCHAR
STARTCHAR uni022F
ENCODING 559
SWIDTH 605 0
DWIDTH 5 0
BBX 4 6 0 0
BITMAP
20
20
50
90
90
70
ENDCHAR
STARTCHAR uni0230
ENCODING 560
SWIDTH 781 0
DWIDTH 6 0
BBX 6 8 0 0
BITMAP
30
10
30
48
84
84
44
78
ENDCHAR
STARTCHAR uni0231
ENCODING 561
SWIDTH 605 0
DWIDTH 5 0
BBX 4 7 0 0
BITMAP
70
20
20
50
90
90
70
ENDCHAR
STARTCHAR uni0232
ENCODING 562
SWIDTH 566 0
DWIDTH 5 0
BBX 5 6 0 0
BITMAP
E8
50
60
20
20
20
ENDCHAR
STARTCHAR uni0233
ENCODING 563
SWIDTH 510 0
DWIDTH 4 0
BBX 4 7 0 -2
BITMAP
60
90
50
60
20
40
C0
ENDCHAR
STARTCHAR uni0234
ENCODING 564
SWIDTH 381 0
DWIDTH 3 0
BBX 3 6 0 0
BITMAP
40
40
40
40
60
E0
ENDCHAR
STARTCHAR uni0235
ENCODING 565
SWIDTH 745 0
DWIDTH 6 0
BBX 5 4 1 0
BITMAP
E0
A0
98
B8
ENDCHAR
STARTCHAR uni0236
ENCODING 566
SWIDTH 388 0
DWIDTH 3 0
BBX 3 5 0 0
BITMAP
60
C0
40
60
E0
ENDCHAR
STARTCHAR uni0237
ENCODING 567
SWIDTH 258 0
DWIDTH 2 0
BBX 1 6 0 -2
BITMAP
80
80
80
80
80
80
ENDCHAR
STARTCHAR uni0238
ENCODING 568
SWIDTH 972 0
DWIDTH 8 0
BBX 7 6 0 0
BITMAP
10
34
5A
92
92
7E
ENDCHAR
STARTCHAR uni0239
ENCODING 569
SWIDTH 972 0
DWIDTH 8 0
BBX 7 6 0 -2
BITMAP
7E
92
92
6E
10
10
ENDCHAR
STARTCHAR uni023A
ENCODING 570
SWIDTH 639 0
DWIDTH 5 0
BBX 5 7 0 -1
BITMAP
30
20
50
70
A8
C8
40
ENDCHAR
STARTCHAR uni023B
ENCODING 571
SWIDTH 632 0
DWIDTH 5 0
BBX 5 7 0 -1
BITMAP
38
50
90
A0
60
78
40
ENDCHAR
STARTCHAR uni023C
ENCODING 572
SWIDTH 480 0
DWIDTH 4 0
BBX 4 8 0 -2
BITMAP
10
30
60
A0
C0
70
40
80
ENDCHAR
STARTCHAR uni023D
ENCODING 573
SWIDTH 524 0
DWIDTH 4 0
BBX 4 6 0 0
BITMAP
40
40
40
E0
40
70
ENDCHAR
STARTCHAR uni023E
ENCODING 574
SWIDTH 556 0
DWIDTH 4 0
BBX 4 7 0 -1
BITMAP
F0
20
20
20
60
60
80
ENDCHAR
STARTCHAR uni023F
ENCODING 575
SWIDTH 479 0
DWIDTH 4 0
BBX 4 6 0 -2
BITMAP
E0
40
30
E0
40
30
ENDCHAR
STARTCHAR uni0240
ENCODING 576
SWIDTH 470 0
DWIDTH 4 0
BBX 4 6 0 -2
BITMAP
E0
20
40
80
40
30
ENDCHAR
STARTCHAR Glottalstopcased
ENCODING 577
SWIDTH 448 0
DWIDTH 4 0
BBX 3 6 0 0
BITMAP
E0
20
20
40
40
40
ENDCHAR
STARTCHAR glottalstopcased
ENCODING 578
SWIDTH 436 0
DWIDTH 3 0
BBX 3 4 0 0
BITMAP
E0
20
20
40
ENDCHAR
STARTCHAR uni0243
ENCODING 579
SWIDTH 650 0
DWIDTH 5 0
BBX 5 6 0 0
BITMAP
70
48
50
68
E8
70
ENDCHAR
STARTCHAR uni0244
ENCODING 580
SWIDTH 731 0
DWIDTH 6 0
BBX 6 6 0 0
BITMAP
48
48
FC
48
48
78
ENDCHAR
STARTCHAR uni0245
ENCODING 581
SWIDTH 609 0
DWIDTH 5 0
BBX 5 6 0 0
BITMAP
20
60
50
50
90
88
ENDCHAR
STARTCHAR uni0246
ENCODING 582
SWIDTH 556 0
DWIDTH 4 0
BBX 3 7 1 -1
BITMAP
E0
A0
C0
E0
C0
E0
80
ENDCHAR
STARTCHAR uni0247
ENCODING 583
SWIDTH 564 0
DWIDTH 5 0
BBX 4 8 0 -2
BITMAP
10
10
70
F0
C0
70
40
80
ENDCHAR
STARTCHAR uni0248
ENCODING 584
SWIDTH 273 0
DWIDTH 2 0
BBX 3 8 -1 -2
BITMAP
20
20
20
60
20
20
20
C0
ENDCHAR
STARTCHAR uni0249
ENCODING 585
SWIDTH 258 0
DWIDTH 2 0
BBX 2 8 0 -2
BITMAP
40
00
40
C0
40
40
40
80
ENDCHAR
STARTCHAR uni024A
ENCODING 586
SWIDTH 767 0
DWIDTH 6 0
BBX 6 8 0 -2
BITMAP
34
48
88
88
48
78
08
04
ENDCHAR
STARTCHAR uni024B
ENCODING 587
SWIDTH 615 0
DWIDTH 5 0
BBX 5 6 0 -2
BITMAP
70
90
90
70
10
08
ENDCHAR
STARTCHAR uni024C
ENCODING 588
SWIDTH 622 0
DWIDTH 5 0
BBX 5 6 0 0
BITMAP
70
48
50
E0
50
48
ENDCHAR
STARTCHAR uni024D
ENCODING 589
SWIDTH 413 0
DWIDTH 3 0
BBX 3 4 0 0
BITMAP
60
C0
40
40
ENDCHAR
STARTCHAR uni024E
ENCODING 590
SWIDTH 566 0
DWIDTH 5 0
BBX 5 6 0 0
BITMAP
88
F0
60
20
20
20
ENDCHAR
STARTCHAR uni024F
ENCODING 591
SWIDTH 510 0
DWIDTH 4 0
BBX 4 6 0 -2
BITMAP
90
F0
60
20
40
C0
ENDCHAR
STARTCHAR uni0250
ENCODING 592
SWIDTH 561 0
DWIDTH 4 0
BBX 3 4 1 0
BITMAP
E0
E0
80
E0
ENDCHAR
STARTCHAR uni0251
ENCODING 593
SWIDTH 615 0
DWIDTH 5 0
BBX 5 4 0 0
BITMAP
70
90
90
68
ENDCHAR
STARTCHAR uni0252
ENCODING 594
SWIDTH 615 0
DWIDTH 5 0
BBX 4 4 0 0
BITMAP
F0
50
50
70
ENDCHAR
STARTCHAR uni0253
ENCODING 595
SWIDTH 615 0
DWIDTH 5 0
BBX 3 6 1 0
BITMAP
80
C0
A0
A0
A0
E0
ENDCHAR
STARTCHAR uni0254
ENCODING 596
SWIDTH 480 0
DWIDTH 4 0
BBX 3 4 0 0
BITMAP
E0
20
20
E0
ENDCHAR
STARTCHAR uni0255
ENCODING 597
SWIDTH 531 0
DWIDTH 4 0
BBX 4 4 0 0
BITMAP
70
80
70
F0
ENDCHAR
STARTCHAR uni0256
ENCODING 598
SWIDTH 615 0
DWIDTH 5 0
BBX 5 8 0 -2
BITMAP
10
30
50
90
90
70
10
08
ENDCHAR
STARTCHAR uni0257
ENCODING 599
SWIDTH 615 0
DWIDTH 5 0
BBX 5 6 0 0
BITMAP
08
30
50
90
90
70
ENDCHAR
STARTCHAR uni0258
ENCODING 600
SWIDTH 564 0
DWIDTH 5 0
BBX 4 4 0 0
BITMAP
70
F0
10
70
ENDCHAR
STARTCHAR uni0259
ENCODING 601
SWIDTH 564 0
DWIDTH 5 0
BBX 4 4 0 0
BITMAP
F0
10
F0
70
ENDCHAR
STARTCHAR uni025A
ENCODING 602
SWIDTH 784 0
DWIDTH 6 0
BBX 6 4 0 0
BITMAP
F0
38
D4
70
ENDCHAR
STARTCHAR uni025B
ENCODING 603
SWIDTH 483 0
DWIDTH 4 0
BBX 4 4 0 0
BITMAP
F0
60
80
70
ENDCHAR
STARTCHAR uni025C
ENCODING 604
SWIDTH 490 0
DWIDTH 4 0
BBX 4 4 0 0
BITMAP
F0
60
10
E0
ENDCHAR
STARTCHAR uni025D
ENCODING 605
SWIDTH 703 0
DWIDTH 6 0
BBX 6 4 0 0
BITMAP
F0
6C
10
E0
ENDCHAR
STARTCHAR uni025E
ENCODING 606
SWIDTH 600 0
DWIDTH 5 0
BBX 4 4 0 0
BITMAP
70
B0
90
70
ENDCHAR
STARTCHAR uni025F
ENCODING 607
SWIDTH 258 0
DWIDTH 2 0
BBX 2 6 0 -2
BITMAP
40
C0
40
40
40
80
ENDCHAR
STARTCHAR uni0260
ENCODING 608
SWIDTH 615 0
DWIDTH 5 0
BBX 5 8 0 -2
BITMAP
08
30
50
90
90
70
10
70
ENDCHAR
STARTCHAR uni0261
ENCODING 609
SWIDTH 615 0
DWIDTH 5 0
BBX 4 6 0 -2
BITMAP
70
90
90
70
10
70
ENDCHAR
STARTCHAR uni0262
ENCODING 610
SWIDTH 574 0
DWIDTH 5 0
BBX 4 4 0 0
BITMAP
70
A0
90
70
ENDCHAR
STARTCHAR uni0263
ENCODING 611
SWIDTH 508 0
DWIDTH 4 0
BBX 4 6 0 -2
BITMAP
90
60
60
20
60
60
ENDCHAR
STARTCHAR uni0264
ENCODING 612
SWIDTH 508 0
DWIDTH 4 0
BBX 4 4 0 0
BITMAP
90
60
60
60
ENDCHAR
STARTCHAR uni0265
ENCODING 613
SWIDTH 618 0
DWIDTH 5 0
BBX 3 6 1 -2
BITMAP
A0
A0
A0
E0
20
20
ENDCHAR
STARTCHAR uni0266
ENCODING 614
SWIDTH 618 0
DWIDTH 5 0
BBX 3 6 1 0
BITMAP
80
C0
A0
A0
A0
A0
ENDCHAR
STARTCHAR uni0267
ENCODING 615
SWIDTH 618 0
DWIDTH 5 0
BBX 3 8 1 -2
BITMAP
80
C0
A0
A0
A0
A0
20
20
ENDCHAR
STARTCHAR uni0268
ENCODING 616
SWIDTH 258 0
DWIDTH 2 0
BBX 2 6 0 0
BITMAP
40
00
40
C0
40
40
ENDCHAR
STARTCHAR uni0269
ENCODING 617
SWIDTH 332 0
DWIDTH 3 0
BBX 1 4 1 0
BITMAP
80
80
80
80
ENDCHAR
STARTCHAR iotaserifed
ENCODING 618
SWIDTH 320 0
DWIDTH 3 0
BBX 2 4 0 0
BITMAP
C0
40
40
C0
ENDCHAR
STARTCHAR uni026B
ENCODING 619
SWIDTH 378 0
DWIDTH 3 0
BBX 3 6 0 0
BITMAP
40
40
E0
40
40
40
ENDCHAR
STARTCHAR uni026C
ENCODING 620
SWIDTH 350 0
DWIDTH 3 0
BBX 3 6 0 0
BITMAP
40
40
C0
E0
40
40
ENDCHAR
STARTCHAR uni026D
ENCODING 621
SWIDTH 257 0
DWIDTH 2 0
BBX 2 8 1 -2
BITMAP
80
80
80
80
80
80
80
C0
ENDCHAR
STARTCHAR uni026E
ENCODING 622
SWIDTH 657 0
DWIDTH 5 0
BBX 4 8 1 -2
BITMAP
80
80
F0
A0
E0
90
10
E0
ENDCHAR
STARTCHAR uni026F
ENCODING 623
SWIDTH 935 0
DWIDTH 7 0
BBX 6 4 1 0
BITMAP
A4
A4
A4
DC
ENDCHAR
STARTCHAR uni0270
ENCODING 624
SWIDTH 935 0
DWIDTH 7 0
BBX 6 6 1 -2
BITMAP
A4
A4
A4
DC
04
04
ENDCHAR
STARTCHAR uni0271
ENCODING 625
SWIDTH 935 0
DWIDTH 7 0
BBX 6 6 1 -2
BITMAP
FC
A4
A4
A4
04
0C
ENDCHAR
STARTCHAR uni0272
ENCODING 626
SWIDTH 618 0
DWIDTH 5 0
BBX 4 6 0 -2
BITMAP
70
50
50
50
40
80
ENDCHAR
STARTCHAR uni0273
ENCODING 627
SWIDTH 618 0
DWIDTH 5 0
BBX 4 6 1 -2
BITMAP
E0
A0
A0
A0
20
10
ENDCHAR
STARTCHAR uni0274
ENCODING 628
SWIDTH 632 0
DWIDTH 5 0
BBX 3 4 1 0
BITMAP
A0
E0
E0
A0
ENDCHAR
STARTCHAR uni0275
ENCODING 629
SWIDTH 605 0
DWIDTH 5 0
BBX 4 4 0 0
BITMAP
70
F0
90
70
ENDCHAR
STARTCHAR uni0276
ENCODING 630
SWIDTH 864 0
DWIDTH 7 0
BBX 7 4 0 0
BITMAP
7E
8C
90
7E
ENDCHAR
STARTCHAR uni0277
ENCODING 631
SWIDTH 782 0
DWIDTH 6 0
BBX 6 4 0 0
BITMAP
78
94
94
78
ENDCHAR
STARTCHAR uni0278
ENCODING 632
SWIDTH 725 0
DWIDTH 6 0
BBX 5 8 0 -2
BITMAP
20
30
68
A8
A8
78
20
20
ENDCHAR
STARTCHAR uni0279
ENCODING 633
SWIDTH 413 0
DWIDTH 3 0
BBX 3 4 0 0
BITMAP
20
20
20
E0
ENDCHAR
STARTCHAR uni027A
ENCODING 634
SWIDTH 413 0
DWIDTH 3 0
BBX 3 6 0 0
BITMAP
20
20
20
20
20
E0
ENDCHAR
STARTCHAR uni027B
ENCODING 635
SWIDTH 413 0
DWIDTH 3 0
BBX 4 6 0 -2
BITMAP
20
20
20
E0
20
30
ENDCHAR
STARTCHAR uni027C
ENCODING 636
SWIDTH 413 0
DWIDTH 3 0
BBX 2 6 1 -2
BITMAP
C0
80
80
80
80
80
ENDCHAR
STARTCHAR uni027D
ENCODING 637
SWIDTH 413 0
DWIDTH 3 0
BBX 2 6 1 -2
BITMAP
C0
80
80
80
80
80
ENDCHAR
STARTCHAR uni027E
ENCODING 638
SWIDTH 346 0
DWIDTH 3 0
BBX 2 4 1 0
BITMAP
C0
80
80
80
ENDCHAR
STARTCHAR uni027F
ENCODING 639
SWIDTH 346 0
DWIDTH 3 0
BBX 2 6 0 -2
BITMAP
C0
40
40
40
40
40
ENDCHAR
STARTCHAR uni0280
ENCODING 640
SWIDTH 559 0
DWIDTH 4 0
BBX 3 4 1 0
BITMAP
E0
A0
C0
A0
ENDCHAR
STARTCHAR uni0281
ENCODING 641
SWIDTH 559 0
DWIDTH 4 0
BBX 3 4 1 0
BITMAP
A0
C0
A0
E0
ENDCHAR
STARTCHAR uni0282
ENCODING 642
SWIDTH 479 0
DWIDTH 4 0
BBX 3 6 0 -2
BITMAP
E0
40
20
E0
80
40
ENDCHAR
STARTCHAR uni0283
ENCODING 643
SWIDTH 258 0
DWIDTH 2 0
BBX 2 8 0 -2
BITMAP
40
40
40
40
40
40
40
80
ENDCHAR
STARTCHAR uni0284
ENCODING 644
SWIDTH 258 0
DWIDTH 2 0
BBX 2 8 0 -2
BITMAP
40
40
40
C0
40
40
40
80
ENDCHAR
STARTCHAR uni0285
ENCODING 645
SWIDTH 258 0
DWIDTH 2 0
BBX 2 6 0 -2
BITMAP
80
40
40
40
40
40
ENDCHAR
STARTCHAR uni0286
ENCODING 646
SWIDTH 258 0
DWIDTH 2 0
BBX 3 8 -1 -2
BITMAP
20
20
20
20
20
20
E0
C0
ENDCHAR
STARTCHAR uni0287
ENCODING 647
SWIDTH 361 0
DWIDTH 3 0
BBX 3 5 0 -1
BITMAP
C0
40
40
E0
40
ENDCHAR
STARTCHAR uni0288
ENCODING 648
SWIDTH 361 0
DWIDTH 3 0
BBX 3 7 0 -2
BITMAP
60
C0
40
40
40
40
60
ENDCHAR
STARTCHAR uni0289
ENCODING 649
SWIDTH 618 0
DWIDTH 5 0
BBX 5 4 0 0
BITMAP
90
F8
90
70
ENDCHAR
STARTCHAR uni028A
ENCODING 650
SWIDTH 605 0
DWIDTH 5 0
BBX 5 4 0 0
BITMAP
D8
90
88
70
ENDCHAR
STARTCHAR uni028B
ENCODING 651
SWIDTH 613 0
DWIDTH 5 0
BBX 3 4 1 0
BITMAP
A0
A0
A0
E0
ENDCHAR
STARTCHAR uni028C
ENCODING 652
SWIDTH 508 0
DWIDTH 4 0
BBX 4 4 0 0
BITMAP
60
60
90
90
ENDCHAR
STARTCHAR uni028D
ENCODING 653
SWIDTH 786 0
DWIDTH 6 0
BBX 6 4 0 0
BITMAP
48
74
B4
94
ENDCHAR
STARTCHAR uni028E
ENCODING 654
SWIDTH 510 0
DWIDTH 4 0
BBX 4 6 0 0
BITMAP
30
20
60
60
90
90
ENDCHAR
STARTCHAR uni028F
ENCODING 655
SWIDTH 474 0
DWIDTH 4 0
BBX 4 4 0 0
BITMAP
B0
60
40
40
ENDCHAR
STARTCHAR uni0290
ENCODING 656
SWIDTH 470 0
DWIDTH 4 0
BBX 4 6 0 -2
BITMAP
E0
20
40
E0
10
10
ENDCHAR
STARTCHAR uni0291
ENCODING 657
SWIDTH 542 0
DWIDTH 4 0
BBX 4 5 0 -1
BITMAP
E0
20
70
F0
40
ENDCHAR
STARTCHAR uni0292
ENCODING 658
SWIDTH 498 0
DWIDTH 4 0
BBX 4 6 0 -2
BITMAP
F0
40
60
10
10
E0
ENDCHAR
STARTCHAR uni0293
ENCODING 659
SWIDTH 498 0
DWIDTH 4 0
BBX 4 6 0 -2
BITMAP
F0
40
60
10
F0
F0
ENDCHAR
STARTCHAR uni0294
ENCODING 660
SWIDTH 426 0
DWIDTH 3 0
BBX 3 6 0 0
BITMAP
E0
20
20
40
40
40
ENDCHAR
STARTCHAR uni0295
ENCODING 661
SWIDTH 426 0
DWIDTH 3 0
BBX 3 6 0 0
BITMAP
E0
80
C0
20
20
20
ENDCHAR
STARTCHAR uni0296
ENCODING 662
SWIDTH 426 0
DWIDTH 3 0
BBX 3 6 0 0
BITMAP
40
40
40
20
20
E0
ENDCHAR
STARTCHAR uni0297
ENCODING 663
SWIDTH 469 0
DWIDTH 4 0
BBX 4 6 0 -2
BITMAP
70
80
80
80
80
70
ENDCHAR
STARTCHAR uni0298
ENCODING 664
SWIDTH 781 0
DWIDTH 6 0
BBX 6 6 0 0
BITMAP
30
48
84
94
44
78
ENDCHAR
STARTCHAR uni0299
ENCODING 665
SWIDTH 576 0
DWIDTH 5 0
BBX 3 4 1 0
BITMAP
E0
E0
A0
E0
ENDCHAR
STARTCHAR uni029A
ENCODING 666
SWIDTH 600 0
DWIDTH 5 0
BBX 4 4 0 0
BITMAP
F0
70
90
70
ENDCHAR
STARTCHAR uni029B
ENCODING 667
SWIDTH 574 0
DWIDTH 5 0
BBX 5 6 0 0
BITMAP
18
30
50
A0
90
70
ENDCHAR
STARTCHAR uni029C
ENCODING 668
SWIDTH 637 0
DWIDTH 5 0
BBX 3 4 1 0
BITMAP
A0
E0
A0
A0
ENDCHAR
STARTCHAR uni029D
ENCODING 669
SWIDTH 258 0
DWIDTH 2 0
BBX 3 8 -1 -2
BITMAP
20
00
20
20
20
20
E0
C0
ENDCHAR
STARTCHAR uni029E
ENCODING 670
SWIDTH 534 0
DWIDTH 4 0
BBX 4 6 0 -2
BITMAP
D0
50
30
D0
10
10
ENDCHAR
STARTCHAR uni029F
ENCODING 671
SWIDTH 435 0
DWIDTH 3 0
BBX 2 4 1 0
BITMAP
80
80
80
C0
ENDCHAR
STARTCHAR uni02A0
ENCODING 672
SWIDTH 615 0
DWIDTH 5 0
BBX 5 8 0 -2
BITMAP
08
30
50
90
90
70
10
10
ENDCHAR
STARTCHAR uni02A1
ENCODING 673
SWIDTH 426 0
DWIDTH 3 0
BBX 3 6 0 0
BITMAP
E0
20
20
40
E0
40
ENDCHAR
STARTCHAR uni02A2
ENCODING 674
SWIDTH 426 0
DWIDTH 3 0
BBX 3 6 0 0
BITMAP
E0
80
80
40
60
40
ENDCHAR
STARTCHAR uni02A3
ENCODING 675
SWIDTH 960 0
DWIDTH 8 0
BBX 7 6 0 0
BITMAP
10
3C
52
92
94
6E
ENDCHAR
STARTCHAR uni02A4
ENCODING 676
SWIDTH 981 0
DWIDTH 8 0
BBX 8 8 0 -2
BITMAP
10
30
5E
94
96
71
01
0E
ENDCHAR
STARTCHAR uni02A5
ENCODING 677
SWIDTH 1032 0
DWIDTH 8 0
BBX 8 7 0 -1
BITMAP
10
3C
52
92
97
6F
04
ENDCHAR
STARTCHAR uni02A6
ENCODING 678
SWIDTH 759 0
DWIDTH 6 0
BBX 6 5 0 0
BITMAP
68
D4
58
44
7C
ENDCHAR
STARTCHAR uni02A7
ENCODING 679
SWIDTH 509 0
DWIDTH 4 0
BBX 4 8 0 -2
BITMAP
10
70
D0
50
50
60
10
20
ENDCHAR
STARTCHAR uni02A8
ENCODING 680
SWIDTH 862 0
DWIDTH 7 0
BBX 7 5 0 0
BITMAP
64
D8
50
5E
7C
ENDCHAR
STARTCHAR uni02A9
ENCODING 681
SWIDTH 862 0
DWIDTH 7 0
BBX 6 8 0 -2
BITMAP
60
68
D4
64
64
64
04
04
ENDCHAR
STARTCHAR uni02AA
ENCODING 682
SWIDTH 662 0
DWIDTH 5 0
BBX 4 6 1 0
BITMAP
80
A0
D0
E0
90
F0
ENDCHAR
STARTCHAR uni02AB
ENCODING 683
SWIDTH 603 0
DWIDTH 5 0
BBX 4 6 1 0
BITMAP
80
C0
A0
A0
C0
F0
ENDCHAR
STARTCHAR uni02AC
ENCODING 684
SWIDTH 509 0
DWIDTH 4 0
BBX 4 6 0 0
BITMAP
B0
F0
60
B0
F0
60
ENDCHAR
STARTCHAR uni02AD
ENCODING 685
SWIDTH 590 0
DWIDTH 5 0
BBX 3 6 1 0
BITMAP
E0
A0
00
00
E0
A0
ENDCHAR
STARTCHAR uni02AE
ENCODING 686
SWIDTH 627 0
DWIDTH 5 0
BBX 4 6 0 -2
BITMAP
D0
50
50
70
10
10
ENDCHAR
STARTCHAR uni02AF
ENCODING 687
SWIDTH 627 0
DWIDTH 5 0
BBX 5 6 0 -2
BITMAP
D0
50
50
70
10
08
ENDCHAR
STARTCHAR uni02B0
ENCODING 688
SWIDTH 402 0
DWIDTH 3 0
BBX 3 4 0 2
BITMAP
80
E0
A0
A0
ENDCHAR
STARTCHAR uni02B1
ENCODING 689
SWIDTH 402 0
DWIDTH 3 0
BBX 3 4 0 2
BITMAP
80
E0
A0
A0
ENDCHAR
STARTCHAR uni02B2
ENCODING 690
SWIDTH 168 0
DWIDTH 1 0
BBX 1 5 0 1
BITMAP
80
80
80
80
80
ENDCHAR
STARTCHAR uni02B3
ENCODING 691
SWIDTH 268 0
DWIDTH 2 0
BBX 2 3 0 2
BITMAP
C0
80
80
ENDCHAR
STARTCHAR uni02B4
ENCODING 692
SWIDTH 268 0
DWIDTH 2 0
BBX 2 3 0 2
BITMAP
40
40
C0
ENDCHAR
STARTCHAR uni02B5
ENCODING 693
SWIDTH 268 0
DWIDTH 2 0
BBX 2 4 0 1
BITMAP
40
40
C0
40
ENDCHAR
STARTCHAR uni02B6
ENCODING 694
SWIDTH 363 0
DWIDTH 3 0
BBX 3 3 0 2
BITMAP
A0
E0
C0
ENDCHAR
STARTCHAR uni02B7
ENCODING 695
SWIDTH 511 0
DWIDTH 4 0
BBX 4 3 0 2
BITMAP
B0
F0
60
ENDCHAR
STARTCHAR uni02B8
ENCODING 696
SWIDTH 332 0
DWIDTH 3 0
BBX 3 4 0 1
BITMAP
A0
C0
40
80
ENDCHAR
STARTCHAR uni02B9
ENCODING 697
SWIDTH 175 0
DWIDTH 1 0
BBX 1 2 0 4
BITMAP
80
80
ENDCHAR
STARTCHAR uni02BA
ENCODING 698
SWIDTH 359 0
DWIDTH 3 0
BBX 3 2 0 4
BITMAP
A0
A0
ENDCHAR
STARTCHAR uni02BB
ENCODING 699
SWIDTH 175 0
DWIDTH 1 0
BBX 1 2 0 4
BITMAP
80
80
ENDCHAR
STARTCHAR uni02BC
ENCODING 700
SWIDTH 175 0
DWIDTH 1 0
BBX 1 2 0 4
BITMAP
80
80
ENDCHAR
STARTCHAR uni02BD
ENCODING 701
SWIDTH 175 0
DWIDTH 1 0
BBX 1 2 0 4
BITMAP
80
80
ENDCHAR
STARTCHAR uni02BE
ENCODING 702
SWIDTH 169 0
DWIDTH 1 0
BBX 1 1 0 5
BITMAP
80
ENDCHAR
STARTCHAR uni02BF
ENCODING 703
SWIDTH 169 0
DWIDTH 1 0
BBX 1 1 0 5
BITMAP
80
ENDCHAR
STARTCHAR uni02C0
ENCODING 704
SWIDTH 289 0
DWIDTH 2 0
BBX 2 2 0 4
BITMAP
C0
40
ENDCHAR
STARTCHAR uni02C1
ENCODING 705
SWIDTH 289 0
DWIDTH 2 0
BBX 2 2 0 4
BITMAP
C0
C0
ENDCHAR
STARTCHAR uni02C2
ENCODING 706
SWIDTH 285 0
DWIDTH 2 0
BBX 2 2 0 4
BITMAP
C0
40
ENDCHAR
STARTCHAR uni02C3
ENCODING 707
SWIDTH 285 0
DWIDTH 2 0
BBX 2 2 0 4
BITMAP
C0
80
ENDCHAR
STARTCHAR uni02C4
ENCODING 708
SWIDTH 285 0
DWIDTH 2 0
BBX 2 2 0 4
BITMAP
40
C0
ENDCHAR
STARTCHAR uni02C5
ENCODING 709
SWIDTH 285 0
DWIDTH 2 0
BBX 2 2 0 4
BITMAP
C0
40
ENDCHAR
STARTCHAR circumflex
ENCODING 710
SWIDTH 418 0
DWIDTH 3 0
BBX 3 1 0 5
BITMAP
E0
ENDCHAR
STARTCHAR caron
ENCODING 711
SWIDTH 418 0
DWIDTH 3 0
BBX 3 1 0 5
BITMAP
E0
ENDCHAR
STARTCHAR uni02C8
ENCODING 712
SWIDTH 160 0
DWIDTH 1 0
BBX 1 2 0 4
BITMAP
80
80
ENDCHAR
STARTCHAR macronmod
ENCODING 713
SWIDTH 377 0
DWIDTH 3 0
BBX 3 1 0 5
BITMAP
E0
ENDCHAR
STARTCHAR acutemod
ENCODING 714
SWIDTH 281 0
DWIDTH 2 0
BBX 2 1 0 5
BITMAP
C0
ENDCHAR
STARTCHAR gravemod
ENCODING 715
SWIDTH 281 0
DWIDTH 2 0
BBX 2 1 0 5
BITMAP
C0
ENDCHAR
STARTCHAR uni02CC
ENCODING 716
SWIDTH 160 0
DWIDTH 1 0
BBX 1 2 0 -2
BITMAP
80
80
ENDCHAR
STARTCHAR uni02CD
ENCODING 717
SWIDTH 377 0
DWIDTH 3 0
BBX 3 1 0 -1
BITMAP
E0
ENDCHAR
STARTCHAR uni02CE
ENCODING 718
SWIDTH 281 0
DWIDTH 2 0
BBX 2 1 0 -1
BITMAP
C0
ENDCHAR
STARTCHAR uni02CF
ENCODING 719
SWIDTH 281 0
DWIDTH 2 0
BBX 2 1 0 -1
BITMAP
C0
ENDCHAR
STARTCHAR uni02D0
ENCODING 720
SWIDTH 322 0
DWIDTH 3 0
BBX 1 4 1 0
BITMAP
80
00
00
80
ENDCHAR
STARTCHAR uni02D1
ENCODING 721
SWIDTH 322 0
DWIDTH 3 0
BBX 1 1 1 3
BITMAP
80
ENDCHAR
STARTCHAR uni02D2
ENCODING 722
SWIDTH 189 0
DWIDTH 2 0
BBX 1 1 0 2
BITMAP
80
ENDCHAR
STARTCHAR uni02D3
ENCODING 723
SWIDTH 189 0
DWIDTH 2 0
BBX 1 1 0 2
BITMAP
80
ENDCHAR
STARTCHAR uni02D4
ENCODING 724
SWIDTH 270 0
DWIDTH 2 0
BBX 2 2 0 2
BITMAP
40
C0
ENDCHAR
STARTCHAR uni02D5
ENCODING 725
SWIDTH 270 0
DWIDTH 2 0
BBX 2 2 0 2
BITMAP
C0
40
ENDCHAR
STARTCHAR uni02D6
ENCODING 726
SWIDTH 270 0
DWIDTH 2 0
BBX 2 2 0 1
BITMAP
40
C0
ENDCHAR
STARTCHAR uni02D7
ENCODING 727
SWIDTH 288 0
DWIDTH 2 0
BBX 2 1 0 2
BITMAP
C0
ENDCHAR
STARTCHAR breve
ENCODING 728
SWIDTH 391 0
DWIDTH 3 0
BBX 3 1 0 5
BITMAP
E0
ENDCHAR
STARTCHAR dotaccent
ENCODING 729
SWIDTH 183 0
DWIDTH 1 0
BBX 1 1 0 5
BITMAP
80
ENDCHAR
STARTCHAR ring
ENCODING 730
SWIDTH 300 0
DWIDTH 2 0
BBX 2 2 0 5
BITMAP
40
C0
ENDCHAR
STARTCHAR ogonek
ENCODING 731
SWIDTH 245 0
DWIDTH 2 0
BBX 2 2 0 -2
BITMAP
80
C0
ENDCHAR
STARTCHAR tilde
ENCODING 732
SWIDTH 447 0
DWIDTH 4 0
BBX 3 1 0 5
BITMAP
E0
ENDCHAR
STARTCHAR hungarumlaut
ENCODING 733
SWIDTH 439 0
DWIDTH 4 0
BBX 3 1 0 5
BITMAP
E0
ENDCHAR
STARTCHAR uni02DE
ENCODING 734
SWIDTH 246 0
DWIDTH 2 0
BBX 3 2 -1 1
BITMAP
C0
20
ENDCHAR
STARTCHAR uni02DF
ENCODING 735
SWIDTH 284 0
DWIDTH 2 0
BBX 2 1 0 5
BITMAP
C0
ENDCHAR
STARTCHAR uni02E0
ENCODING 736
SWIDTH 330 0
DWIDTH 3 0
BBX 3 4 0 1
BITMAP
A0
C0
40
40
ENDCHAR
STARTCHAR uni02E1
ENCODING 737
SWIDTH 168 0
DWIDTH 1 0
BBX 1 4 0 2
BITMAP
80
80
80
80
ENDCHAR
STARTCHAR uni02E2
ENCODING 738
SWIDTH 311 0
DWIDTH 2 0
BBX 2 3 0 2
BITMAP
C0
40
C0
ENDCHAR
STARTCHAR uni02E3
ENCODING 739
SWIDTH 344 0
DWIDTH 3 0
BBX 3 3 0 2
BITMAP
A0
40
A0
ENDCHAR
STARTCHAR uni02E4
ENCODING 740
SWIDTH 277 0
DWIDTH 2 0
BBX 2 4 0 2
BITMAP
C0
80
40
40
ENDCHAR
STARTCHAR uni02E5
ENCODING 741
SWIDTH 418 0
DWIDTH 3 0
BBX 2 6 1 0
BITMAP
C0
40
40
40
40
40
ENDCHAR
STARTCHAR uni02E6
ENCODING 742
SWIDTH 418 0
DWIDTH 3 0
BBX 2 6 1 0
BITMAP
40
40
C0
40
40
40
ENDCHAR
STARTCHAR uni02E7
ENCODING 743
SWIDTH 418 0
DWIDTH 3 0
BBX 2 6 1 0
BITMAP
40
40
40
C0
40
40
ENDCHAR
STARTCHAR uni02E8
ENCODING 744
SWIDTH 418 0
DWIDTH 3 0
BBX 2 6 1 0
BITMAP
40
40
40
40
C0
40
ENDCHAR
STARTCHAR uni02E9
ENCODING 745
SWIDTH 418 0
DWIDTH 3 0
BBX 2 6 1 0
BITMAP
40
40
40
40
40
C0
ENDCHAR
STARTCHAR uni02EA
ENCODING 746
SWIDTH 418 0
DWIDTH 3 0
BBX 2 3 1 1
BITMAP
80
80
C0
ENDCHAR
STARTCHAR uni02EB
ENCODING 747
SWIDTH 418 0
DWIDTH 3 0
BBX 2 3 1 1
BITMAP
80
C0
80
ENDCHAR
STARTCHAR uni02EC
ENCODING 748
SWIDTH 418 0
DWIDTH 3 0
BBX 3 1 0 -1
BITMAP
E0
ENDCHAR
STARTCHAR uni02ED
ENCODING 749
SWIDTH 495 0
DWIDTH 4 0
BBX 4 2 0 5
BITMAP
F0
F0
ENDCHAR
STARTCHAR uni02EE
ENCODING 750
SWIDTH 359 0
DWIDTH 3 0
BBX 3 2 0 4
BITMAP
A0
A0
ENDCHAR
STARTCHAR uni02EF
ENCODING 751
SWIDTH 414 0
DWIDTH 3 0
BBX 3 2 0 -2
BITMAP
A0
40
ENDCHAR
STARTCHAR uni02F0
ENCODING 752
SWIDTH 414 0
DWIDTH 3 0
BBX 3 2 0 -2
BITMAP
40
A0
ENDCHAR
STARTCHAR uni02F1
ENCODING 753
SWIDTH 331 0
DWIDTH 3 0
BBX 2 2 0 -2
BITMAP
C0
40
ENDCHAR
STARTCHAR uni02F2
ENCODING 754
SWIDTH 331 0
DWIDTH 3 0
BBX 2 2 0 -2
BITMAP
C0
80
ENDCHAR
STARTCHAR uni02F3
ENCODING 755
SWIDTH 333 0
DWIDTH 3 0
BBX 2 2 0 -2
BITMAP
40
C0
ENDCHAR
STARTCHAR uni02F4
ENCODING 756
SWIDTH 281 0
DWIDTH 2 0
BBX 2 1 0 2
BITMAP
C0
ENDCHAR
STARTCHAR uni02F5
ENCODING 757
SWIDTH 439 0
DWIDTH 4 0
BBX 3 2 0 2
BITMAP
A0
60
ENDCHAR
STARTCHAR uni02F6
ENCODING 758
SWIDTH 439 0
DWIDTH 4 0
BBX 3 1 0 2
BITMAP
E0
ENDCHAR
STARTCHAR uni02F7
ENCODING 759
SWIDTH 447 0
DWIDTH 4 0
BBX 3 1 0 -1
BITMAP
E0
ENDCHAR
STARTCHAR uni02F8
ENCODING 760
SWIDTH 268 0
DWIDTH 2 0
BBX 1 4 1 2
BITMAP
80
00
00
80
ENDCHAR
STARTCHAR uni02F9
ENCODING 761
SWIDTH 286 0
DWIDTH 2 0
BBX 2 1 0 4
BITMAP
C0
ENDCHAR
STARTCHAR uni02FA
ENCODING 762
SWIDTH 286 0
DWIDTH 2 0
BBX 2 1 0 4
BITMAP
C0
ENDCHAR
STARTCHAR uni02FB
ENCODING 763
SWIDTH 286 0
DWIDTH 2 0
BBX 2 2 0 0
BITMAP
80
C0
ENDCHAR
STARTCHAR uni02FC
ENCODING 764
SWIDTH 286 0
DWIDTH 2 0
BBX 2 2 0 0
BITMAP
40
C0
ENDCHAR
STARTCHAR uni02FD
ENCODING 765
SWIDTH 526 0
DWIDTH 4 0
BBX 4 2 0 -2
BITMAP
90
F0
ENDCHAR
STARTCHAR uni02FE
ENCODING 766
SWIDTH 526 0
DWIDTH 4 0
BBX 4 2 0 -2
BITMAP
80
F0
ENDCHAR
STARTCHAR uni02FF
ENCODING 767
SWIDTH 534 0
DWIDTH 4 0
BBX 4 3 0 -2
BITMAP
20
F0
40
ENDCHAR
STARTCHAR gravecomb
ENCODING 768
SWIDTH 0 0
DWIDTH 0 0
BBX 2 1 -4 5
BITMAP
C0
ENDCHAR
STARTCHAR acutecomb
ENCODING 769
SWIDTH 0 0
DWIDTH 0 0
BBX 2 1 -3 5
BITMAP
C0
ENDCHAR
STARTCHAR uni0302
ENCODING 770
SWIDTH 0 0
DWIDTH 0 0
BBX 2 1 -1 5
BITMAP
C0
ENDCHAR
STARTCHAR tildecomb
ENCODING 771
SWIDTH 0 0
DWIDTH 0 0
BBX 3 1 -4 5
BITMAP
E0
ENDCHAR
STARTCHAR uni0304
ENCODING 772
SWIDTH 0 0
DWIDTH 0 0
BBX 2 1 -1 5
BITMAP
C0
ENDCHAR
STARTCHAR uni0305
ENCODING 773
SWIDTH 0 0
DWIDTH 0 0
BBX 4 1 -2 6
BITMAP
F0
ENDCHAR
STARTCHAR uni0306
ENCODING 774
SWIDTH 0 0
DWIDTH 0 0
BBX 2 1 -1 5
BITMAP
C0
ENDCHAR
STARTCHAR uni0307
ENCODING 775
SWIDTH 0 0
DWIDTH 0 0
BBX 1 1 -1 5
BITMAP
80
ENDCHAR
STARTCHAR uni0308
ENCODING 776
SWIDTH 0 0
DWIDTH 0 0
BBX 2 1 -1 5
BITMAP
C0
ENDCHAR
STARTCHAR hookabovecomb
ENCODING 777
SWIDTH 0 0
DWIDTH 0 0
BBX 1 2 -3 5
BITMAP
80
80
ENDCHAR
STARTCHAR uni030A
ENCODING 778
SWIDTH 0 0
DWIDTH 0 0
BBX 2 2 -1 5
BITMAP
80
C0
ENDCHAR
STARTCHAR uni030B
ENCODING 779
SWIDTH 0 0
DWIDTH 0 0
BBX 3 1 -1 5
BITMAP
E0
ENDCHAR
STARTCHAR uni030C
ENCODING 780
SWIDTH 0 0
DWIDTH 0 0
BBX 2 1 -1 5
BITMAP
C0
ENDCHAR
STARTCHAR uni030D
ENCODING 781
SWIDTH 0 0
DWIDTH 0 0
BBX 1 1 0 5
BITMAP
80
ENDCHAR
STARTCHAR uni030E
ENCODING 782
SWIDTH 0 0
DWIDTH 0 0
BBX 2 1 -1 5
BITMAP
C0
ENDCHAR
STARTCHAR uni030F
ENCODING 783
SWIDTH 0 0
DWIDTH 0 0
BBX 3 1 -4 5
BITMAP
E0
ENDCHAR
STARTCHAR uni0310
ENCODING 784
SWIDTH 0 0
DWIDTH 0 0
BBX 2 2 -1 5
BITMAP
80
C0
ENDCHAR
STARTCHAR uni0311
ENCODING 785
SWIDTH 0 0
DWIDTH 0 0
BBX 2 1 -1 5
BITMAP
C0
ENDCHAR
STARTCHAR uni0312
ENCODING 786
SWIDTH 0 0
DWIDTH 0 0
BBX 2 2 -1 4
BITMAP
40
80
ENDCHAR
STARTCHAR uni0313
ENCODING 787
SWIDTH 0 0
DWIDTH 0 0
BBX 2 2 -1 4
BITMAP
40
80
ENDCHAR
STARTCHAR uni0314
ENCODING 788
SWIDTH 0 0
DWIDTH 0 0
BBX 2 2 -1 4
BITMAP
80
40
ENDCHAR
STARTCHAR uni0315
ENCODING 789
SWIDTH 0 0
DWIDTH 0 0
BBX 2 2 -1 4
BITMAP
40
80
ENDCHAR
STARTCHAR uni0316
ENCODING 790
SWIDTH 0 0
DWIDTH 0 0
BBX 2 1 -1 -1
BITMAP
C0
ENDCHAR
STARTCHAR uni0317
ENCODING 791
SWIDTH 0 0
DWIDTH 0 0
BBX 2 1 -1 -1
BITMAP
C0
ENDCHAR
STARTCHAR uni0318
ENCODING 792
SWIDTH 0 0
DWIDTH 0 0
BBX 2 2 -1 -2
BITMAP
C0
40
ENDCHAR
STARTCHAR uni0319
ENCODING 793
SWIDTH 0 0
DWIDTH 0 0
BBX 2 2 -1 -2
BITMAP
C0
80
ENDCHAR
STARTCHAR uni031A
ENCODING 794
SWIDTH 0 0
DWIDTH 0 0
BBX 2 2 -1 6
BITMAP
C0
40
ENDCHAR
STARTCHAR uni031B
ENCODING 795
SWIDTH 0 0
DWIDTH 0 0
BBX 2 2 -1 4
BITMAP
40
80
ENDCHAR
STARTCHAR uni031C
ENCODING 796
SWIDTH 0 0
DWIDTH 0 0
BBX 1 2 0 -2
BITMAP
80
80
ENDCHAR
STARTCHAR uni031D
ENCODING 797
SWIDTH 0 0
DWIDTH 0 0
BBX 2 2 -1 -2
BITMAP
80
C0
ENDCHAR
STARTCHAR uni031E
ENCODING 798
SWIDTH 0 0
DWIDTH 0 0
BBX 2 2 -1 -2
BITMAP
C0
80
ENDCHAR
STARTCHAR uni031F
ENCODING 799
SWIDTH 0 0
DWIDTH 0 0
BBX 2 2 -1 -2
BITMAP
80
C0
ENDCHAR
STARTCHAR uni0320
ENCODING 800
SWIDTH 0 0
DWIDTH 0 0
BBX 2 1 -1 -1
BITMAP
C0
ENDCHAR
STARTCHAR uni0321
ENCODING 801
SWIDTH 0 0
DWIDTH 0 0
BBX 1 2 -1 -2
BITMAP
80
80
ENDCHAR
STARTCHAR uni0322
ENCODING 802
SWIDTH 0 0
DWIDTH 0 0
BBX 1 2 0 -2
BITMAP
80
80
ENDCHAR
STARTCHAR dotbelowcomb
ENCODING 803
SWIDTH 0 0
DWIDTH 0 0
BBX 1 1 -3 -1
BITMAP
80
ENDCHAR
STARTCHAR uni0324
ENCODING 804
SWIDTH 0 0
DWIDTH 0 0
BBX 2 1 -1 -1
BITMAP
C0
ENDCHAR
STARTCHAR uni0325
ENCODING 805
SWIDTH 0 0
DWIDTH 0 0
BBX 2 2 -1 -2
BITMAP
80
C0
ENDCHAR
STARTCHAR uni0326
ENCODING 806
SWIDTH 0 0
DWIDTH 0 0
BBX 2 2 -1 -2
BITMAP
40
80
ENDCHAR
STARTCHAR uni0327
ENCODING 807
SWIDTH 0 0
DWIDTH 0 0
BBX 2 2 -1 -2
BITMAP
80
C0
ENDCHAR
STARTCHAR uni0328
ENCODING 808
SWIDTH 0 0
DWIDTH 0 0
BBX 2 2 -1 -2
BITMAP
80
C0
ENDCHAR
STARTCHAR uni0329
ENCODING 809
SWIDTH 0 0
DWIDTH 0 0
BBX 1 1 0 -1
BITMAP
80
ENDCHAR
STARTCHAR uni032A
ENCODING 810
SWIDTH 0 0
DWIDTH 0 0
BBX 2 2 -1 -2
BITMAP
C0
C0
ENDCHAR
STARTCHAR uni032B
ENCODING 811
SWIDTH 0 0
DWIDTH 0 0
BBX 4 1 -2 -1
BITMAP
F0
ENDCHAR
STARTCHAR uni032C
ENCODING 812
SWIDTH 0 0
DWIDTH 0 0
BBX 2 1 -1 -1
BITMAP
C0
ENDCHAR
STARTCHAR uni032D
ENCODING 813
SWIDTH 0 0
DWIDTH 0 0
BBX 2 1 -1 -1
BITMAP
C0
ENDCHAR
STARTCHAR uni032E
ENCODING 814
SWIDTH 0 0
DWIDTH 0 0
BBX 2 1 -1 -1
BITMAP
C0
ENDCHAR
STARTCHAR uni032F
ENCODING 815
SWIDTH 0 0
DWIDTH 0 0
BBX 2 1 -1 -1
BITMAP
C0
ENDCHAR
STARTCHAR uni0330
ENCODING 816
SWIDTH 0 0
DWIDTH 0 0
BBX 2 1 -1 -1
BITMAP
C0
ENDCHAR
STARTCHAR uni0331
ENCODING 817
SWIDTH 0 0
DWIDTH 0 0
BBX 2 1 -1 -1
BITMAP
C0
ENDCHAR
STARTCHAR uni0332
ENCODING 818
SWIDTH 0 0
DWIDTH 0 0
BBX 4 1 -2 -1
BITMAP
F0
ENDCHAR
STARTCHAR uni0333
ENCODING 819
SWIDTH 0 0
DWIDTH 0 0
BBX 4 2 -2 -2
BITMAP
F0
F0
ENDCHAR
STARTCHAR uni0334
ENCODING 820
SWIDTH 0 0
DWIDTH 0 0
BBX 3 1 -1 2
BITMAP
E0
ENDCHAR
STARTCHAR uni0335
ENCODING 821
SWIDTH 0 0
DWIDTH 0 0
BBX 4 1 -2 2
BITMAP
F0
ENDCHAR
STARTCHAR uni0336
ENCODING 822
SWIDTH 0 0
DWIDTH 0 0
BBX 6 1 -3 2
BITMAP
FC
ENDCHAR
STARTCHAR uni0337
ENCODING 823
SWIDTH 0 0
DWIDTH 0 0
BBX 2 2 -1 1
BITMAP
40
80
ENDCHAR
STARTCHAR uni0338
ENCODING 824
SWIDTH 0 0
DWIDTH 0 0
BBX 4 6 -2 0
BITMAP
10
20
20
40
40
C0
ENDCHAR
STARTCHAR uni0339
ENCODING 825
SWIDTH 0 0
DWIDTH 0 0
BBX 1 2 0 -2
BITMAP
80
80
ENDCHAR
STARTCHAR uni033A
ENCODING 826
SWIDTH 0 0
DWIDTH 0 0
BBX 2 2 -1 -2
BITMAP
C0
C0
ENDCHAR
STARTCHAR uni033B
ENCODING 827
SWIDTH 0 0
DWIDTH 0 0
BBX 4 2 -2 -2
BITMAP
F0
F0
ENDCHAR
STARTCHAR uni033C
ENCODING 828
SWIDTH 0 0
DWIDTH 0 0
BBX 4 1 -2 -1
BITMAP
F0
ENDCHAR
STARTCHAR uni033D
ENCODING 829
SWIDTH 0 0
DWIDTH 0 0
BBX 2 1 -1 5
BITMAP
C0
ENDCHAR
STARTCHAR uni033E
ENCODING 830
SWIDTH 0 0
DWIDTH 0 0
BBX 2 2 -1 5
BITMAP
C0
C0
ENDCHAR
STARTCHAR uni033F
ENCODING 831
SWIDTH 0 0
DWIDTH 0 0
BBX 4 2 -2 6
BITMAP
F0
F0
ENDCHAR
STARTCHAR uni0340
ENCODING 832
SWIDTH 0 0
DWIDTH 0 0
BBX 1 1 -1 5
BITMAP
80
ENDCHAR
STARTCHAR uni0341
ENCODING 833
SWIDTH 0 0
DWIDTH 0 0
BBX 1 1 0 5
BITMAP
80
ENDCHAR
STARTCHAR uni0342
ENCODING 834
SWIDTH 0 0
DWIDTH 0 0
BBX 2 1 -1 5
BITMAP
C0
ENDCHAR
STARTCHAR uni0343
ENCODING 835
SWIDTH 0 0
DWIDTH 0 0
BBX 2 1 -1 5
BITMAP
C0
ENDCHAR
STARTCHAR uni0344
ENCODING 836
SWIDTH 0 0
DWIDTH 0 0
BBX 3 1 -1 5
BITMAP
E0
ENDCHAR
STARTCHAR uni0345
ENCODING 837
SWIDTH 0 0
DWIDTH 0 0
BBX 1 1 0 -2
BITMAP
80
ENDCHAR
STARTCHAR uni0346
ENCODING 838
SWIDTH 0 0
DWIDTH 0 0
BBX 4 1 -2 5
BITMAP
F0
ENDCHAR
STARTCHAR uni0347
ENCODING 839
SWIDTH 0 0
DWIDTH 0 0
BBX 4 2 -2 -2
BITMAP
F0
F0
ENDCHAR
STARTCHAR uni0348
ENCODING 840
SWIDTH 0 0
DWIDTH 0 0
BBX 2 1 -1 -1
BITMAP
C0
ENDCHAR
STARTCHAR uni0349
ENCODING 841
SWIDTH 0 0
DWIDTH 0 0
BBX 2 2 -1 -2
BITMAP
C0
40
ENDCHAR
STARTCHAR uni034A
ENCODING 842
SWIDTH 0 0
DWIDTH 0 0
BBX 2 1 -1 5
BITMAP
C0
ENDCHAR
STARTCHAR uni034B
ENCODING 843
SWIDTH 0 0
DWIDTH 0 0
BBX 2 2 -1 5
BITMAP
C0
C0
ENDCHAR
STARTCHAR uni034C
ENCODING 844
SWIDTH 0 0
DWIDTH 0 0
BBX 2 2 -1 5
BITMAP
C0
C0
ENDCHAR
STARTCHAR uni034D
ENCODING 845
SWIDTH 0 0
DWIDTH 0 0
BBX 2 2 -1 -2
BITMAP
C0
C0
ENDCHAR
STARTCHAR uni034E
ENCODING 846
SWIDTH 0 0
DWIDTH 0 0
BBX 2 2 -1 -2
BITMAP
C0
40
ENDCHAR
STARTCHAR uni034F
ENCODING 847
SWIDTH 0 0
DWIDTH 0 0
BBX 6 6 -3 0
BITMAP
B4
B4
48
84
48
B4
ENDCHAR
STARTCHAR uni0350
ENCODING 848
SWIDTH 0 0
DWIDTH 0 0
BBX 2 1 -1 5
BITMAP
C0
ENDCHAR
STARTCHAR uni0351
ENCODING 849
SWIDTH 0 0
DWIDTH 0 0
BBX 1 1 0 5
BITMAP
80
ENDCHAR
STARTCHAR uni0352
ENCODING 850
SWIDTH 0 0
DWIDTH 0 0
BBX 2 2 -1 5
BITMAP
C0
80
ENDCHAR
STARTCHAR uni0353
ENCODING 851
SWIDTH 0 0
DWIDTH 0 0
BBX 2 2 -1 -2
BITMAP
C0
C0
ENDCHAR
STARTCHAR uni0354
ENCODING 852
SWIDTH 0 0
DWIDTH 0 0
BBX 2 2 -1 -2
BITMAP
40
C0
ENDCHAR
STARTCHAR uni0355
ENCODING 853
SWIDTH 0 0
DWIDTH 0 0
BBX 2 2 -1 -2
BITMAP
80
C0
ENDCHAR
STARTCHAR uni0356
ENCODING 854
SWIDTH 0 0
DWIDTH 0 0
BBX 3 2 -1 -2
BITMAP
C0
E0
ENDCHAR
STARTCHAR uni0357
ENCODING 855
SWIDTH 0 0
DWIDTH 0 0
BBX 1 1 0 5
BITMAP
80
ENDCHAR
STARTCHAR uni0358
ENCODING 856
SWIDTH 0 0
DWIDTH 0 0
BBX 1 1 1 5
BITMAP
80
ENDCHAR
STARTCHAR uni0359
ENCODING 857
SWIDTH 0 0
DWIDTH 0 0
BBX 2 2 -1 -2
BITMAP
80
C0
ENDCHAR
STARTCHAR uni035A
ENCODING 858
SWIDTH 0 0
DWIDTH 0 0
BBX 4 2 -2 -2
BITMAP
60
F0
ENDCHAR
STARTCHAR uni035B
ENCODING 859
SWIDTH 0 0
DWIDTH 0 0
BBX 2 1 -1 5
BITMAP
C0
ENDCHAR
STARTCHAR uni035C
ENCODING 860
SWIDTH 0 0
DWIDTH 0 0
BBX 6 2 -3 -2
BITMAP
84
78
ENDCHAR
STARTCHAR uni035D
ENCODING 861
SWIDTH 0 0
DWIDTH 0 0
BBX 6 2 -3 5
BITMAP
84
78
ENDCHAR
STARTCHAR uni035E
ENCODING 862
SWIDTH 0 0
DWIDTH 0 0
BBX 4 1 -2 5
BITMAP
F0
ENDCHAR
STARTCHAR uni035F
ENCODING 863
SWIDTH 0 0
DWIDTH 0 0
BBX 4 1 -2 -1
BITMAP
F0
ENDCHAR
STARTCHAR uni0360
ENCODING 864
SWIDTH 0 0
DWIDTH 0 0
BBX 6 1 -3 5
BITMAP
FC
ENDCHAR
STARTCHAR uni0361
ENCODING 865
SWIDTH 0 0
DWIDTH 0 0
BBX 6 2 -3 5
BITMAP
78
84
ENDCHAR
STARTCHAR uni0362
ENCODING 866
SWIDTH 0 0
DWIDTH 0 0
BBX 6 2 -3 -2
BITMAP
04
FC
ENDCHAR
STARTCHAR uni0363
ENCODING 867
SWIDTH 0 0
DWIDTH 0 0
BBX 2 2 -1 5
BITMAP
C0
C0
ENDCHAR
STARTCHAR uni0364
ENCODING 868
SWIDTH 0 0
DWIDTH 0 0
BBX 2 2 -1 5
BITMAP
40
C0
ENDCHAR
STARTCHAR uni0365
ENCODING 869
SWIDTH 0 0
DWIDTH 0 0
BBX 1 2 0 5
BITMAP
80
80
ENDCHAR
STARTCHAR uni0366
ENCODING 870
SWIDTH 0 0
DWIDTH 0 0
BBX 2 2 -1 5
BITMAP
C0
C0
ENDCHAR
STARTCHAR uni0367
ENCODING 871
SWIDTH 0 0
DWIDTH 0 0
BBX 2 2 -1 5
BITMAP
C0
C0
ENDCHAR
STARTCHAR uni0368
ENCODING 872
SWIDTH 0 0
DWIDTH 0 0
BBX 2 2 -1 5
BITMAP
40
C0
ENDCHAR
STARTCHAR uni0369
ENCODING 873
SWIDTH 0 0
DWIDTH 0 0
BBX 2 2 -1 5
BITMAP
C0
C0
ENDCHAR
STARTCHAR uni036A
ENCODING 874
SWIDTH 0 0
DWIDTH 0 0
BBX 2 2 -1 5
BITMAP
C0
C0
ENDCHAR
STARTCHAR uni036B
ENCODING 875
SWIDTH 0 0
DWIDTH 0 0
BBX 2 2 -1 5
BITMAP
C0
C0
ENDCHAR
STARTCHAR uni036C
ENCODING 876
SWIDTH 0 0
DWIDTH 0 0
BBX 1 2 0 5
BITMAP
80
80
ENDCHAR
STARTCHAR uni036D
ENCODING 877
SWIDTH 0 0
DWIDTH 0 0
BBX 2 2 -1 5
BITMAP
C0
C0
ENDCHAR
STARTCHAR uni036E
ENCODING 878
SWIDTH 0 0
DWIDTH 0 0
BBX 2 2 -1 5
BITMAP
C0
80
ENDCHAR
STARTCHAR uni036F
ENCODING 879
SWIDTH 0 0
DWIDTH 0 0
BBX 2 2 -1 5
BITMAP
C0
C0
ENDCHAR
STARTCHAR uni0370
ENCODING 880
SWIDTH 443 0
DWIDTH 4 0
BBX 2 6 1 0
BITMAP
80
80
80
C0
80
80
ENDCHAR
STARTCHAR uni0371
ENCODING 881
SWIDTH 374 0
DWIDTH 3 0
BBX 2 4 1 0
BITMAP
80
C0
80
80
ENDCHAR
STARTCHAR uni0372
ENCODING 882
SWIDTH 656 0
DWIDTH 5 0
BBX 5 6 0 0
BITMAP
F8
A8
A8
20
20
20
ENDCHAR
STARTCHAR uni0373
ENCODING 883
SWIDTH 654 0
DWIDTH 5 0
BBX 4 6 1 0
BITMAP
F0
D0
40
40
40
40
ENDCHAR
STARTCHAR uni0374
ENCODING 884
SWIDTH 167 0
DWIDTH 1 0
BBX 2 1 0 5
BITMAP
C0
ENDCHAR
STARTCHAR uni0375
ENCODING 885
SWIDTH 167 0
DWIDTH 1 0
BBX 1 1 0 -1
BITMAP
80
ENDCHAR
STARTCHAR uni0376
ENCODING 886
SWIDTH 768 0
DWIDTH 6 0
BBX 4 6 1 0
BITMAP
90
90
B0
D0
D0
90
ENDCHAR
STARTCHAR uni0377
ENCODING 887
SWIDTH 643 0
DWIDTH 5 0
BBX 3 4 1 0
BITMAP
A0
E0
E0
A0
ENDCHAR
STARTCHAR uni037A
ENCODING 890
SWIDTH 244 0
DWIDTH 2 0
BBX 1 1 1 -2
BITMAP
80
ENDCHAR
STARTCHAR uni037B
ENCODING 891
SWIDTH 480 0
DWIDTH 4 0
BBX 3 4 0 0
BITMAP
E0
20
20
E0
ENDCHAR
STARTCHAR uni037C
ENCODING 892
SWIDTH 480 0
DWIDTH 4 0
BBX 4 4 0 0
BITMAP
70
A0
80
70
ENDCHAR
STARTCHAR uni037D
ENCODING 893
SWIDTH 480 0
DWIDTH 4 0
BBX 3 4 0 0
BITMAP
E0
60
20
E0
ENDCHAR
STARTCHAR uni037E
ENCODING 894
SWIDTH 268 0
DWIDTH 2 0
BBX 2 5 0 -1
BITMAP
40
00
00
80
80
ENDCHAR
STARTCHAR uni037F
ENCODING 895
SWIDTH 273 0
DWIDTH 2 0
BBX 2 8 -1 -2
BITMAP
40
40
40
40
40
40
40
80
ENDCHAR
STARTCHAR tonos
ENCODING 900
SWIDTH 234 0
DWIDTH 2 0
BBX 2 1 0 5
BITMAP
C0
ENDCHAR
STARTCHAR dieresistonos
ENCODING 901
SWIDTH 648 0
DWIDTH 5 0
BBX 3 1 1 5
BITMAP
E0
ENDCHAR
STARTCHAR Alphatonos
ENCODING 902
SWIDTH 708 0
DWIDTH 6 0
BBX 6 6 0 0
BITMAP
90
30
30
78
48
44
ENDCHAR
STARTCHAR anoteleia
ENCODING 903
SWIDTH 268 0
DWIDTH 2 0
BBX 1 1 1 3
BITMAP
80
ENDCHAR
STARTCHAR Epsilontonos
ENCODING 904
SWIDTH 720 0
DWIDTH 6 0
BBX 5 6 0 0
BITMAP
B8
20
20
38
20
38
ENDCHAR
STARTCHAR Etatonos
ENCODING 905
SWIDTH 905 0
DWIDTH 7 0
BBX 6 6 0 0
BITMAP
A4
24
24
3C
24
24
ENDCHAR
STARTCHAR Iotatonos
ENCODING 906
SWIDTH 523 0
DWIDTH 4 0
BBX 4 6 0 0
BITMAP
B0
20
20
20
20
30
ENDCHAR
STARTCHAR Omicrontonos
ENCODING 908
SWIDTH 895 0
DWIDTH 7 0
BBX 7 6 0 0
BITMAP
98
24
42
42
22
3C
ENDCHAR
STARTCHAR Upsilontonos
ENCODING 910
SWIDTH 780 0
DWIDTH 6 0
BBX 6 6 0 0
BITMAP
A4
24
18
10
10
10
ENDCHAR
STARTCHAR Omegatonos
ENCODING 911
SWIDTH 841 0
DWIDTH 7 0
BBX 7 6 0 0
BITMAP
B8
44
42
42
24
6E
ENDCHAR
STARTCHAR iotadieresistonos
ENCODING 912
SWIDTH 332 0
DWIDTH 3 0
BBX 3 6 0 0
BITMAP
E0
00
40
40
40
40
ENDCHAR
STARTCHAR Alpha
ENCODING 913
SWIDTH 639 0
DWIDTH 5 0
BBX 5 6 0 0
BITMAP
20
20
50
70
88
88
ENDCHAR
STARTCHAR Beta
ENCODING 914
SWIDTH 650 0
DWIDTH 5 0
BBX 4 6 1 0
BITMAP
E0
90
A0
D0
90
E0
ENDCHAR
STARTCHAR Gamma
ENCODING 915
SWIDTH 499 0
DWIDTH 4 0
BBX 3 6 1 0
BITMAP
E0
80
80
80
80
80
ENDCHAR
STARTCHAR uni0394
ENCODING 916
SWIDTH 639 0
DWIDTH 5 0
BBX 5 6 0 0
BITMAP
20
20
50
50
88
F8
ENDCHAR
STARTCHAR Epsilon
ENCODING 917
SWIDTH 556 0
DWIDTH 4 0
BBX 3 6 1 0
BITMAP
E0
80
80
E0
80
E0
ENDCHAR
STARTCHAR Zeta
ENCODING 918
SWIDTH 572 0
DWIDTH 5 0
BBX 4 6 0 0
BITMAP
F0
10
20
40
40
F0
ENDCHAR
STARTCHAR Eta
ENCODING 919
SWIDTH 741 0
DWIDTH 6 0
BBX 4 6 1 0
BITMAP
90
90
90
F0
90
90
ENDCHAR
STARTCHAR Theta
ENCODING 920
SWIDTH 781 0
DWIDTH 6 0
BBX 6 6 0 0
BITMAP
30
48
84
B4
44
78
ENDCHAR
STARTCHAR Iota
ENCODING 921
SWIDTH 339 0
DWIDTH 3 0
BBX 2 6 0 0
BITMAP
C0
40
40
40
40
C0
ENDCHAR
STARTCHAR Kappa
ENCODING 922
SWIDTH 619 0
DWIDTH 5 0
BBX 4 6 1 0
BITMAP
90
A0
C0
C0
A0
90
ENDCHAR
STARTCHAR Lambda
ENCODING 923
SWIDTH 609 0
DWIDTH 5 0
BBX 5 6 0 0
BITMAP
20
60
50
50
90
88
ENDCHAR
STARTCHAR Mu
ENCODING 924
SWIDTH 907 0
DWIDTH 7 0
BBX 5 6 1 0
BITMAP
88
88
D8
D8
A8
A8
ENDCHAR
STARTCHAR Nu
ENCODING 925
SWIDTH 760 0
DWIDTH 6 0
BBX 4 6 1 0
BITMAP
90
90
D0
B0
B0
90
ENDCHAR
STARTCHAR Xi
ENCODING 926
SWIDTH 624 0
DWIDTH 5 0
BBX 5 6 0 0
BITMAP
70
00
00
70
00
F8
ENDCHAR
STARTCHAR Omicron
ENCODING 927
SWIDTH 781 0
DWIDTH 6 0
BBX 6 6 0 0
BITMAP
30
48
84
84
44
78
ENDCHAR
STARTCHAR Pi
ENCODING 928
SWIDTH 731 0
DWIDTH 6 0
BBX 4 6 1 0
BITMAP
F0
90
90
90
90
90
ENDCHAR
STARTCHAR Rho
ENCODING 929
SWIDTH 605 0
DWIDTH 5 0
BBX 3 6 1 0
BITMAP
E0
A0
A0
E0
80
80
ENDCHAR
STARTCHAR Sigma
ENCODING 931
SWIDTH 572 0
DWIDTH 5 0
BBX 4 6 0 0
BITMAP
F0
40
20
20
40
F0
ENDCHAR
STARTCHAR Tau
ENCODING 932
SWIDTH 556 0
DWIDTH 4 0
BBX 4 6 0 0
BITMAP
F0
20
20
20
20
20
ENDCHAR
STARTCHAR Upsilon
ENCODING 933
SWIDTH 566 0
DWIDTH 5 0
BBX 5 6 0 0
BITMAP
88
50
60
20
20
20
ENDCHAR
STARTCHAR Phi
ENCODING 934
SWIDTH 843 0
DWIDTH 7 0
BBX 6 6 0 0
BITMAP
10
7C
94
94
7C
10
ENDCHAR
STARTCHAR Chi
ENCODING 935
SWIDTH 586 0
DWIDTH 5 0
BBX 5 6 0 0
BITMAP
98
50
20
20
50
98
ENDCHAR
STARTCHAR Psi
ENCODING 936
SWIDTH 821 0
DWIDTH 7 0
BBX 5 6 1 0
BITMAP
A8
A8
A8
A8
70
20
ENDCHAR
STARTCHAR uni03A9
ENCODING 937
SWIDTH 717 0
DWIDTH 6 0
BBX 6 6 0 0
BITMAP
70
88
84
84
48
DC
ENDCHAR
STARTCHAR Iotadieresis
ENCODING 938
SWIDTH 339 0
DWIDTH 3 0
BBX 2 7 0 0
BITMAP
C0
C0
40
40
40
40
C0
ENDCHAR
STARTCHAR Upsilondieresis
ENCODING 939
SWIDTH 566 0
DWIDTH 5 0
BBX 5 7 0 0
BITMAP
50
88
50
60
20
20
20
ENDCHAR
STARTCHAR alphatonos
ENCODING 940
SWIDTH 623 0
DWIDTH 5 0
BBX 5 6 0 0
BITMAP
20
20
50
90
90
68
ENDCHAR
STARTCHAR epsilontonos
ENCODING 941
SWIDTH 470 0
DWIDTH 4 0
BBX 4 6 0 0
BITMAP
20
20
D0
60
80
60
ENDCHAR
STARTCHAR etatonos
ENCODING 942
SWIDTH 608 0
DWIDTH 5 0
BBX 3 8 1 -2
BITMAP
40
40
A0
A0
A0
A0
20
20
ENDCHAR
STARTCHAR iotatonos
ENCODING 943
SWIDTH 332 0
DWIDTH 3 0
BBX 1 6 1 0
BITMAP
80
00
80
80
80
80
ENDCHAR
STARTCHAR upsilondieresistonos
ENCODING 944
SWIDTH 598 0
DWIDTH 5 0
BBX 3 6 1 0
BITMAP
E0
00
A0
A0
A0
E0
ENDCHAR
STARTCHAR alpha
ENCODING 945
SWIDTH 623 0
DWIDTH 5 0
BBX 5 4 0 0
BITMAP
70
90
90
68
ENDCHAR
STARTCHAR beta
ENCODING 946
SWIDTH 613 0
DWIDTH 5 0
BBX 3 8 1 -2
BITMAP
E0
A0
E0
A0
A0
E0
80
80
ENDCHAR
STARTCHAR gamma
ENCODING 947
SWIDTH 516 0
DWIDTH 4 0
BBX 4 6 0 -2
BITMAP
90
90
60
60
40
40
ENDCHAR
STARTCHAR delta
ENCODING 948
SWIDTH 588 0
DWIDTH 5 0
BBX 4 6 0 0
BITMAP
70
40
60
90
90
70
ENDCHAR
STARTCHAR epsilon
ENCODING 949
SWIDTH 470 0
DWIDTH 4 0
BBX 4 4 0 0
BITMAP
F0
60
80
60
ENDCHAR
STARTCHAR zeta
ENCODING 950
SWIDTH 460 0
DWIDTH 4 0
BBX 4 8 0 -2
BITMAP
70
20
40
40
80
60
10
20
ENDCHAR
STARTCHAR eta
ENCODING 951
SWIDTH 608 0
DWIDTH 5 0
BBX 3 6 1 -2
BITMAP
E0
A0
A0
A0
20
20
ENDCHAR
STARTCHAR theta
ENCODING 952
SWIDTH 594 0
DWIDTH 5 0
BBX 4 6 0 0
BITMAP
70
90
F0
90
90
70
ENDCHAR
STARTCHAR iota
ENCODING 953
SWIDTH 332 0
DWIDTH 3 0
BBX 1 4 1 0
BITMAP
80
80
80
80
ENDCHAR
STARTCHAR kappa
ENCODING 954
SWIDTH 534 0
DWIDTH 4 0
BBX 3 4 1 0
BITMAP
E0
C0
C0
A0
ENDCHAR
STARTCHAR lambda
ENCODING 955
SWIDTH 519 0
DWIDTH 4 0
BBX 4 6 0 0
BITMAP
C0
40
60
60
90
90
ENDCHAR
STARTCHAR uni03BC
ENCODING 956
SWIDTH 626 0
DWIDTH 5 0
BBX 4 6 1 -2
BITMAP
A0
A0
A0
D0
80
80
ENDCHAR
STARTCHAR nu
ENCODING 957
SWIDTH 516 0
DWIDTH 4 0
BBX 4 4 0 0
BITMAP
90
90
60
60
ENDCHAR
STARTCHAR xi
ENCODING 958
SWIDTH 490 0
DWIDTH 4 0
BBX 4 8 0 -2
BITMAP
70
40
70
40
80
60
10
20
ENDCHAR
STARTCHAR omicron
ENCODING 959
SWIDTH 605 0
DWIDTH 5 0
BBX 4 4 0 0
BITMAP
70
90
90
70
ENDCHAR
STARTCHAR pi
ENCODING 960
SWIDTH 653 0
DWIDTH 5 0
BBX 5 4 0 0
BITMAP
F8
50
50
48
ENDCHAR
STARTCHAR rho
ENCODING 961
SWIDTH 600 0
DWIDTH 5 0
BBX 3 6 1 -2
BITMAP
E0
A0
A0
E0
80
80
ENDCHAR
STARTCHAR uni03C2
ENCODING 962
SWIDTH 487 0
DWIDTH 4 0
BBX 4 6 0 -2
BITMAP
70
80
80
60
10
20
ENDCHAR
STARTCHAR sigma
ENCODING 963
SWIDTH 614 0
DWIDTH 5 0
BBX 5 4 0 0
BITMAP
78
90
90
70
ENDCHAR
STARTCHAR tau
ENCODING 964
SWIDTH 490 0
DWIDTH 4 0
BBX 4 4 0 0
BITMAP
F0
40
40
60
ENDCHAR
STARTCHAR upsilon
ENCODING 965
SWIDTH 598 0
DWIDTH 5 0
BBX 3 4 1 0
BITMAP
A0
A0
A0
E0
ENDCHAR
STARTCHAR phi
ENCODING 966
SWIDTH 725 0
DWIDTH 6 0
BBX 5 8 0 -2
BITMAP
20
30
68
A8
A8
78
20
20
ENDCHAR
STARTCHAR chi
ENCODING 967
SWIDTH 594 0
DWIDTH 5 0
BBX 5 6 0 -2
BITMAP
D8
50
20
20
50
98
ENDCHAR
STARTCHAR psi
ENCODING 968
SWIDTH 749 0
DWIDTH 6 0
BBX 4 8 1 -2
BITMAP
40
40
D0
D0
D0
F0
40
40
ENDCHAR
STARTCHAR omega
ENCODING 969
SWIDTH 799 0
DWIDTH 6 0
BBX 5 4 1 0
BITMAP
98
A8
A8
F0
ENDCHAR
STARTCHAR iotadieresis
ENCODING 970
SWIDTH 332 0
DWIDTH 3 0
BBX 2 6 0 0
BITMAP
C0
00
40
40
40
40
ENDCHAR
STARTCHAR upsilondieresis
ENCODING 971
SWIDTH 598 0
DWIDTH 5 0
BBX 3 6 1 0
BITMAP
C0
00
A0
A0
A0
E0
ENDCHAR
STARTCHAR omicrontonos
ENCODING 972
SWIDTH 605 0
DWIDTH 5 0
BBX 4 6 0 0
BITMAP
20
20
50
90
90
70
ENDCHAR
STARTCHAR upsilontonos
ENCODING 973
SWIDTH 598 0
DWIDTH 5 0
BBX 3 6 1 0
BITMAP
40
00
A0
A0
A0
E0
ENDCHAR
STARTCHAR omegatonos
ENCODING 974
SWIDTH 799 0
DWIDTH 6 0
BBX 5 6 1 0
BITMAP
20
10
88
A8
A8
F0
ENDCHAR
STARTCHAR uni03CF
ENCODING 975
SWIDTH 619 0
DWIDTH 5 0
BBX 4 8 1 -2
BITMAP
90
A0
C0
C0
A0
90
10
E0
ENDCHAR
STARTCHAR uni03D0
ENCODING 976
SWIDTH 641 0
DWIDTH 5 0
BBX 4 6 1 0
BITMAP
E0
E0
E0
90
90
E0
ENDCHAR
STARTCHAR uni03D1
ENCODING 977
SWIDTH 623 0
DWIDTH 5 0
BBX 5 6 0 0
BITMAP
70
50
B8
50
50
70
ENDCHAR
STARTCHAR uni03D2
ENCODING 978
SWIDTH 592 0
DWIDTH 5 0
BBX 5 6 0 0
BITMAP
88
50
60
20
20
20
ENDCHAR
STARTCHAR uni03D3
ENCODING 979
SWIDTH 802 0
DWIDTH 6 0
BBX 6 6 0 0
BITMAP
A4
24
18
10
10
10
ENDCHAR
STARTCHAR uni03D4
ENCODING 980
SWIDTH 592 0
DWIDTH 5 0
BBX 5 7 0 0
BITMAP
50
88
50
60
20
20
20
ENDCHAR
STARTCHAR uni03D5
ENCODING 981
SWIDTH 725 0
DWIDTH 6 0
BBX 5 8 0 -2
BITMAP
20
30
68
A8
A8
78
20
20
ENDCHAR
STARTCHAR uni03D6
ENCODING 982
SWIDTH 858 0
DWIDTH 7 0
BBX 7 4 0 0
BITMAP
FE
54
54
6C
ENDCHAR
STARTCHAR uni03D7
ENCODING 983
SWIDTH 534 0
DWIDTH 4 0
BBX 3 6 1 -2
BITMAP
E0
C0
C0
A0
20
C0
ENDCHAR
STARTCHAR uni03D8
ENCODING 984
SWIDTH 763 0
DWIDTH 6 0
BBX 6 6 0 0
BITMAP
30
48
84
44
78
10
ENDCHAR
STARTCHAR uni03D9
ENCODING 985
SWIDTH 605 0
DWIDTH 5 0
BBX 4 6 0 -2
BITMAP
70
90
90
70
20
20
ENDCHAR
STARTCHAR uni03DA
ENCODING 986
SWIDTH 632 0
DWIDTH 5 0
BBX 5 6 0 0
BITMAP
38
40
80
40
20
10
ENDCHAR
STARTCHAR uni03DB
ENCODING 987
SWIDTH 480 0
DWIDTH 4 0
BBX 4 6 0 -2
BITMAP
70
80
80
60
10
60
ENDCHAR
STARTCHAR uni03DC
ENCODING 988
SWIDTH 509 0
DWIDTH 4 0
BBX 3 6 1 0
BITMAP
E0
80
80
E0
A0
80
ENDCHAR
STARTCHAR uni03DD
ENCODING 989
SWIDTH 517 0
DWIDTH 4 0
BBX 3 6 1 -2
BITMAP
E0
80
E0
A0
80
80
ENDCHAR
STARTCHAR uni03DE
ENCODING 990
SWIDTH 495 0
DWIDTH 4 0
BBX 4 6 0 0
BITMAP
80
40
80
70
20
30
ENDCHAR
STARTCHAR uni03DF
ENCODING 991
SWIDTH 556 0
DWIDTH 4 0
BBX 4 8 0 -2
BITMAP
40
40
40
F0
10
20
20
30
ENDCHAR
STARTCHAR uni03E0
ENCODING 992
SWIDTH 593 0
DWIDTH 5 0
BBX 4 6 0 0
BITMAP
E0
30
50
30
10
10
ENDCHAR
STARTCHAR uni03E1
ENCODING 993
SWIDTH 521 0
DWIDTH 4 0
BBX 5 8 -1 -2
BITMAP
C0
20
70
08
38
08
08
10
ENDCHAR
STARTCHAR uni03F0
ENCODING 1008
SWIDTH 681 0
DWIDTH 5 0
BBX 5 4 0 0
BITMAP
C8
50
70
48
ENDCHAR
STARTCHAR uni03F1
ENCODING 1009
SWIDTH 600 0
DWIDTH 5 0
BBX 3 6 1 -2
BITMAP
E0
A0
A0
E0
80
60
ENDCHAR
STARTCHAR uni03F2
ENCODING 1010
SWIDTH 480 0
DWIDTH 4 0
BBX 4 4 0 0
BITMAP
70
80
80
70
ENDCHAR
STARTCHAR uni03F3
ENCODING 1011
SWIDTH 258 0
DWIDTH 2 0
BBX 1 8 0 -2
BITMAP
80
00
80
80
80
80
80
80
ENDCHAR
STARTCHAR uni03F4
ENCODING 1012
SWIDTH 782 0
DWIDTH 6 0
BBX 6 6 0 0
BITMAP
30
48
84
FC
44
78
ENDCHAR
STARTCHAR uni03F5
ENCODING 1013
SWIDTH 495 0
DWIDTH 4 0
BBX 4 4 0 0
BITMAP
70
E0
80
70
ENDCHAR
STARTCHAR uni03F6
ENCODING 1014
SWIDTH 494 0
DWIDTH 4 0
BBX 4 4 0 0
BITMAP
E0
70
10
E0
ENDCHAR
STARTCHAR uni03F7
ENCODING 1015
SWIDTH 605 0
DWIDTH 5 0
BBX 3 6 1 0
BITMAP
80
E0
A0
A0
E0
80
ENDCHAR
STARTCHAR uni03F8
ENCODING 1016
SWIDTH 615 0
DWIDTH 5 0
BBX 3 8 1 -2
BITMAP
80
C0
A0
A0
A0
E0
80
80
ENDCHAR
STARTCHAR uni03F9
ENCODING 1017
SWIDTH 632 0
DWIDTH 5 0
BBX 5 6 0 0
BITMAP
38
40
80
80
40
78
ENDCHAR
STARTCHAR uni03FA
ENCODING 1018
SWIDTH 907 0
DWIDTH 7 0
BBX 5 6 1 0
BITMAP
88
88
D8
A8
88
88
ENDCHAR
STARTCHAR uni03FB
ENCODING 1019
SWIDTH 726 0
DWIDTH 6 0
BBX 4 6 1 -2
BITMAP
90
F0
90
90
80
80
ENDCHAR
STARTCHAR uni03FC
ENCODING 1020
SWIDTH 605 0
DWIDTH 5 0
BBX 4 6 0 -2
BITMAP
70
90
90
70
E0
80
ENDCHAR
STARTCHAR uni03FD
ENCODING 1021
SWIDTH 632 0
DWIDTH 5 0
BBX 5 6 0 0
BITMAP
E0
10
08
08
10
F0
ENDCHAR
STARTCHAR uni03FE
ENCODING 1022
SWIDTH 632 0
DWIDTH 5 0
BBX 5 6 0 0
BITMAP
38
40
80
90
40
78
ENDCHAR
STARTCHAR uni03FF
ENCODING 1023
SWIDTH 632 0
DWIDTH 5 0
BBX 5 6 0 0
BITMAP
E0
10
08
48
10
F0
ENDCHAR
STARTCHAR uni0400
ENCODING 1024
SWIDTH 556 0
DWIDTH 4 0
BBX 3 7 1 0
BITMAP
C0
E0
80
80
E0
80
E0
ENDCHAR
STARTCHAR uni0401
ENCODING 1025
SWIDTH 556 0
DWIDTH 4 0
BBX 3 7 1 0
BITMAP
A0
E0
80
80
E0
80
E0
ENDCHAR
STARTCHAR uni0402
ENCODING 1026
SWIDTH 741 0
DWIDTH 6 0
BBX 5 6 0 0
BITMAP
F0
40
70
48
48
58
ENDCHAR
STARTCHAR uni0403
ENCODING 1027
SWIDTH 524 0
DWIDTH 4 0
BBX 3 7 1 0
BITMAP
60
E0
80
80
80
80
80
ENDCHAR
STARTCHAR uni0404
ENCODING 1028
SWIDTH 643 0
DWIDTH 5 0
BBX 5 6 0 0
BITMAP
38
40
80
F0
40
78
ENDCHAR
STARTCHAR uni0405
ENCODING 1029
SWIDTH 549 0
DWIDTH 4 0
BBX 4 6 0 0
BITMAP
70
80
40
30
10
F0
ENDCHAR
STARTCHAR uni0406
ENCODING 1030
SWIDTH 339 0
DWIDTH 3 0
BBX 2 6 0 0
BITMAP
C0
40
40
40
40
C0
ENDCHAR
STARTCHAR uni0407
ENCODING 1031
SWIDTH 339 0
DWIDTH 3 0
BBX 2 7 0 0
BITMAP
C0
C0
40
40
40
40
C0
ENDCHAR
STARTCHAR uni0408
ENCODING 1032
SWIDTH 273 0
DWIDTH 2 0
BBX 2 8 -1 -2
BITMAP
40
40
40
40
40
40
40
80
ENDCHAR
STARTCHAR uni0409
ENCODING 1033
SWIDTH 936 0
DWIDTH 7 0
BBX 7 6 0 0
BITMAP
30
48
48
4E
4A
CE
ENDCHAR
STARTCHAR uni040A
ENCODING 1034
SWIDTH 958 0
DWIDTH 8 0
BBX 6 6 1 0
BITMAP
90
90
90
FC
94
9C
ENDCHAR
STARTCHAR uni040B
ENCODING 1035
SWIDTH 741 0
DWIDTH 6 0
BBX 5 6 0 0
BITMAP
F0
40
70
48
48
48
ENDCHAR
STARTCHAR uni040C
ENCODING 1036
SWIDTH 618 0
DWIDTH 5 0
BBX 4 7 1 0
BITMAP
60
90
A0
C0
C0
A0
90
ENDCHAR
STARTCHAR uni040D
ENCODING 1037
SWIDTH 768 0
DWIDTH 6 0
BBX 4 7 1 0
BITMAP
60
90
90
B0
D0
D0
90
ENDCHAR
STARTCHAR uni040E
ENCODING 1038
SWIDTH 624 0
DWIDTH 5 0
BBX 5 7 0 0
BITMAP
70
88
48
50
30
20
E0
ENDCHAR
STARTCHAR uni040F
ENCODING 1039
SWIDTH 731 0
DWIDTH 6 0
BBX 4 8 1 -2
BITMAP
90
90
90
90
90
F0
40
40
ENDCHAR
STARTCHAR uni0410
ENCODING 1040
SWIDTH 639 0
DWIDTH 5 0
BBX 5 6 0 0
BITMAP
20
20
50
70
88
88
ENDCHAR
STARTCHAR uni0411
ENCODING 1041
SWIDTH 615 0
DWIDTH 5 0
BBX 4 6 1 0
BITMAP
E0
80
80
E0
90
E0
ENDCHAR
STARTCHAR uni0412
ENCODING 1042
SWIDTH 650 0
DWIDTH 5 0
BBX 4 6 1 0
BITMAP
E0
90
A0
D0
90
E0
ENDCHAR
STARTCHAR uni0413
ENCODING 1043
SWIDTH 524 0
DWIDTH 4 0
BBX 3 6 1 0
BITMAP
E0
80
80
80
80
80
ENDCHAR
STARTCHAR uni0414
ENCODING 1044
SWIDTH 691 0
DWIDTH 6 0
BBX 5 8 0 -2
BITMAP
38
28
48
48
48
F8
88
88
ENDCHAR
STARTCHAR uni0415
ENCODING 1045
SWIDTH 556 0
DWIDTH 4 0
BBX 3 6 1 0
BITMAP
E0
80
80
E0
80
E0
ENDCHAR
STARTCHAR uni0416
ENCODING 1046
SWIDTH 854 0
DWIDTH 7 0
BBX 7 6 0 0
BITMAP
92
54
38
38
54
92
ENDCHAR
STARTCHAR uni0417
ENCODING 1047
SWIDTH 588 0
DWIDTH 5 0
BBX 4 6 0 0
BITMAP
F0
10
10
70
10
F0
ENDCHAR
STARTCHAR uni0418
ENCODING 1048
SWIDTH 768 0
DWIDTH 6 0
BBX 4 6 1 0
BITMAP
90
90
B0
D0
D0
90
ENDCHAR
STARTCHAR uni0419
ENCODING 1049
SWIDTH 768 0
DWIDTH 6 0
BBX 4 7 1 0
BITMAP
70
90
90
B0
D0
D0
90
ENDCHAR
STARTCHAR uni041A
ENCODING 1050
SWIDTH 618 0
DWIDTH 5 0
BBX 4 6 1 0
BITMAP
90
A0
C0
C0
A0
90
ENDCHAR
STARTCHAR uni041B
ENCODING 1051
SWIDTH 708 0
DWIDTH 6 0
BBX 5 6 0 0
BITMAP
38
48
48
48
48
C8
ENDCHAR
STARTCHAR uni041C
ENCODING 1052
SWIDTH 907 0
DWIDTH 7 0
BBX 5 6 1 0
BITMAP
88
88
D8
D8
A8
A8
ENDCHAR
STARTCHAR uni041D
ENCODING 1053
SWIDTH 741 0
DWIDTH 6 0
BBX 4 6 1 0
BITMAP
90
90
90
F0
90
90
ENDCHAR
STARTCHAR uni041E
ENCODING 1054
SWIDTH 781 0
DWIDTH 6 0
BBX 6 6 0 0
BITMAP
30
48
84
84
44
78
ENDCHAR
STARTCHAR uni041F
ENCODING 1055
SWIDTH 731 0
DWIDTH 6 0
BBX 4 6 1 0
BITMAP
F0
90
90
90
90
90
ENDCHAR
STARTCHAR uni0420
ENCODING 1056
SWIDTH 605 0
DWIDTH 5 0
BBX 3 6 1 0
BITMAP
E0
A0
A0
E0
80
80
ENDCHAR
STARTCHAR uni0421
ENCODING 1057
SWIDTH 632 0
DWIDTH 5 0
BBX 5 6 0 0
BITMAP
38
40
80
80
40
78
ENDCHAR
STARTCHAR uni0422
ENCODING 1058
SWIDTH 556 0
DWIDTH 4 0
BBX 4 6 0 0
BITMAP
F0
20
20
20
20
20
ENDCHAR
STARTCHAR uni0423
ENCODING 1059
SWIDTH 624 0
DWIDTH 5 0
BBX 5 6 0 0
BITMAP
88
48
50
30
20
E0
ENDCHAR
STARTCHAR uni0424
ENCODING 1060
SWIDTH 804 0
DWIDTH 6 0
BBX 6 6 0 0
BITMAP
10
78
94
94
78
10
ENDCHAR
STARTCHAR uni0425
ENCODING 1061
SWIDTH 586 0
DWIDTH 5 0
BBX 5 6 0 0
BITMAP
98
50
20
20
50
98
ENDCHAR
STARTCHAR uni0426
ENCODING 1062
SWIDTH 741 0
DWIDTH 6 0
BBX 5 8 1 -2
BITMAP
90
90
90
90
90
F8
08
08
ENDCHAR
STARTCHAR uni0427
ENCODING 1063
SWIDTH 698 0
DWIDTH 6 0
BBX 4 6 1 0
BITMAP
90
90
90
F0
10
10
ENDCHAR
STARTCHAR uni0428
ENCODING 1064
SWIDTH 1037 0
DWIDTH 8 0
BBX 7 6 1 0
BITMAP
92
92
92
92
92
FE
ENDCHAR
STARTCHAR uni0429
ENCODING 1065
SWIDTH 1041 0
DWIDTH 8 0
BBX 7 8 1 -2
BITMAP
92
92
92
92
92
FE
02
02
ENDCHAR
STARTCHAR uni042A
ENCODING 1066
SWIDTH 692 0
DWIDTH 6 0
BBX 5 6 0 0
BITMAP
C0
40
40
78
48
78
ENDCHAR
STARTCHAR uni042B
ENCODING 1067
SWIDTH 858 0
DWIDTH 7 0
BBX 5 6 1 0
BITMAP
88
88
88
E8
98
E8
ENDCHAR
STARTCHAR uni042C
ENCODING 1068
SWIDTH 642 0
DWIDTH 5 0
BBX 4 6 1 0
BITMAP
80
80
80
F0
90
E0
ENDCHAR
STARTCHAR uni042D
ENCODING 1069
SWIDTH 633 0
DWIDTH 5 0
BBX 5 6 0 0
BITMAP
E0
10
08
78
10
F0
ENDCHAR
STARTCHAR uni042E
ENCODING 1070
SWIDTH 1052 0
DWIDTH 8 0
BBX 7 6 1 0
BITMAP
9C
A2
A2
E2
A2
9C
ENDCHAR
STARTCHAR uni042F
ENCODING 1071
SWIDTH 639 0
DWIDTH 5 0
BBX 4 6 0 0
BITMAP
70
50
50
30
50
90
ENDCHAR
STARTCHAR uni0430
ENCODING 1072
SWIDTH 561 0
DWIDTH 4 0
BBX 4 4 0 0
BITMAP
70
70
90
70
ENDCHAR
STARTCHAR uni0431
ENCODING 1073
SWIDTH 599 0
DWIDTH 5 0
BBX 4 6 0 0
BITMAP
30
40
70
90
90
70
ENDCHAR
STARTCHAR uni0432
ENCODING 1074
SWIDTH 576 0
DWIDTH 5 0
BBX 3 4 1 0
BITMAP
E0
E0
A0
E0
ENDCHAR
STARTCHAR uni0433
ENCODING 1075
SWIDTH 433 0
DWIDTH 3 0
BBX 2 4 1 0
BITMAP
C0
80
80
80
ENDCHAR
STARTCHAR uni0434
ENCODING 1076
SWIDTH 581 0
DWIDTH 5 0
BBX 4 5 0 -1
BITMAP
70
50
50
F0
90
ENDCHAR
STARTCHAR uni0435
ENCODING 1077
SWIDTH 564 0
DWIDTH 5 0
BBX 4 4 0 0
BITMAP
70
F0
80
70
ENDCHAR
STARTCHAR uni0436
ENCODING 1078
SWIDTH 750 0
DWIDTH 6 0
BBX 6 4 0 0
BITMAP
EC
30
68
A4
ENDCHAR
STARTCHAR uni0437
ENCODING 1079
SWIDTH 490 0
DWIDTH 4 0
BBX 4 4 0 0
BITMAP
F0
60
10
E0
ENDCHAR
STARTCHAR uni0438
ENCODING 1080
SWIDTH 643 0
DWIDTH 5 0
BBX 3 4 1 0
BITMAP
A0
E0
E0
A0
ENDCHAR
STARTCHAR uni0439
ENCODING 1081
SWIDTH 643 0
DWIDTH 5 0
BBX 3 6 1 0
BITMAP
E0
00
A0
E0
E0
A0
ENDCHAR
STARTCHAR uni043A
ENCODING 1082
SWIDTH 529 0
DWIDTH 4 0
BBX 3 4 1 0
BITMAP
E0
80
C0
A0
ENDCHAR
STARTCHAR uni043B
ENCODING 1083
SWIDTH 578 0
DWIDTH 5 0
BBX 4 4 0 0
BITMAP
70
50
50
90
ENDCHAR
STARTCHAR uni043C
ENCODING 1084
SWIDTH 746 0
DWIDTH 6 0
BBX 4 4 1 0
BITMAP
90
B0
F0
D0
ENDCHAR
STARTCHAR uni043D
ENCODING 1085
SWIDTH 637 0
DWIDTH 5 0
BBX 3 4 1 0
BITMAP
A0
E0
A0
A0
ENDCHAR
STARTCHAR uni043E
ENCODING 1086
SWIDTH 605 0
DWIDTH 5 0
BBX 4 4 0 0
BITMAP
70
90
90
70
ENDCHAR
STARTCHAR uni043F
ENCODING 1087
SWIDTH 624 0
DWIDTH 5 0
BBX 3 4 1 0
BITMAP
E0
A0
A0
A0
ENDCHAR
STARTCHAR uni0440
ENCODING 1088
SWIDTH 615 0
DWIDTH 5 0
BBX 3 6 1 -2
BITMAP
E0
A0
A0
E0
80
80
ENDCHAR
STARTCHAR uni0441
ENCODING 1089
SWIDTH 480 0
DWIDTH 4 0
BBX 4 4 0 0
BITMAP
70
80
80
70
ENDCHAR
STARTCHAR uni0442
ENCODING 1090
SWIDTH 476 0
DWIDTH 4 0
BBX 4 4 0 0
BITMAP
F0
40
40
40
ENDCHAR
STARTCHAR uni0443
ENCODING 1091
SWIDTH 510 0
DWIDTH 4 0
BBX 4 6 0 -2
BITMAP
90
50
60
20
40
C0
ENDCHAR
STARTCHAR uni0444
ENCODING 1092
SWIDTH 725 0
DWIDTH 6 0
BBX 5 8 0 -2
BITMAP
20
30
68
A8
A8
78
20
20
ENDCHAR
STARTCHAR uni0445
ENCODING 1093
SWIDTH 529 0
DWIDTH 4 0
BBX 4 4 0 0
BITMAP
D0
60
60
90
ENDCHAR
STARTCHAR uni0446
ENCODING 1094
SWIDTH 632 0
DWIDTH 5 0
BBX 4 5 1 -1
BITMAP
A0
A0
A0
F0
10
ENDCHAR
STARTCHAR uni0447
ENCODING 1095
SWIDTH 613 0
DWIDTH 5 0
BBX 3 4 1 0
BITMAP
A0
A0
E0
20
ENDCHAR
STARTCHAR uni0448
ENCODING 1096
SWIDTH 898 0
DWIDTH 7 0
BBX 6 4 1 0
BITMAP
A4
A4
A4
FC
ENDCHAR
STARTCHAR uni0449
ENCODING 1097
SWIDTH 906 0
DWIDTH 7 0
BBX 6 5 1 -1
BITMAP
A4
A4
A4
FC
04
ENDCHAR
STARTCHAR uni044A
ENCODING 1098
SWIDTH 696 0
DWIDTH 6 0
BBX 5 4 0 0
BITMAP
C0
30
48
38
ENDCHAR
STARTCHAR uni044B
ENCODING 1099
SWIDTH 778 0
DWIDTH 6 0
BBX 5 4 1 0
BITMAP
88
C8
A8
E8
ENDCHAR
STARTCHAR uni044C
ENCODING 1100
SWIDTH 594 0
DWIDTH 5 0
BBX 3 4 1 0
BITMAP
80
C0
A0
E0
ENDCHAR
STARTCHAR uni044D
ENCODING 1101
SWIDTH 494 0
DWIDTH 4 0
BBX 4 4 0 0
BITMAP
E0
70
10
E0
ENDCHAR
STARTCHAR uni044E
ENCODING 1102
SWIDTH 836 0
DWIDTH 7 0
BBX 5 4 1 0
BITMAP
B8
C8
C8
B8
ENDCHAR
STARTCHAR uni044F
ENCODING 1103
SWIDTH 559 0
DWIDTH 4 0
BBX 4 4 0 0
BITMAP
F0
90
70
90
ENDCHAR
STARTCHAR uni0450
ENCODING 1104
SWIDTH 564 0
DWIDTH 5 0
BBX 4 6 0 0
BITMAP
60
20
50
F0
80
70
ENDCHAR
STARTCHAR uni0451
ENCODING 1105
SWIDTH 564 0
DWIDTH 5 0
BBX 4 6 0 0
BITMAP
50
20
50
F0
80
70
ENDCHAR
STARTCHAR uni0452
ENCODING 1106
SWIDTH 618 0
DWIDTH 5 0
BBX 4 8 0 -2
BITMAP
E0
40
70
50
50
50
10
10
ENDCHAR
STARTCHAR uni0453
ENCODING 1107
SWIDTH 433 0
DWIDTH 3 0
BBX 2 6 1 0
BITMAP
40
80
C0
80
80
80
ENDCHAR
STARTCHAR uni0454
ENCODING 1108
SWIDTH 495 0
DWIDTH 4 0
BBX 4 4 0 0
BITMAP
70
E0
80
70
ENDCHAR
STARTCHAR uni0455
ENCODING 1109
SWIDTH 479 0
DWIDTH 4 0
BBX 3 4 0 0
BITMAP
E0
40
20
E0
ENDCHAR
STARTCHAR uni0456
ENCODING 1110
SWIDTH 258 0
DWIDTH 2 0
BBX 1 6 1 0
BITMAP
80
00
80
80
80
80
ENDCHAR
STARTCHAR uni0457
ENCODING 1111
SWIDTH 258 0
DWIDTH 2 0
BBX 2 6 0 0
BITMAP
C0
00
40
40
40
40
ENDCHAR
STARTCHAR uni0458
ENCODING 1112
SWIDTH 258 0
DWIDTH 2 0
BBX 1 8 0 -2
BITMAP
80
00
80
80
80
80
80
80
ENDCHAR
STARTCHAR uni0459
ENCODING 1113
SWIDTH 842 0
DWIDTH 7 0
BBX 6 4 0 0
BITMAP
70
58
54
9C
ENDCHAR
STARTCHAR uni045A
ENCODING 1114
SWIDTH 886 0
DWIDTH 7 0
BBX 6 4 1 0
BITMAP
A0
F8
A4
B8
ENDCHAR
STARTCHAR uni045B
ENCODING 1115
SWIDTH 618 0
DWIDTH 5 0
BBX 4 6 0 0
BITMAP
E0
40
70
50
50
50
ENDCHAR
STARTCHAR uni045C
ENCODING 1116
SWIDTH 529 0
DWIDTH 4 0
BBX 3 6 1 0
BITMAP
40
20
C0
80
C0
A0
ENDCHAR
STARTCHAR uni045D
ENCODING 1117
SWIDTH 643 0
DWIDTH 5 0
BBX 3 6 1 0
BITMAP
40
00
A0
E0
E0
A0
ENDCHAR
STARTCHAR uni045E
ENCODING 1118
SWIDTH 510 0
DWIDTH 4 0
BBX 4 8 0 -2
BITMAP
70
00
90
50
60
20
40
C0
ENDCHAR
STARTCHAR uni045F
ENCODING 1119
SWIDTH 626 0
DWIDTH 5 0
BBX 3 5 1 -1
BITMAP
A0
A0
A0
E0
40
ENDCHAR
STARTCHAR uni0460
ENCODING 1120
SWIDTH 919 0
DWIDTH 7 0
BBX 7 6 0 0
BITMAP
92
92
92
5A
6A
24
ENDCHAR
STARTCHAR uni0461
ENCODING 1121
SWIDTH 789 0
DWIDTH 6 0
BBX 6 4 0 0
BITMAP
94
94
74
48
ENDCHAR
STARTCHAR uni0462
ENCODING 1122
SWIDTH 675 0
DWIDTH 5 0
BBX 5 6 0 0
BITMAP
40
F0
40
78
48
78
ENDCHAR
STARTCHAR uni0463
ENCODING 1123
SWIDTH 634 0
DWIDTH 5 0
BBX 5 5 0 0
BITMAP
40
E0
70
48
70
ENDCHAR
STARTCHAR uni0464
ENCODING 1124
SWIDTH 922 0
DWIDTH 7 0
BBX 6 6 1 0
BITMAP
9C
A0
A0
F8
A0
9C
ENDCHAR
STARTCHAR uni0465
ENCODING 1125
SWIDTH 742 0
DWIDTH 6 0
BBX 5 4 1 0
BITMAP
B8
F0
C0
B8
ENDCHAR
STARTCHAR uni0466
ENCODING 1126
SWIDTH 683 0
DWIDTH 5 0
BBX 5 6 0 0
BITMAP
20
30
50
68
A8
A8
ENDCHAR
STARTCHAR uni0467
ENCODING 1127
SWIDTH 572 0
DWIDTH 5 0
BBX 5 4 0 0
BITMAP
20
50
70
B8
ENDCHAR
STARTCHAR uni0468
ENCODING 1128
SWIDTH 929 0
DWIDTH 7 0
BBX 6 6 1 0
BITMAP
90
98
A8
F4
D4
D4
ENDCHAR
STARTCHAR uni0469
ENCODING 1129
SWIDTH 780 0
DWIDTH 6 0
BBX 5 4 1 0
BITMAP
B0
F0
E8
E8
ENDCHAR
STARTCHAR uni046A
ENCODING 1130
SWIDTH 729 0
DWIDTH 6 0
BBX 6 6 0 0
BITMAP
78
48
30
68
A8
A4
ENDCHAR
STARTCHAR uni046B
ENCODING 1131
SWIDTH 640 0
DWIDTH 5 0
BBX 5 4 0 0
BITMAP
78
70
A8
A8
ENDCHAR
STARTCHAR uni046C
ENCODING 1132
SWIDTH 984 0
DWIDTH 8 0
BBX 7 6 1 0
BITMAP
BC
A4
98
EC
AA
CA
ENDCHAR
STARTCHAR uni046D
ENCODING 1133
SWIDTH 849 0
DWIDTH 7 0
BBX 6 4 1 0
BITMAP
F8
F0
D8
D4
ENDCHAR
STARTCHAR uni046E
ENCODING 1134
SWIDTH 587 0
DWIDTH 5 0
BBX 4 9 0 -2
BITMAP
50
E0
10
10
70
10
70
80
70
ENDCHAR
STARTCHAR uni046F
ENCODING 1135
SWIDTH 490 0
DWIDTH 4 0
BBX 4 7 0 -2
BITMAP
60
90
60
10
60
80
70
ENDCHAR
STARTCHAR uni0470
ENCODING 1136
SWIDTH 804 0
DWIDTH 6 0
BBX 5 6 1 0
BITMAP
A8
A8
A8
A8
70
20
ENDCHAR
STARTCHAR uni0471
ENCODING 1137
SWIDTH 761 0
DWIDTH 6 0
BBX 4 8 1 -2
BITMAP
40
40
D0
D0
D0
F0
40
40
ENDCHAR
STARTCHAR uni0472
ENCODING 1138
SWIDTH 782 0
DWIDTH 6 0
BBX 6 6 0 0
BITMAP
30
48
84
FC
44
78
ENDCHAR
STARTCHAR uni0473
ENCODING 1139
SWIDTH 605 0
DWIDTH 5 0
BBX 4 4 0 0
BITMAP
70
F0
90
70
ENDCHAR
STARTCHAR uni0474
ENCODING 1140
SWIDTH 635 0
DWIDTH 5 0
BBX 5 6 0 0
BITMAP
88
90
50
50
60
20
ENDCHAR
STARTCHAR uni0475
ENCODING 1141
SWIDTH 516 0
DWIDTH 4 0
BBX 4 4 0 0
BITMAP
90
60
60
60
ENDCHAR
STARTCHAR uni0476
ENCODING 1142
SWIDTH 635 0
DWIDTH 5 0
BBX 5 7 0 0
BITMAP
60
98
90
50
50
60
20
ENDCHAR
STARTCHAR uni0477
ENCODING 1143
SWIDTH 516 0
DWIDTH 4 0
BBX 4 6 0 0
BITMAP
E0
00
90
60
60
60
ENDCHAR
STARTCHAR uni0478
ENCODING 1144
SWIDTH 1220 0
DWIDTH 10 0
BBX 10 8 0 -2
BITMAP
3000
4800
8A40
8A80
4980
7900
0100
0200
ENDCHAR
STARTCHAR uni0479
ENCODING 1145
SWIDTH 1095 0
DWIDTH 9 0
BBX 9 6 0 -2
BITMAP
7480
8D00
9300
7200
0200
0400
ENDCHAR
STARTCHAR Omegaroundcy
ENCODING 1146
SWIDTH 821 0
DWIDTH 7 0
BBX 6 6 0 0
BITMAP
38
44
84
84
44
78
ENDCHAR
STARTCHAR omegaroundcy
ENCODING 1147
SWIDTH 659 0
DWIDTH 5 0
BBX 5 5 0 0
BITMAP
20
78
88
88
70
ENDCHAR
STARTCHAR Omegatitlocy
ENCODING 1148
SWIDTH 1026 0
DWIDTH 8 0
BBX 8 8 0 0
BITMAP
3C
08
36
41
81
89
49
7E
ENDCHAR
STARTCHAR omegatitlocy
ENCODING 1149
SWIDTH 904 0
DWIDTH 7 0
BBX 7 7 0 0
BITMAP
38
10
20
4E
82
92
7C
ENDCHAR
STARTCHAR Otcy
ENCODING 1150
SWIDTH 919 0
DWIDTH 7 0
BBX 7 7 0 0
BITMAP
38
92
92
92
5A
6A
24
ENDCHAR
STARTCHAR otcy
ENCODING 1151
SWIDTH 789 0
DWIDTH 6 0
BBX 6 6 0 0
BITMAP
78
00
94
94
74
48
ENDCHAR
STARTCHAR uni0480
ENCODING 1152
SWIDTH 643 0
DWIDTH 5 0
BBX 5 8 0 -2
BITMAP
38
40
80
80
40
70
10
10
ENDCHAR
STARTCHAR uni0481
ENCODING 1153
SWIDTH 492 0
DWIDTH 4 0
BBX 4 6 0 -2
BITMAP
70
80
80
60
20
20
ENDCHAR
STARTCHAR uni0482
ENCODING 1154
SWIDTH 609 0
DWIDTH 5 0
BBX 4 5 0 0
BITMAP
10
60
B0
60
40
ENDCHAR
STARTCHAR uni0483
ENCODING 1155
SWIDTH 0 0
DWIDTH 0 0
BBX 3 1 -4 5
BITMAP
E0
ENDCHAR
STARTCHAR uni0484
ENCODING 1156
SWIDTH 0 0
DWIDTH 0 0
BBX 3 1 -4 5
BITMAP
E0
ENDCHAR
STARTCHAR uni0485
ENCODING 1157
SWIDTH 0 0
DWIDTH 0 0
BBX 1 1 -3 5
BITMAP
80
ENDCHAR
STARTCHAR uni0486
ENCODING 1158
SWIDTH 0 0
DWIDTH 0 0
BBX 1 1 -3 5
BITMAP
80
ENDCHAR
STARTCHAR uni0487
ENCODING 1159
SWIDTH 0 0
DWIDTH 0 0
BBX 2 1 -1 6
BITMAP
C0
ENDCHAR
STARTCHAR uni0488
ENCODING 1160
SWIDTH 0 0
DWIDTH 0 0
BBX 10 8 -5 -2
BITMAP
0C00
6180
0000
4080
8040
2100
5280
0C00
ENDCHAR
STARTCHAR uni0489
ENCODING 1161
SWIDTH 0 0
DWIDTH 0 0
BBX 8 9 -4 -2
BITMAP
08
50
42
00
81
00
00
4A
10
ENDCHAR
STARTCHAR uni048A
ENCODING 1162
SWIDTH 785 0
DWIDTH 6 0
BBX 5 9 1 -2
BITMAP
70
90
90
A8
C8
C8
88
08
08
ENDCHAR
STARTCHAR uni048B
ENCODING 1163
SWIDTH 659 0
DWIDTH 5 0
BBX 4 7 1 -1
BITMAP
E0
00
A0
D0
90
90
10
ENDCHAR
STARTCHAR uni048C
ENCODING 1164
SWIDTH 615 0
DWIDTH 5 0
BBX 5 6 0 0
BITMAP
40
E0
40
70
48
70
ENDCHAR
STARTCHAR uni048D
ENCODING 1165
SWIDTH 594 0
DWIDTH 5 0
BBX 4 6 0 0
BITMAP
40
E0
40
60
50
70
ENDCHAR
STARTCHAR uni048E
ENCODING 1166
SWIDTH 613 0
DWIDTH 5 0
BBX 3 6 1 0
BITMAP
E0
A0
E0
E0
80
80
ENDCHAR
STARTCHAR uni048F
ENCODING 1167
SWIDTH 615 0
DWIDTH 5 0
BBX 3 6 1 -2
BITMAP
E0
A0
A0
E0
A0
80
ENDCHAR
STARTCHAR uni0490
ENCODING 1168
SWIDTH 532 0
DWIDTH 4 0
BBX 3 7 1 0
BITMAP
20
E0
80
80
80
80
80
ENDCHAR
STARTCHAR uni0491
ENCODING 1169
SWIDTH 436 0
DWIDTH 3 0
BBX 2 6 1 0
BITMAP
40
40
80
80
80
80
ENDCHAR
STARTCHAR uni0492
ENCODING 1170
SWIDTH 530 0
DWIDTH 4 0
BBX 4 6 0 0
BITMAP
70
40
40
E0
40
40
ENDCHAR
STARTCHAR uni0493
ENCODING 1171
SWIDTH 434 0
DWIDTH 3 0
BBX 3 4 0 0
BITMAP
60
E0
40
40
ENDCHAR
STARTCHAR uni0494
ENCODING 1172
SWIDTH 651 0
DWIDTH 5 0
BBX 4 8 1 -2
BITMAP
E0
80
80
E0
90
90
10
60
ENDCHAR
STARTCHAR uni0495
ENCODING 1173
SWIDTH 533 0
DWIDTH 4 0
BBX 3 6 1 -2
BITMAP
C0
C0
A0
A0
20
C0
ENDCHAR
STARTCHAR uni0496
ENCODING 1174
SWIDTH 904 0
DWIDTH 7 0
BBX 7 8 0 -2
BITMAP
92
54
38
38
54
92
02
02
ENDCHAR
STARTCHAR uni0497
ENCODING 1175
SWIDTH 796 0
DWIDTH 6 0
BBX 6 5 0 -1
BITMAP
EC
30
68
A4
04
ENDCHAR
STARTCHAR uni0498
ENCODING 1176
SWIDTH 588 0
DWIDTH 5 0
BBX 4 8 0 -2
BITMAP
F0
10
10
70
10
F0
20
20
ENDCHAR
STARTCHAR uni0499
ENCODING 1177
SWIDTH 490 0
DWIDTH 4 0
BBX 4 6 0 -2
BITMAP
F0
60
10
E0
20
40
ENDCHAR
STARTCHAR uni049A
ENCODING 1178
SWIDTH 670 0
DWIDTH 5 0
BBX 4 8 1 -2
BITMAP
90
A0
C0
C0
A0
90
10
10
ENDCHAR
STARTCHAR uni049B
ENCODING 1179
SWIDTH 557 0
DWIDTH 4 0
BBX 3 5 1 -1
BITMAP
E0
80
C0
A0
20
ENDCHAR
STARTCHAR uni049C
ENCODING 1180
SWIDTH 618 0
DWIDTH 5 0
BBX 4 6 1 0
BITMAP
90
A0
C0
C0
A0
90
ENDCHAR
STARTCHAR uni049D
ENCODING 1181
SWIDTH 529 0
DWIDTH 4 0
BBX 3 4 1 0
BITMAP
E0
80
C0
A0
ENDCHAR
STARTCHAR uni049E
ENCODING 1182
SWIDTH 618 0
DWIDTH 5 0
BBX 5 6 0 0
BITMAP
48
D0
60
60
50
48
ENDCHAR
STARTCHAR uni049F
ENCODING 1183
SWIDTH 534 0
DWIDTH 4 0
BBX 4 6 0 0
BITMAP
E0
50
60
40
60
50
ENDCHAR
STARTCHAR uni04A0
ENCODING 1184
SWIDTH 693 0
DWIDTH 6 0
BBX 6 6 0 0
BITMAP
C8
50
50
60
50
4C
ENDCHAR
STARTCHAR uni04A1
ENCODING 1185
SWIDTH 623 0
DWIDTH 5 0
BBX 5 4 0 0
BITMAP
D8
20
50
48
ENDCHAR
STARTCHAR uni04A2
ENCODING 1186
SWIDTH 755 0
DWIDTH 6 0
BBX 5 8 1 -2
BITMAP
90
90
90
F0
90
98
08
08
ENDCHAR
STARTCHAR uni04A3
ENCODING 1187
SWIDTH 657 0
DWIDTH 5 0
BBX 4 5 1 -1
BITMAP
90
F0
90
90
10
ENDCHAR
STARTCHAR uni04A4
ENCODING 1188
SWIDTH 815 0
DWIDTH 7 0
BBX 5 6 1 0
BITMAP
98
90
90
F0
90
90
ENDCHAR
STARTCHAR uni04A5
ENCODING 1189
SWIDTH 738 0
DWIDTH 6 0
BBX 5 4 1 0
BITMAP
98
F0
90
90
ENDCHAR
STARTCHAR uni04A6
ENCODING 1190
SWIDTH 1056 0
DWIDTH 8 0
BBX 7 8 1 -2
BITMAP
F0
90
90
9C
92
92
02
0C
ENDCHAR
STARTCHAR uni04A7
ENCODING 1191
SWIDTH 863 0
DWIDTH 7 0
BBX 6 6 1 -2
BITMAP
E0
B0
AC
A4
04
18
ENDCHAR
STARTCHAR uni04A8
ENCODING 1192
SWIDTH 779 0
DWIDTH 6 0
BBX 6 6 0 0
BITMAP
30
48
94
94
54
7C
ENDCHAR
STARTCHAR uni04A9
ENCODING 1193
SWIDTH 642 0
DWIDTH 5 0
BBX 5 4 0 0
BITMAP
70
A8
A8
78
ENDCHAR
STARTCHAR uni04AA
ENCODING 1194
SWIDTH 632 0
DWIDTH 5 0
BBX 5 8 0 -2
BITMAP
38
40
80
80
40
78
10
20
ENDCHAR
STARTCHAR uni04AB
ENCODING 1195
SWIDTH 480 0
DWIDTH 4 0
BBX 4 6 0 -2
BITMAP
70
80
80
70
20
20
ENDCHAR
STARTCHAR uni04AC
ENCODING 1196
SWIDTH 556 0
DWIDTH 4 0
BBX 4 8 0 -2
BITMAP
F0
20
20
20
20
20
20
20
ENDCHAR
STARTCHAR uni04AD
ENCODING 1197
SWIDTH 475 0
DWIDTH 4 0
BBX 4 5 0 -1
BITMAP
F0
40
40
20
20
ENDCHAR
STARTCHAR uni04AE
ENCODING 1198
SWIDTH 566 0
DWIDTH 5 0
BBX 5 6 0 0
BITMAP
88
50
60
20
20
20
ENDCHAR
STARTCHAR uni04AF
ENCODING 1199
SWIDTH 508 0
DWIDTH 4 0
BBX 4 6 0 -2
BITMAP
90
50
60
60
20
20
ENDCHAR
STARTCHAR uni04B0
ENCODING 1200
SWIDTH 566 0
DWIDTH 5 0
BBX 5 6 0 0
BITMAP
88
50
60
20
70
20
ENDCHAR
STARTCHAR uni04B1
ENCODING 1201
SWIDTH 508 0
DWIDTH 4 0
BBX 4 6 0 -2
BITMAP
90
50
60
60
60
20
ENDCHAR
STARTCHAR uni04B2
ENCODING 1202
SWIDTH 631 0
DWIDTH 5 0
BBX 5 8 0 -2
BITMAP
98
50
20
20
50
88
08
08
ENDCHAR
STARTCHAR uni04B3
ENCODING 1203
SWIDTH 552 0
DWIDTH 4 0
BBX 4 5 0 -1
BITMAP
D0
60
60
90
10
ENDCHAR
STARTCHAR uni04B4
ENCODING 1204
SWIDTH 862 0
DWIDTH 7 0
BBX 7 8 0 -2
BITMAP
F4
24
24
24
24
3E
02
02
ENDCHAR
STARTCHAR uni04B5
ENCODING 1205
SWIDTH 724 0
DWIDTH 6 0
BBX 6 5 0 -1
BITMAP
E8
48
48
7C
04
ENDCHAR
STARTCHAR uni04B6
ENCODING 1206
SWIDTH 703 0
DWIDTH 6 0
BBX 5 8 1 -2
BITMAP
90
90
90
F0
10
18
08
08
ENDCHAR
STARTCHAR uni04B7
ENCODING 1207
SWIDTH 621 0
DWIDTH 5 0
BBX 4 5 1 -1
BITMAP
A0
A0
E0
10
10
ENDCHAR
STARTCHAR uni04B8
ENCODING 1208
SWIDTH 698 0
DWIDTH 6 0
BBX 4 6 1 0
BITMAP
90
90
D0
F0
50
10
ENDCHAR
STARTCHAR uni04B9
ENCODING 1209
SWIDTH 606 0
DWIDTH 5 0
BBX 3 4 1 0
BITMAP
A0
E0
E0
60
ENDCHAR
STARTCHAR uni04BA
ENCODING 1210
SWIDTH 698 0
DWIDTH 6 0
BBX 4 6 1 0
BITMAP
80
80
E0
90
90
90
ENDCHAR
STARTCHAR uni04BB
ENCODING 1211
SWIDTH 618 0
DWIDTH 5 0
BBX 3 6 1 0
BITMAP
80
C0
A0
A0
A0
A0
ENDCHAR
STARTCHAR uni04BC
ENCODING 1212
SWIDTH 849 0
DWIDTH 7 0
BBX 6 6 0 0
BITMAP
18
24
C4
78
20
3C
ENDCHAR
STARTCHAR uni04BD
ENCODING 1213
SWIDTH 665 0
DWIDTH 5 0
BBX 5 4 0 0
BITMAP
78
F8
40
38
ENDCHAR
STARTCHAR uni04BE
ENCODING 1214
SWIDTH 849 0
DWIDTH 7 0
BBX 6 8 0 -2
BITMAP
18
24
C4
78
20
3C
10
10
ENDCHAR
STARTCHAR uni04BF
ENCODING 1215
SWIDTH 665 0
DWIDTH 5 0
BBX 5 5 0 -1
BITMAP
78
F8
40
38
10
ENDCHAR
STARTCHAR uni04C0
ENCODING 1216
SWIDTH 339 0
DWIDTH 3 0
BBX 2 6 0 0
BITMAP
C0
40
40
40
40
C0
ENDCHAR
STARTCHAR uni04C1
ENCODING 1217
SWIDTH 854 0
DWIDTH 7 0
BBX 7 7 0 0
BITMAP
38
92
54
38
38
54
92
ENDCHAR
STARTCHAR uni04C2
ENCODING 1218
SWIDTH 750 0
DWIDTH 6 0
BBX 6 6 0 0
BITMAP
78
84
68
30
68
A4
ENDCHAR
STARTCHAR uni04C3
ENCODING 1219
SWIDTH 696 0
DWIDTH 6 0
BBX 4 8 1 -2
BITMAP
90
A0
C0
E0
90
90
10
60
ENDCHAR
STARTCHAR uni04C4
ENCODING 1220
SWIDTH 560 0
DWIDTH 4 0
BBX 3 6 1 -2
BITMAP
E0
C0
A0
A0
20
60
ENDCHAR
STARTCHAR uni04C5
ENCODING 1221
SWIDTH 719 0
DWIDTH 6 0
BBX 6 8 0 -2
BITMAP
38
48
48
48
48
CC
04
08
ENDCHAR
STARTCHAR uni04C6
ENCODING 1222
SWIDTH 587 0
DWIDTH 5 0
BBX 5 5 0 -1
BITMAP
70
50
50
98
18
ENDCHAR
STARTCHAR uni04C7
ENCODING 1223
SWIDTH 731 0
DWIDTH 6 0
BBX 4 8 1 -2
BITMAP
90
90
90
F0
90
90
10
60
ENDCHAR
STARTCHAR uni04C8
ENCODING 1224
SWIDTH 621 0
DWIDTH 5 0
BBX 3 6 1 -2
BITMAP
A0
E0
A0
A0
20
60
ENDCHAR
STARTCHAR uni04C9
ENCODING 1225
SWIDTH 756 0
DWIDTH 6 0
BBX 5 8 1 -2
BITMAP
90
90
90
F0
90
98
08
10
ENDCHAR
STARTCHAR uni04CA
ENCODING 1226
SWIDTH 662 0
DWIDTH 5 0
BBX 4 5 1 -1
BITMAP
90
F0
90
90
10
ENDCHAR
STARTCHAR uni04CB
ENCODING 1227
SWIDTH 698 0
DWIDTH 6 0
BBX 4 8 1 -2
BITMAP
90
90
90
F0
10
30
20
20
ENDCHAR
STARTCHAR uni04CC
ENCODING 1228
SWIDTH 613 0
DWIDTH 5 0
BBX 3 5 1 -1
BITMAP
A0
A0
E0
20
20
ENDCHAR
STARTCHAR uni04CD
ENCODING 1229
SWIDTH 917 0
DWIDTH 7 0
BBX 6 8 1 -2
BITMAP
88
88
D4
D4
A4
A4
04
04
ENDCHAR
STARTCHAR uni04CE
ENCODING 1230
SWIDTH 755 0
DWIDTH 6 0
BBX 5 5 1 -1
BITMAP
90
B0
F0
C8
08
ENDCHAR
STARTCHAR uni04CF
ENCODING 1231
SWIDTH 339 0
DWIDTH 3 0
BBX 2 6 0 0
BITMAP
C0
40
40
40
40
C0
ENDCHAR
STARTCHAR uni04D0
ENCODING 1232
SWIDTH 639 0
DWIDTH 5 0
BBX 5 7 0 0
BITMAP
70
20
20
50
70
88
88
ENDCHAR
STARTCHAR uni04D1
ENCODING 1233
SWIDTH 561 0
DWIDTH 4 0
BBX 4 6 0 0
BITMAP
50
20
50
70
90
70
ENDCHAR
STARTCHAR uni04D2
ENCODING 1234
SWIDTH 639 0
DWIDTH 5 0
BBX 5 7 0 0
BITMAP
50
20
20
50
70
88
88
ENDCHAR
STARTCHAR uni04D3
ENCODING 1235
SWIDTH 561 0
DWIDTH 4 0
BBX 4 6 0 0
BITMAP
60
20
50
70
90
70
ENDCHAR
STARTCHAR uni04D4
ENCODING 1236
SWIDTH 881 0
DWIDTH 7 0
BBX 7 6 0 0
BITMAP
1E
30
30
7C
50
8E
ENDCHAR
STARTCHAR uni04D5
ENCODING 1237
SWIDTH 864 0
DWIDTH 7 0
BBX 7 4 0 0
BITMAP
FC
7E
90
6C
ENDCHAR
STARTCHAR uni04D6
ENCODING 1238
SWIDTH 556 0
DWIDTH 4 0
BBX 3 7 1 0
BITMAP
E0
E0
80
80
E0
80
E0
ENDCHAR
STARTCHAR uni04D7
ENCODING 1239
SWIDTH 564 0
DWIDTH 5 0
BBX 4 6 0 0
BITMAP
50
20
50
F0
80
70
ENDCHAR
STARTCHAR uni04D8
ENCODING 1240
SWIDTH 739 0
DWIDTH 6 0
BBX 5 6 0 0
BITMAP
70
08
08
F8
48
78
ENDCHAR
STARTCHAR uni04D9
ENCODING 1241
SWIDTH 564 0
DWIDTH 5 0
BBX 4 4 0 0
BITMAP
F0
10
F0
70
ENDCHAR
STARTCHAR uni04DA
ENCODING 1242
SWIDTH 739 0
DWIDTH 6 0
BBX 5 7 0 0
BITMAP
30
70
08
08
F8
48
78
ENDCHAR
STARTCHAR uni04DB
ENCODING 1243
SWIDTH 564 0
DWIDTH 5 0
BBX 4 6 0 0
BITMAP
60
60
90
10
F0
70
ENDCHAR
STARTCHAR uni04DC
ENCODING 1244
SWIDTH 854 0
DWIDTH 7 0
BBX 7 7 0 0
BITMAP
28
92
54
38
38
54
92
ENDCHAR
STARTCHAR uni04DD
ENCODING 1245
SWIDTH 750 0
DWIDTH 6 0
BBX 6 6 0 0
BITMAP
30
84
68
30
68
A4
ENDCHAR
STARTCHAR uni04DE
ENCODING 1246
SWIDTH 588 0
DWIDTH 5 0
BBX 4 7 0 0
BITMAP
50
F0
10
10
70
10
F0
ENDCHAR
STARTCHAR uni04DF
ENCODING 1247
SWIDTH 490 0
DWIDTH 4 0
BBX 4 6 0 0
BITMAP
60
40
B0
60
10
E0
ENDCHAR
STARTCHAR uni04E0
ENCODING 1248
SWIDTH 584 0
DWIDTH 5 0
BBX 4 6 0 0
BITMAP
F0
20
40
30
10
F0
ENDCHAR
STARTCHAR uni04E1
ENCODING 1249
SWIDTH 498 0
DWIDTH 4 0
BBX 4 6 0 -2
BITMAP
F0
40
60
10
10
E0
ENDCHAR
STARTCHAR uni04E2
ENCODING 1250
SWIDTH 768 0
DWIDTH 6 0
BBX 4 6 1 0
BITMAP
F0
90
B0
D0
D0
90
ENDCHAR
STARTCHAR uni04E3
ENCODING 1251
SWIDTH 643 0
DWIDTH 5 0
BBX 3 5 1 0
BITMAP
E0
A0
E0
E0
A0
ENDCHAR
STARTCHAR uni04E4
ENCODING 1252
SWIDTH 768 0
DWIDTH 6 0
BBX 4 7 1 0
BITMAP
60
90
90
B0
D0
D0
90
ENDCHAR
STARTCHAR uni04E5
ENCODING 1253
SWIDTH 643 0
DWIDTH 5 0
BBX 3 6 1 0
BITMAP
A0
00
A0
E0
E0
A0
ENDCHAR
STARTCHAR uni04E6
ENCODING 1254
SWIDTH 781 0
DWIDTH 6 0
BBX 6 7 0 0
BITMAP
30
30
48
84
84
44
78
ENDCHAR
STARTCHAR uni04E7
ENCODING 1255
SWIDTH 605 0
DWIDTH 5 0
BBX 4 6 0 0
BITMAP
50
20
50
90
90
70
ENDCHAR
STARTCHAR uni04E8
ENCODING 1256
SWIDTH 782 0
DWIDTH 6 0
BBX 6 6 0 0
BITMAP
30
48
84
FC
44
78
ENDCHAR
STARTCHAR uni04E9
ENCODING 1257
SWIDTH 605 0
DWIDTH 5 0
BBX 4 4 0 0
BITMAP
70
F0
90
70
ENDCHAR
STARTCHAR uni04EA
ENCODING 1258
SWIDTH 782 0
DWIDTH 6 0
BBX 6 7 0 0
BITMAP
30
30
48
84
FC
44
78
ENDCHAR
STARTCHAR uni04EB
ENCODING 1259
SWIDTH 605 0
DWIDTH 5 0
BBX 4 6 0 0
BITMAP
50
20
50
F0
90
70
ENDCHAR
STARTCHAR uni04EC
ENCODING 1260
SWIDTH 633 0
DWIDTH 5 0
BBX 5 7 0 0
BITMAP
60
E0
10
08
78
10
F0
ENDCHAR
STARTCHAR uni04ED
ENCODING 1261
SWIDTH 494 0
DWIDTH 4 0
BBX 4 6 0 0
BITMAP
A0
40
A0
70
10
E0
ENDCHAR
STARTCHAR uni04EE
ENCODING 1262
SWIDTH 624 0
DWIDTH 5 0
BBX 5 6 0 0
BITMAP
F8
48
50
30
20
E0
ENDCHAR
STARTCHAR uni04EF
ENCODING 1263
SWIDTH 510 0
DWIDTH 4 0
BBX 4 7 0 -2
BITMAP
60
90
50
60
20
40
C0
ENDCHAR
STARTCHAR uni04F0
ENCODING 1264
SWIDTH 624 0
DWIDTH 5 0
BBX 5 7 0 0
BITMAP
50
88
48
50
30
20
E0
ENDCHAR
STARTCHAR uni04F1
ENCODING 1265
SWIDTH 510 0
DWIDTH 4 0
BBX 4 8 0 -2
BITMAP
60
00
90
50
60
20
40
C0
ENDCHAR
STARTCHAR uni04F2
ENCODING 1266
SWIDTH 624 0
DWIDTH 5 0
BBX 5 7 0 0
BITMAP
30
88
48
50
30
20
E0
ENDCHAR
STARTCHAR uni04F3
ENCODING 1267
SWIDTH 510 0
DWIDTH 4 0
BBX 4 8 0 -2
BITMAP
70
20
90
50
60
20
40
C0
ENDCHAR
STARTCHAR uni04F4
ENCODING 1268
SWIDTH 698 0
DWIDTH 6 0
BBX 4 7 1 0
BITMAP
A0
90
90
90
F0
10
10
ENDCHAR
STARTCHAR uni04F5
ENCODING 1269
SWIDTH 613 0
DWIDTH 5 0
BBX 3 6 1 0
BITMAP
A0
00
A0
A0
E0
20
ENDCHAR
STARTCHAR uni04F6
ENCODING 1270
SWIDTH 530 0
DWIDTH 4 0
BBX 3 8 1 -2
BITMAP
E0
80
80
80
80
80
80
80
ENDCHAR
STARTCHAR uni04F7
ENCODING 1271
SWIDTH 433 0
DWIDTH 3 0
BBX 2 5 1 -1
BITMAP
C0
80
80
80
80
ENDCHAR
STARTCHAR uni04F8
ENCODING 1272
SWIDTH 858 0
DWIDTH 7 0
BBX 5 7 1 0
BITMAP
50
88
88
88
E8
98
E8
ENDCHAR
STARTCHAR uni04F9
ENCODING 1273
SWIDTH 778 0
DWIDTH 6 0
BBX 5 6 1 0
BITMAP
60
00
88
C8
A8
E8
ENDCHAR
STARTCHAR uni04FA
ENCODING 1274
SWIDTH 530 0
DWIDTH 4 0
BBX 4 8 0 -2
BITMAP
70
40
40
E0
40
40
40
40
ENDCHAR
STARTCHAR uni04FB
ENCODING 1275
SWIDTH 434 0
DWIDTH 3 0
BBX 3 6 0 -2
BITMAP
60
E0
40
40
40
40
ENDCHAR
STARTCHAR uni04FC
ENCODING 1276
SWIDTH 632 0
DWIDTH 5 0
BBX 5 8 0 -2
BITMAP
98
50
20
20
50
88
08
10
ENDCHAR
STARTCHAR uni04FD
ENCODING 1277
SWIDTH 550 0
DWIDTH 4 0
BBX 4 6 0 -2
BITMAP
D0
60
60
90
10
10
ENDCHAR
STARTCHAR uni04FE
ENCODING 1278
SWIDTH 586 0
DWIDTH 5 0
BBX 5 6 0 0
BITMAP
98
50
F0
20
50
98
ENDCHAR
STARTCHAR uni04FF
ENCODING 1279
SWIDTH 529 0
DWIDTH 4 0
BBX 4 4 0 0
BITMAP
D0
F0
60
90
ENDCHAR
STARTCHAR uni0500
ENCODING 1280
SWIDTH 615 0
DWIDTH 5 0
BBX 4 6 0 0
BITMAP
10
10
10
70
90
70
ENDCHAR
STARTCHAR uni0501
ENCODING 1281
SWIDTH 615 0
DWIDTH 5 0
BBX 4 6 0 0
BITMAP
10
30
50
90
90
70
ENDCHAR
STARTCHAR uni0502
ENCODING 1282
SWIDTH 902 0
DWIDTH 7 0
BBX 6 6 0 0
BITMAP
10
10
10
74
94
7C
ENDCHAR
STARTCHAR uni0503
ENCODING 1283
SWIDTH 899 0
DWIDTH 7 0
BBX 7 6 0 0
BITMAP
10
30
50
92
92
7C
ENDCHAR
STARTCHAR uni0504
ENCODING 1284
SWIDTH 905 0
DWIDTH 7 0
BBX 7 6 0 0
BITMAP
E0
10
10
72
12
0C
ENDCHAR
STARTCHAR uni0505
ENCODING 1285
SWIDTH 809 0
DWIDTH 6 0
BBX 6 4 0 0
BITMAP
E0
64
14
1C
ENDCHAR
STARTCHAR uni0506
ENCODING 1286
SWIDTH 633 0
DWIDTH 5 0
BBX 5 8 0 -2
BITMAP
E0
10
10
70
10
18
08
08
ENDCHAR
STARTCHAR uni0507
ENCODING 1287
SWIDTH 537 0
DWIDTH 4 0
BBX 4 5 0 -1
BITMAP
E0
60
10
10
10
ENDCHAR
STARTCHAR uni0508
ENCODING 1288
SWIDTH 986 0
DWIDTH 8 0
BBX 7 6 0 0
BITMAP
38
48
48
4A
4A
CE
ENDCHAR
STARTCHAR uni0509
ENCODING 1289
SWIDTH 859 0
DWIDTH 7 0
BBX 6 4 0 0
BITMAP
70
54
54
9C
ENDCHAR
STARTCHAR uni050A
ENCODING 1290
SWIDTH 1015 0
DWIDTH 8 0
BBX 6 6 1 0
BITMAP
90
90
90
F4
94
8C
ENDCHAR
STARTCHAR uni050B
ENCODING 1291
SWIDTH 917 0
DWIDTH 7 0
BBX 6 4 1 0
BITMAP
A0
E4
A4
98
ENDCHAR
STARTCHAR uni050C
ENCODING 1292
SWIDTH 760 0
DWIDTH 6 0
BBX 6 6 0 0
BITMAP
38
40
80
9C
44
78
ENDCHAR
STARTCHAR uni050D
ENCODING 1293
SWIDTH 642 0
DWIDTH 5 0
BBX 5 4 0 0
BITMAP
78
80
98
70
ENDCHAR
STARTCHAR uni050E
ENCODING 1294
SWIDTH 715 0
DWIDTH 6 0
BBX 5 6 0 0
BITMAP
F0
20
20
28
28
38
ENDCHAR
STARTCHAR uni050F
ENCODING 1295
SWIDTH 656 0
DWIDTH 5 0
BBX 5 4 0 0
BITMAP
F0
48
48
30
ENDCHAR
STARTCHAR uni0510
ENCODING 1296
SWIDTH 589 0
DWIDTH 5 0
BBX 4 6 0 0
BITMAP
70
80
40
70
80
70
ENDCHAR
STARTCHAR uni0511
ENCODING 1297
SWIDTH 483 0
DWIDTH 4 0
BBX 4 4 0 0
BITMAP
F0
60
80
70
ENDCHAR
STARTCHAR uni0512
ENCODING 1298
SWIDTH 712 0
DWIDTH 6 0
BBX 6 8 0 -2
BITMAP
38
48
48
48
48
CC
04
08
ENDCHAR
STARTCHAR uni0513
ENCODING 1299
SWIDTH 586 0
DWIDTH 5 0
BBX 5 6 0 -2
BITMAP
70
50
50
98
08
10
ENDCHAR
STARTCHAR uni0514
ENCODING 1300
SWIDTH 946 0
DWIDTH 8 0
BBX 8 6 0 0
BITMAP
32
4A
4C
44
4A
D3
ENDCHAR
STARTCHAR uni0515
ENCODING 1301
SWIDTH 809 0
DWIDTH 6 0
BBX 6 4 0 0
BITMAP
74
48
58
B4
ENDCHAR
STARTCHAR uni0516
ENCODING 1302
SWIDTH 806 0
DWIDTH 6 0
BBX 5 6 1 0
BITMAP
E8
A8
90
F0
88
88
ENDCHAR
STARTCHAR uni0517
ENCODING 1303
SWIDTH 818 0
DWIDTH 7 0
BBX 5 6 1 -2
BITMAP
E8
90
90
E8
80
80
ENDCHAR
STARTCHAR uni0518
ENCODING 1304
SWIDTH 908 0
DWIDTH 7 0
BBX 7 6 0 0
BITMAP
7E
50
50
3E
50
8E
ENDCHAR
STARTCHAR uni0519
ENCODING 1305
SWIDTH 880 0
DWIDTH 7 0
BBX 7 4 0 0
BITMAP
FC
9E
70
8C
ENDCHAR
STARTCHAR uni051A
ENCODING 1306
SWIDTH 781 0
DWIDTH 6 0
BBX 6 7 0 -1
BITMAP
30
48
84
84
44
78
08
ENDCHAR
STARTCHAR uni051B
ENCODING 1307
SWIDTH 615 0
DWIDTH 5 0
BBX 4 6 0 -2
BITMAP
70
90
90
70
10
10
ENDCHAR
STARTCHAR uni051C
ENCODING 1308
SWIDTH 930 0
DWIDTH 7 0
BBX 7 6 0 0
BITMAP
92
92
5A
6A
6C
44
ENDCHAR
STARTCHAR uni051D
ENCODING 1309
SWIDTH 786 0
DWIDTH 6 0
BBX 6 4 0 0
BITMAP
94
B4
68
48
ENDCHAR
STARTCHAR uni051E
ENCODING 1310
SWIDTH 618 0
DWIDTH 5 0
BBX 4 6 1 0
BITMAP
D0
A0
D0
C0
A0
90
ENDCHAR
STARTCHAR uni051F
ENCODING 1311
SWIDTH 529 0
DWIDTH 4 0
BBX 3 4 1 0
BITMAP
E0
A0
C0
A0
ENDCHAR
STARTCHAR uni0520
ENCODING 1312
SWIDTH 1009 0
DWIDTH 8 0
BBX 8 8 0 -2
BITMAP
30
48
48
4E
49
C9
01
06
ENDCHAR
STARTCHAR uni0521
ENCODING 1313
SWIDTH 818 0
DWIDTH 7 0
BBX 6 6 0 -2
BITMAP
70
58
54
94
04
0C
ENDCHAR
STARTCHAR uni0522
ENCODING 1314
SWIDTH 1091 0
DWIDTH 9 0
BBX 7 8 1 -2
BITMAP
90
90
90
FE
92
92
02
0E
ENDCHAR
STARTCHAR uni0523
ENCODING 1315
SWIDTH 875 0
DWIDTH 7 0
BBX 6 6 1 -2
BITMAP
A0
F0
AC
A4
04
18
ENDCHAR
STARTCHAR uni0524
ENCODING 1316
SWIDTH 745 0
DWIDTH 6 0
BBX 5 8 1 -2
BITMAP
F0
90
90
90
90
98
08
08
ENDCHAR
STARTCHAR uni0525
ENCODING 1317
SWIDTH 643 0
DWIDTH 5 0
BBX 4 5 1 -1
BITMAP
E0
A0
A0
90
10
ENDCHAR
STARTCHAR uni0526
ENCODING 1318
SWIDTH 729 0
DWIDTH 6 0
BBX 5 8 1 -2
BITMAP
80
80
E0
90
90
98
08
08
ENDCHAR
STARTCHAR uni0527
ENCODING 1319
SWIDTH 642 0
DWIDTH 5 0
BBX 4 7 1 -1
BITMAP
80
C0
A0
A0
A0
90
10
ENDCHAR
STARTCHAR Enlefthookcy
ENCODING 1320
SWIDTH 732 0
DWIDTH 6 0
BBX 5 8 0 -2
BITMAP
48
48
48
78
48
48
40
80
ENDCHAR
STARTCHAR uni0529
ENCODING 1321
SWIDTH 626 0
DWIDTH 5 0
BBX 4 6 0 -2
BITMAP
50
70
50
50
40
80
ENDCHAR
STARTCHAR uni052A
ENCODING 1322
SWIDTH 1403 0
DWIDTH 11 0
BBX 11 8 0 -2
BITMAP
3920
2940
4980
4F80
4940
F920
8400
8400
ENDCHAR
STARTCHAR uni052B
ENCODING 1323
SWIDTH 1164 0
DWIDTH 9 0
BBX 9 5 0 -1
BITMAP
7380
5E00
5300
F280
8800
ENDCHAR
STARTCHAR uni052C
ENCODING 1324
SWIDTH 693 0
DWIDTH 6 0
BBX 5 8 0 -2
BITMAP
B8
A8
A8
78
48
F8
88
88
ENDCHAR
STARTCHAR uni052D
ENCODING 1325
SWIDTH 595 0
DWIDTH 5 0
BBX 5 5 0 -1
BITMAP
B0
D0
70
F8
88
ENDCHAR
STARTCHAR uni052E
ENCODING 1326
SWIDTH 713 0
DWIDTH 6 0
BBX 6 8 0 -2
BITMAP
38
48
48
48
48
CC
04
04
ENDCHAR
STARTCHAR uni052F
ENCODING 1327
SWIDTH 586 0
DWIDTH 5 0
BBX 5 5 0 -1
BITMAP
70
50
50
98
08
ENDCHAR
STARTCHAR binducandradeva
ENCODING 2304
SWIDTH 0 0
DWIDTH 0 0
BBX 4 2 -3 5
BITMAP
E0
D0
ENDCHAR
STARTCHAR candrabindudeva
ENCODING 2305
SWIDTH 0 0
DWIDTH 0 0
BBX 4 2 -3 5
BITMAP
D0
60
ENDCHAR
STARTCHAR anusvaradeva
ENCODING 2306
SWIDTH 0 0
DWIDTH 0 0
BBX 1 1 -2 6
BITMAP
80
ENDCHAR
STARTCHAR visargadeva
ENCODING 2307
SWIDTH 272 0
DWIDTH 2 0
BBX 1 4 1 0
BITMAP
80
00
00
80
ENDCHAR
STARTCHAR ashortdeva
ENCODING 2308
SWIDTH 764 0
DWIDTH 6 0
BBX 6 7 0 0
BITMAP
38
08
7C
34
98
54
24
ENDCHAR
STARTCHAR adeva
ENCODING 2309
SWIDTH 764 0
DWIDTH 6 0
BBX 6 5 0 0
BITMAP
7C
34
98
54
24
ENDCHAR
STARTCHAR aadeva
ENCODING 2310
SWIDTH 1023 0
DWIDTH 8 0
BBX 8 5 0 0
BITMAP
7F
35
99
55
25
ENDCHAR
STARTCHAR ideva
ENCODING 2311
SWIDTH 491 0
DWIDTH 4 0
BBX 4 6 0 -1
BITMAP
F0
60
A0
50
E0
20
ENDCHAR
STARTCHAR iideva
ENCODING 2312
SWIDTH 491 0
DWIDTH 4 0
BBX 4 8 0 -1
BITMAP
30
20
F0
60
A0
50
E0
20
ENDCHAR
STARTCHAR udeva
ENCODING 2313
SWIDTH 548 0
DWIDTH 4 0
BBX 5 5 0 0
BITMAP
F8
10
A0
50
70
ENDCHAR
STARTCHAR uudeva
ENCODING 2314
SWIDTH 765 0
DWIDTH 6 0
BBX 6 5 0 0
BITMAP
FC
10
A8
54
74
ENDCHAR
STARTCHAR rvocalicdeva
ENCODING 2315
SWIDTH 853 0
DWIDTH 7 0
BBX 7 5 0 0
BITMAP
FE
D4
3C
54
1E
ENDCHAR
STARTCHAR lvocalicdeva
ENCODING 2316
SWIDTH 699 0
DWIDTH 6 0
BBX 6 6 0 -1
BITMAP
FC
58
A8
88
50
0C
ENDCHAR
STARTCHAR ecandradeva
ENCODING 2317
SWIDTH 553 0
DWIDTH 4 0
BBX 5 8 0 -1
BITMAP
50
20
F8
90
B0
40
20
10
ENDCHAR
STARTCHAR eshortdeva
ENCODING 2318
SWIDTH 553 0
DWIDTH 4 0
BBX 5 8 0 -1
BITMAP
60
10
F8
90
B0
40
20
10
ENDCHAR
STARTCHAR edeva
ENCODING 2319
SWIDTH 553 0
DWIDTH 4 0
BBX 5 6 0 -1
BITMAP
F8
90
B0
40
20
10
ENDCHAR
STARTCHAR aideva
ENCODING 2320
SWIDTH 553 0
DWIDTH 4 0
BBX 5 8 0 -1
BITMAP
60
10
F8
90
B0
40
20
10
ENDCHAR
STARTCHAR ocandradeva
ENCODING 2321
SWIDTH 1023 0
DWIDTH 8 0
BBX 9 7 0 0
BITMAP
0480
0300
7F00
3500
9900
5500
2500
ENDCHAR
STARTCHAR oshortdeva
ENCODING 2322
SWIDTH 1023 0
DWIDTH 8 0
BBX 8 7 0 0
BITMAP
0C
02
7F
35
99
55
25
ENDCHAR
STARTCHAR odeva
ENCODING 2323
SWIDTH 1023 0
DWIDTH 8 0
BBX 8 7 0 0
BITMAP
06
02
7F
35
99
55
25
ENDCHAR
STARTCHAR audeva
ENCODING 2324
SWIDTH 1023 0
DWIDTH 8 0
BBX 8 7 0 0
BITMAP
06
06
7F
35
99
55
25
ENDCHAR
STARTCHAR kadeva
ENCODING 2325
SWIDTH 762 0
DWIDTH 6 0
BBX 6 5 0 0
BITMAP
FC
70
9C
74
14
ENDCHAR
STARTCHAR khadeva
ENCODING 2326
SWIDTH 818 0
DWIDTH 7 0
BBX 7 5 0 0
BITMAP
FE
3C
D4
5C
3C
ENDCHAR
STARTCHAR gadeva
ENCODING 2327
SWIDTH 563 0
DWIDTH 5 0
BBX 5 5 0 0
BITMAP
F8
50
D0
50
10
ENDCHAR
STARTCHAR ghadeva
ENCODING 2328
SWIDTH 591 0
DWIDTH 5 0
BBX 5 5 0 0
BITMAP
F8
90
50
70
10
ENDCHAR
STARTCHAR ngadeva
ENCODING 2329
SWIDTH 647 0
DWIDTH 5 0
BBX 5 5 0 0
BITMAP
F8
70
68
90
70
ENDCHAR
STARTCHAR cadeva
ENCODING 2330
SWIDTH 634 0
DWIDTH 5 0
BBX 5 5 0 0
BITMAP
F8
E8
48
70
08
ENDCHAR
STARTCHAR chadeva
ENCODING 2331
SWIDTH 701 0
DWIDTH 6 0
BBX 6 5 0 0
BITMAP
FC
58
98
48
70
ENDCHAR
STARTCHAR jadeva
ENCODING 2332
SWIDTH 742 0
DWIDTH 6 0
BBX 6 5 0 0
BITMAP
FC
38
98
58
28
ENDCHAR
STARTCHAR jhadeva
ENCODING 2333
SWIDTH 756 0
DWIDTH 6 0
BBX 6 6 0 -1
BITMAP
FC
64
A4
5C
E4
20
ENDCHAR
STARTCHAR nyadeva
ENCODING 2334
SWIDTH 742 0
DWIDTH 6 0
BBX 6 5 0 0
BITMAP
FC
28
98
78
08
ENDCHAR
STARTCHAR ttadeva
ENCODING 2335
SWIDTH 504 0
DWIDTH 4 0
BBX 4 5 0 0
BITMAP
F0
20
C0
80
70
ENDCHAR
STARTCHAR tthadeva
ENCODING 2336
SWIDTH 585 0
DWIDTH 5 0
BBX 5 5 0 0
BITMAP
F8
20
D0
90
70
ENDCHAR
STARTCHAR ddadeva
ENCODING 2337
SWIDTH 577 0
DWIDTH 5 0
BBX 5 5 0 0
BITMAP
F8
70
60
90
70
ENDCHAR
STARTCHAR ddhadeva
ENCODING 2338
SWIDTH 563 0
DWIDTH 5 0
BBX 5 5 0 0
BITMAP
F8
60
80
B0
70
ENDCHAR
STARTCHAR nnadeva
ENCODING 2339
SWIDTH 723 0
DWIDTH 6 0
BBX 6 5 0 0
BITMAP
FC
98
98
68
08
ENDCHAR
STARTCHAR tadeva
ENCODING 2340
SWIDTH 570 0
DWIDTH 5 0
BBX 5 5 0 0
BITMAP
F8
10
F0
90
50
ENDCHAR
STARTCHAR thadeva
ENCODING 2341
SWIDTH 642 0
DWIDTH 5 0
BBX 5 5 0 0
BITMAP
F8
68
48
70
08
ENDCHAR
STARTCHAR dadeva
ENCODING 2342
SWIDTH 520 0
DWIDTH 4 0
BBX 4 5 0 0
BITMAP
F0
60
80
B0
50
ENDCHAR
STARTCHAR dhadeva
ENCODING 2343
SWIDTH 615 0
DWIDTH 5 0
BBX 5 5 0 0
BITMAP
F8
90
70
70
10
ENDCHAR
STARTCHAR nadeva
ENCODING 2344
SWIDTH 555 0
DWIDTH 4 0
BBX 5 5 0 0
BITMAP
F8
10
F0
50
10
ENDCHAR
STARTCHAR nnnadeva
ENCODING 2345
SWIDTH 555 0
DWIDTH 4 0
BBX 5 6 0 -1
BITMAP
F8
10
F0
50
10
40
ENDCHAR
STARTCHAR padeva
ENCODING 2346
SWIDTH 568 0
DWIDTH 5 0
BBX 5 5 0 0
BITMAP
F8
90
90
70
10
ENDCHAR
STARTCHAR phadeva
ENCODING 2347
SWIDTH 771 0
DWIDTH 6 0
BBX 6 5 0 0
BITMAP
FC
90
9C
74
14
ENDCHAR
STARTCHAR badeva
ENCODING 2348
SWIDTH 571 0
DWIDTH 5 0
BBX 5 5 0 0
BITMAP
F8
70
B0
70
10
ENDCHAR
STARTCHAR bhadeva
ENCODING 2349
SWIDTH 703 0
DWIDTH 6 0
BBX 6 5 0 0
BITMAP
FC
68
78
28
08
ENDCHAR
STARTCHAR madeva
ENCODING 2350
SWIDTH 598 0
DWIDTH 5 0
BBX 5 5 0 0
BITMAP
F8
50
F0
50
10
ENDCHAR
STARTCHAR yadeva
ENCODING 2351
SWIDTH 580 0
DWIDTH 5 0
BBX 5 5 0 0
BITMAP
F8
50
90
70
10
ENDCHAR
STARTCHAR radeva
ENCODING 2352
SWIDTH 409 0
DWIDTH 3 0
BBX 3 5 0 0
BITMAP
E0
20
C0
40
20
ENDCHAR
STARTCHAR rradeva
ENCODING 2353
SWIDTH 409 0
DWIDTH 3 0
BBX 3 5 0 0
BITMAP
E0
20
C0
40
A0
ENDCHAR
STARTCHAR ladeva
ENCODING 2354
SWIDTH 678 0
DWIDTH 5 0
BBX 6 5 0 0
BITMAP
FC
58
A8
88
48
ENDCHAR
STARTCHAR lladeva
ENCODING 2355
SWIDTH 760 0
DWIDTH 6 0
BBX 6 4 0 1
BITMAP
FC
68
94
FC
ENDCHAR
STARTCHAR llladeva
ENCODING 2356
SWIDTH 760 0
DWIDTH 6 0
BBX 6 7 0 -2
BITMAP
FC
68
94
B4
48
00
40
ENDCHAR
STARTCHAR vadeva
ENCODING 2357
SWIDTH 556 0
DWIDTH 4 0
BBX 5 5 0 0
BITMAP
F8
70
90
70
10
ENDCHAR
STARTCHAR shadeva
ENCODING 2358
SWIDTH 680 0
DWIDTH 5 0
BBX 6 5 0 0
BITMAP
FC
68
A8
48
28
ENDCHAR
STARTCHAR ssadeva
ENCODING 2359
SWIDTH 578 0
DWIDTH 5 0
BBX 5 5 0 0
BITMAP
F8
B0
B0
70
10
ENDCHAR
STARTCHAR sadeva
ENCODING 2360
SWIDTH 676 0
DWIDTH 5 0
BBX 6 5 0 0
BITMAP
FC
28
F8
48
28
ENDCHAR
STARTCHAR hadeva
ENCODING 2361
SWIDTH 531 0
DWIDTH 4 0
BBX 4 6 0 -1
BITMAP
F0
70
A0
D0
90
40
ENDCHAR
STARTCHAR oevowelsigndeva
ENCODING 2362
SWIDTH 0 0
DWIDTH 0 0
BBX 1 1 -2 5
BITMAP
80
ENDCHAR
STARTCHAR ooevowelsigndeva
ENCODING 2363
SWIDTH 259 0
DWIDTH 2 0
BBX 2 6 0 0
BITMAP
40
C0
40
40
40
40
ENDCHAR
STARTCHAR nuktadeva
ENCODING 2364
SWIDTH 0 0
DWIDTH 0 0
BBX 1 1 -3 -2
BITMAP
80
ENDCHAR
STARTCHAR avagrahadeva
ENCODING 2365
SWIDTH 467 0
DWIDTH 4 0
BBX 3 5 0 0
BITMAP
60
40
20
A0
60
ENDCHAR
STARTCHAR aavowelsigndeva
ENCODING 2366
SWIDTH 259 0
DWIDTH 2 0
BBX 2 5 0 0
BITMAP
C0
40
40
40
40
ENDCHAR
STARTCHAR ivowelsigndeva
ENCODING 2367
SWIDTH 259 0
DWIDTH 2 0
BBX 6 7 0 0
BITMAP
70
8C
C0
40
40
40
40
ENDCHAR
STARTCHAR iivowelsigndeva
ENCODING 2368
SWIDTH 259 0
DWIDTH 2 0
BBX 4 7 -2 0
BITMAP
E0
A0
30
10
10
10
10
ENDCHAR
STARTCHAR uvowelsigndeva
ENCODING 2369
SWIDTH 0 0
DWIDTH 0 0
BBX 4 2 -4 -2
BITMAP
B0
70
ENDCHAR
STARTCHAR uuvowelsigndeva
ENCODING 2370
SWIDTH 0 0
DWIDTH 0 0
BBX 4 2 -3 -2
BITMAP
E0
F0
ENDCHAR
STARTCHAR rvocalicvowelsigndeva
ENCODING 2371
SWIDTH 0 0
DWIDTH 0 0
BBX 2 2 -2 -2
BITMAP
80
C0
ENDCHAR
STARTCHAR rrvocalicvowelsigndeva
ENCODING 2372
SWIDTH 0 0
DWIDTH 0 0
BBX 3 3 -2 -3
BITMAP
80
C0
E0
ENDCHAR
STARTCHAR ecandravowelsigndeva
ENCODING 2373
SWIDTH 0 0
DWIDTH 0 0
BBX 4 2 -3 5
BITMAP
90
60
ENDCHAR
STARTCHAR eshortvowelsigndeva
ENCODING 2374
SWIDTH 0 0
DWIDTH 0 0
BBX 3 2 -4 5
BITMAP
E0
20
ENDCHAR
STARTCHAR evowelsigndeva
ENCODING 2375
SWIDTH 0 0
DWIDTH 0 0
BBX 2 2 -3 5
BITMAP
C0
40
ENDCHAR
STARTCHAR aivowelsigndeva
ENCODING 2376
SWIDTH 0 0
DWIDTH 0 0
BBX 2 2 -3 5
BITMAP
C0
C0
ENDCHAR
STARTCHAR ocandravowelsigndeva
ENCODING 2377
SWIDTH 259 0
DWIDTH 2 0
BBX 3 7 -1 0
BITMAP
A0
40
60
20
20
20
20
ENDCHAR
STARTCHAR oshortvowelsigndeva
ENCODING 2378
SWIDTH 259 0
DWIDTH 2 0
BBX 4 7 -2 0
BITMAP
E0
20
30
10
10
10
10
ENDCHAR
STARTCHAR ovowelsigndeva
ENCODING 2379
SWIDTH 259 0
DWIDTH 2 0
BBX 3 7 -1 0
BITMAP
C0
40
60
20
20
20
20
ENDCHAR
STARTCHAR auvowelsigndeva
ENCODING 2380
SWIDTH 259 0
DWIDTH 2 0
BBX 3 7 -1 0
BITMAP
C0
C0
60
20
20
20
20
ENDCHAR
STARTCHAR viramadeva
ENCODING 2381
SWIDTH 0 0
DWIDTH 0 0
BBX 2 2 -1 -2
BITMAP
80
40
ENDCHAR
STARTCHAR uni094E
ENCODING 2382
SWIDTH 273 0
DWIDTH 2 0
BBX 1 5 1 0
BITMAP
80
80
80
80
80
ENDCHAR
STARTCHAR awvowelsigndeva
ENCODING 2383
SWIDTH 259 0
DWIDTH 2 0
BBX 4 7 -2 0
BITMAP
A0
70
30
10
10
10
10
ENDCHAR
STARTCHAR omdeva
ENCODING 2384
SWIDTH 902 0
DWIDTH 7 0
BBX 7 6 0 1
BITMAP
1C
18
74
3A
9A
74
ENDCHAR
STARTCHAR udattadeva
ENCODING 2385
SWIDTH 0 0
DWIDTH 0 0
BBX 1 2 -2 5
BITMAP
80
80
ENDCHAR
STARTCHAR anudattadeva
ENCODING 2386
SWIDTH 0 0
DWIDTH 0 0
BBX 2 1 -3 -1
BITMAP
C0
ENDCHAR
STARTCHAR uni0953
ENCODING 2387
SWIDTH 0 0
DWIDTH 0 0
BBX 1 2 -2 5
BITMAP
80
80
ENDCHAR
STARTCHAR uni0954
ENCODING 2388
SWIDTH 0 0
DWIDTH 0 0
BBX 1 2 -1 5
BITMAP
80
80
ENDCHAR
STARTCHAR candralongevowelsigndeva
ENCODING 2389
SWIDTH 0 0
DWIDTH 0 0
BBX 3 2 -3 5
BITMAP
A0
60
ENDCHAR
STARTCHAR uevowelsigndeva
ENCODING 2390
SWIDTH 0 0
DWIDTH 0 0
BBX 3 1 -4 -1
BITMAP
E0
ENDCHAR
STARTCHAR uuevowelsigndeva
ENCODING 2391
SWIDTH 0 0
DWIDTH 0 0
BBX 3 2 -4 -2
BITMAP
A0
E0
ENDCHAR
STARTCHAR qadeva
ENCODING 2392
SWIDTH 762 0
DWIDTH 6 0
BBX 6 6 0 -1
BITMAP
FC
70
9C
74
14
40
ENDCHAR
STARTCHAR khhadeva
ENCODING 2393
SWIDTH 818 0
DWIDTH 7 0
BBX 7 6 0 -1
BITMAP
FE
3C
D4
5C
3C
80
ENDCHAR
STARTCHAR ghhadeva
ENCODING 2394
SWIDTH 563 0
DWIDTH 5 0
BBX 5 6 0 -1
BITMAP
F8
50
D0
50
10
40
ENDCHAR
STARTCHAR zadeva
ENCODING 2395
SWIDTH 742 0
DWIDTH 6 0
BBX 6 6 0 -1
BITMAP
FC
38
98
58
28
20
ENDCHAR
STARTCHAR dddhadeva
ENCODING 2396
SWIDTH 577 0
DWIDTH 5 0
BBX 5 7 0 -2
BITMAP
F8
70
60
90
70
00
20
ENDCHAR
STARTCHAR rhadeva
ENCODING 2397
SWIDTH 563 0
DWIDTH 5 0
BBX 5 7 0 -2
BITMAP
F8
60
80
B0
70
00
20
ENDCHAR
STARTCHAR fadeva
ENCODING 2398
SWIDTH 771 0
DWIDTH 6 0
BBX 6 6 0 -1
BITMAP
FC
90
9C
74
14
40
ENDCHAR
STARTCHAR yyadeva
ENCODING 2399
SWIDTH 580 0
DWIDTH 5 0
BBX 5 6 0 -1
BITMAP
F8
50
90
70
10
40
ENDCHAR
STARTCHAR rrvocalicdeva
ENCODING 2400
SWIDTH 853 0
DWIDTH 7 0
BBX 7 6 0 -1
BITMAP
FE
D4
3C
54
1E
06
ENDCHAR
STARTCHAR llvocalicdeva
ENCODING 2401
SWIDTH 699 0
DWIDTH 6 0
BBX 6 7 0 -2
BITMAP
FC
58
A8
88
54
08
0C
ENDCHAR
STARTCHAR lvocalicvowelsigndeva
ENCODING 2402
SWIDTH 0 0
DWIDTH 0 0
BBX 4 3 -4 -3
BITMAP
F0
90
70
ENDCHAR
STARTCHAR llvocalicvowelsigndeva
ENCODING 2403
SWIDTH 0 0
DWIDTH 0 0
BBX 5 3 -4 -3
BITMAP
F0
90
58
ENDCHAR
STARTCHAR dandadeva
ENCODING 2404
SWIDTH 379 0
DWIDTH 3 0
BBX 1 5 1 0
BITMAP
80
80
80
80
80
ENDCHAR
STARTCHAR dbldandadeva
ENCODING 2405
SWIDTH 599 0
DWIDTH 5 0
BBX 2 5 2 0
BITMAP
C0
C0
C0
C0
C0
ENDCHAR
STARTCHAR zerodeva
ENCODING 2406
SWIDTH 551 0
DWIDTH 4 0
BBX 3 3 1 1
BITMAP
E0
A0
C0
ENDCHAR
STARTCHAR onedeva
ENCODING 2407
SWIDTH 551 0
DWIDTH 4 0
BBX 2 6 1 -1
BITMAP
C0
C0
C0
40
40
40
ENDCHAR
STARTCHAR twodeva
ENCODING 2408
SWIDTH 551 0
DWIDTH 4 0
BBX 3 5 1 0
BITMAP
C0
20
C0
40
20
ENDCHAR
STARTCHAR threedeva
ENCODING 2409
SWIDTH 551 0
DWIDTH 4 0
BBX 3 6 1 -1
BITMAP
C0
40
20
A0
40
20
ENDCHAR
STARTCHAR fourdeva
ENCODING 2410
SWIDTH 551 0
DWIDTH 4 0
BBX 4 5 0 0
BITMAP
90
50
20
50
60
ENDCHAR
STARTCHAR fivedeva
ENCODING 2411
SWIDTH 551 0
DWIDTH 4 0
BBX 3 6 1 -1
BITMAP
80
80
A0
60
20
20
ENDCHAR
STARTCHAR sixdeva
ENCODING 2412
SWIDTH 551 0
DWIDTH 4 0
BBX 3 6 1 -1
BITMAP
C0
C0
80
E0
20
20
ENDCHAR
STARTCHAR sevendeva
ENCODING 2413
SWIDTH 551 0
DWIDTH 4 0
BBX 4 5 0 0
BITMAP
A0
D0
B0
50
20
ENDCHAR
STARTCHAR eightdeva
ENCODING 2414
SWIDTH 551 0
DWIDTH 4 0
BBX 3 5 1 0
BITMAP
20
40
80
80
E0
ENDCHAR
STARTCHAR ninedeva
ENCODING 2415
SWIDTH 551 0
DWIDTH 4 0
BBX 3 6 1 -1
BITMAP
C0
C0
80
40
20
20
ENDCHAR
STARTCHAR abbreviationsigndeva
ENCODING 2416
SWIDTH 426 0
DWIDTH 3 0
BBX 2 2 1 2
BITMAP
C0
80
ENDCHAR
STARTCHAR uni0971
ENCODING 2417
SWIDTH 317 0
DWIDTH 3 0
BBX 1 1 1 4
BITMAP
80
ENDCHAR
STARTCHAR acandradeva
ENCODING 2418
SWIDTH 764 0
DWIDTH 6 0
BBX 6 7 0 0
BITMAP
14
08
7C
34
98
54
24
ENDCHAR
STARTCHAR oedeva
ENCODING 2419
SWIDTH 764 0
DWIDTH 6 0
BBX 6 6 0 0
BITMAP
04
7C
34
98
54
24
ENDCHAR
STARTCHAR ooedeva
ENCODING 2420
SWIDTH 1023 0
DWIDTH 8 0
BBX 8 6 0 0
BITMAP
01
7F
35
99
55
25
ENDCHAR
STARTCHAR awdeva
ENCODING 2421
SWIDTH 1023 0
DWIDTH 8 0
BBX 8 7 0 0
BITMAP
0A
07
7F
35
99
55
25
ENDCHAR
STARTCHAR uedeva
ENCODING 2422
SWIDTH 764 0
DWIDTH 6 0
BBX 6 6 0 -1
BITMAP
7C
34
98
54
24
38
ENDCHAR
STARTCHAR uuedeva
ENCODING 2423
SWIDTH 764 0
DWIDTH 6 0
BBX 6 7 0 -2
BITMAP
7C
34
98
54
24
28
38
ENDCHAR
STARTCHAR marwariddadeva
ENCODING 2424
SWIDTH 555 0
DWIDTH 4 0
BBX 5 5 0 0
BITMAP
F8
60
D0
10
10
ENDCHAR
STARTCHAR zhadeva
ENCODING 2425
SWIDTH 742 0
DWIDTH 6 0
BBX 6 6 0 -1
BITMAP
FC
B8
98
78
58
20
ENDCHAR
STARTCHAR heavyyadeva
ENCODING 2426
SWIDTH 580 0
DWIDTH 5 0
BBX 5 5 0 0
BITMAP
F8
50
B0
70
10
ENDCHAR
STARTCHAR gabardeva
ENCODING 2427
SWIDTH 563 0
DWIDTH 5 0
BBX 5 5 0 0
BITMAP
F8
50
D0
10
70
ENDCHAR
STARTCHAR jabardeva
ENCODING 2428
SWIDTH 723 0
DWIDTH 6 0
BBX 6 5 0 0
BITMAP
FC
B8
98
78
78
ENDCHAR
STARTCHAR uni097D
ENCODING 2429
SWIDTH 469 0
DWIDTH 4 0
BBX 3 5 0 0
BITMAP
E0
20
60
40
40
ENDCHAR
STARTCHAR ddabardeva
ENCODING 2430
SWIDTH 577 0
DWIDTH 5 0
BBX 5 5 0 0
BITMAP
F8
70
70
D0
F0
ENDCHAR
STARTCHAR babardeva
ENCODING 2431
SWIDTH 571 0
DWIDTH 5 0
BBX 5 5 0 0
BITMAP
F8
70
B0
70
70
ENDCHAR
STARTCHAR uni1AB0
ENCODING 6832
SWIDTH 0 0
DWIDTH 0 0
BBX 6 1 -3 5
BITMAP
FC
ENDCHAR
STARTCHAR uni1AB1
ENCODING 6833
SWIDTH 0 0
DWIDTH 0 0
BBX 4 2 -2 5
BITMAP
40
F0
ENDCHAR
STARTCHAR uni1AB2
ENCODING 6834
SWIDTH 0 0
DWIDTH 0 0
BBX 4 2 -2 5
BITMAP
F0
F0
ENDCHAR
STARTCHAR uni1AB3
ENCODING 6835
SWIDTH 0 0
DWIDTH 0 0
BBX 2 2 -1 5
BITMAP
80
C0
ENDCHAR
STARTCHAR uni1AB4
ENCODING 6836
SWIDTH 0 0
DWIDTH 0 0
BBX 2 2 -1 5
BITMAP
80
C0
ENDCHAR
STARTCHAR uni1AB5
ENCODING 6837
SWIDTH 0 0
DWIDTH 0 0
BBX 4 1 -2 -2
BITMAP
F0
ENDCHAR
STARTCHAR uni1AB6
ENCODING 6838
SWIDTH 0 0
DWIDTH 0 0
BBX 8 1 -4 -2
BITMAP
FF
ENDCHAR
STARTCHAR uni1AB7
ENCODING 6839
SWIDTH 0 0
DWIDTH 0 0
BBX 1 2 0 -2
BITMAP
80
80
ENDCHAR
STARTCHAR uni1AB8
ENCODING 6840
SWIDTH 0 0
DWIDTH 0 0
BBX 2 2 -1 -2
BITMAP
C0
C0
ENDCHAR
STARTCHAR uni1AB9
ENCODING 6841
SWIDTH 0 0
DWIDTH 0 0
BBX 2 2 -5 -2
BITMAP
40
80
ENDCHAR
STARTCHAR uni1ABA
ENCODING 6842
SWIDTH 0 0
DWIDTH 0 0
BBX 1 2 -4 -2
BITMAP
80
80
ENDCHAR
STARTCHAR uni1ABB
ENCODING 6843
SWIDTH 0 0
DWIDTH 0 0
BBX 4 2 -2 5
BITMAP
90
90
ENDCHAR
STARTCHAR uni1ABC
ENCODING 6844
SWIDTH 0 0
DWIDTH 0 0
BBX 6 2 -3 5
BITMAP
C8
CC
ENDCHAR
STARTCHAR uni1ABD
ENCODING 6845
SWIDTH 0 0
DWIDTH 0 0
BBX 4 2 -2 -2
BITMAP
90
90
ENDCHAR
STARTCHAR uni1ABE
ENCODING 6846
SWIDTH 0 0
DWIDTH 0 0
BBX 6 2 -3 1
BITMAP
84
84
ENDCHAR
STARTCHAR wbelowcomb
ENCODING 6847
SWIDTH 0 0
DWIDTH 0 0
BBX 2 2 -1 -2
BITMAP
C0
C0
ENDCHAR
STARTCHAR wturnedbelowcomb
ENCODING 6848
SWIDTH 0 0
DWIDTH 0 0
BBX 2 1 -1 -2
BITMAP
C0
ENDCHAR
STARTCHAR veroundedcy
ENCODING 7296
SWIDTH 558 0
DWIDTH 4 0
BBX 4 6 0 0
BITMAP
70
70
80
A0
D0
70
ENDCHAR
STARTCHAR delongleggedcy
ENCODING 7297
SWIDTH 581 0
DWIDTH 5 0
BBX 4 6 0 -2
BITMAP
70
50
50
F0
90
90
ENDCHAR
STARTCHAR onarrowcy
ENCODING 7298
SWIDTH 456 0
DWIDTH 4 0
BBX 3 4 0 0
BITMAP
E0
A0
A0
60
ENDCHAR
STARTCHAR eswidecy
ENCODING 7299
SWIDTH 610 0
DWIDTH 5 0
BBX 5 4 0 0
BITMAP
78
80
80
78
ENDCHAR
STARTCHAR tetallcy
ENCODING 7300
SWIDTH 390 0
DWIDTH 3 0
BBX 4 6 -1 0
BITMAP
F0
10
20
20
20
20
ENDCHAR
STARTCHAR tethreeleggedcy
ENCODING 7301
SWIDTH 898 0
DWIDTH 7 0
BBX 6 4 1 0
BITMAP
FC
A4
A4
A4
ENDCHAR
STARTCHAR hardsigntallcy
ENCODING 7302
SWIDTH 633 0
DWIDTH 5 0
BBX 5 6 0 0
BITMAP
C0
40
40
70
48
70
ENDCHAR
STARTCHAR yattallcy
ENCODING 7303
SWIDTH 634 0
DWIDTH 5 0
BBX 5 6 0 0
BITMAP
40
40
E0
70
48
70
ENDCHAR
STARTCHAR ukunblendedcy
ENCODING 7304
SWIDTH 600 0
DWIDTH 5 0
BBX 4 6 0 0
BITMAP
D0
50
70
90
90
70
ENDCHAR
STARTCHAR uni1CD0
ENCODING 7376
SWIDTH 0 0
DWIDTH 0 0
BBX 3 2 -3 8
BITMAP
40
A0
ENDCHAR
STARTCHAR uni1CD1
ENCODING 7377
SWIDTH 0 0
DWIDTH 0 0
BBX 3 3 -3 7
BITMAP
40
E0
40
ENDCHAR
STARTCHAR uni1CD2
ENCODING 7378
SWIDTH 0 0
DWIDTH 0 0
BBX 3 1 -3 8
BITMAP
E0
ENDCHAR
STARTCHAR uni1CD3
ENCODING 7379
SWIDTH 274 0
DWIDTH 2 0
BBX 2 2 0 5
BITMAP
40
C0
ENDCHAR
STARTCHAR uni1CD4
ENCODING 7380
SWIDTH 0 0
DWIDTH 0 0
BBX 2 1 -2 2
BITMAP
C0
ENDCHAR
STARTCHAR uni1CD5
ENCODING 7381
SWIDTH 0 0
DWIDTH 0 0
BBX 4 2 -4 -2
BITMAP
90
70
ENDCHAR
STARTCHAR uni1CD6
ENCODING 7382
SWIDTH 0 0
DWIDTH 0 0
BBX 2 2 -3 -2
BITMAP
80
C0
ENDCHAR
STARTCHAR uni1CD7
ENCODING 7383
SWIDTH 0 0
DWIDTH 0 0
BBX 3 2 -4 -2
BITMAP
40
E0
ENDCHAR
STARTCHAR uni1CD8
ENCODING 7384
SWIDTH 0 0
DWIDTH 0 0
BBX 4 2 -3 -2
BITMAP
90
60
ENDCHAR
STARTCHAR uni1CD9
ENCODING 7385
SWIDTH 0 0
DWIDTH 0 0
BBX 3 2 -2 -2
BITMAP
C0
A0
ENDCHAR
STARTCHAR uni1CDA
ENCODING 7386
SWIDTH 0 0
DWIDTH 0 0
BBX 2 2 -2 5
BITMAP
C0
C0
ENDCHAR
STARTCHAR uni1CDB
ENCODING 7387
SWIDTH 0 0
DWIDTH 0 0
BBX 2 2 -2 5
BITMAP
C0
C0
ENDCHAR
STARTCHAR uni1CDC
ENCODING 7388
SWIDTH 0 0
DWIDTH 0 0
BBX 1 2 -2 -2
BITMAP
80
80
ENDCHAR
STARTCHAR uni1CDD
ENCODING 7389
SWIDTH 0 0
DWIDTH 0 0
BBX 2 1 -2 -2
BITMAP
C0
ENDCHAR
STARTCHAR uni1CDE
ENCODING 7390
SWIDTH 0 0
DWIDTH 0 0
BBX 1 1 -3 -1
BITMAP
80
ENDCHAR
STARTCHAR uni1CDF
ENCODING 7391
SWIDTH 0 0
DWIDTH 0 0
BBX 2 1 -4 -1
BITMAP
C0
ENDCHAR
STARTCHAR uni1CE0
ENCODING 7392
SWIDTH 0 0
DWIDTH 0 0
BBX 3 2 0 4
BITMAP
E0
40
ENDCHAR
STARTCHAR uni1CE1
ENCODING 7393
SWIDTH 396 0
DWIDTH 3 0
BBX 4 8 0 -1
BITMAP
70
40
40
40
40
40
40
C0
ENDCHAR
STARTCHAR uni1CE2
ENCODING 7394
SWIDTH 0 0
DWIDTH 0 0
BBX 2 1 -2 2
BITMAP
C0
ENDCHAR
STARTCHAR uni1CE3
ENCODING 7395
SWIDTH 0 0
DWIDTH 0 0
BBX 2 3 -1 2
BITMAP
80
40
C0
ENDCHAR
STARTCHAR uni1CE4
ENCODING 7396
SWIDTH 0 0
DWIDTH 0 0
BBX 3 3 0 2
BITMAP
40
80
E0
ENDCHAR
STARTCHAR uni1CE5
ENCODING 7397
SWIDTH 0 0
DWIDTH 0 0
BBX 3 3 0 0
BITMAP
60
80
40
ENDCHAR
STARTCHAR uni1CE6
ENCODING 7398
SWIDTH 0 0
DWIDTH 0 0
BBX 2 3 -1 0
BITMAP
80
40
40
ENDCHAR
STARTCHAR uni1CE7
ENCODING 7399
SWIDTH 0 0
DWIDTH 0 0
BBX 3 4 -1 2
BITMAP
E0
80
40
C0
ENDCHAR
STARTCHAR uni1CE8
ENCODING 7400
SWIDTH 0 0
DWIDTH 0 0
BBX 3 5 0 -2
BITMAP
60
80
40
A0
40
ENDCHAR
STARTCHAR uni1CE9
ENCODING 7401
SWIDTH 798 0
DWIDTH 6 0
BBX 6 5 0 0
BITMAP
7C
EC
84
84
78
ENDCHAR
STARTCHAR uni1CEA
ENCODING 7402
SWIDTH 748 0
DWIDTH 6 0
BBX 6 5 0 0
BITMAP
FC
78
48
48
78
ENDCHAR
STARTCHAR uni1CEB
ENCODING 7403
SWIDTH 751 0
DWIDTH 6 0
BBX 6 5 0 0
BITMAP
E8
74
4C
44
78
ENDCHAR
STARTCHAR uni1CEC
ENCODING 7404
SWIDTH 828 0
DWIDTH 7 0
BBX 6 5 0 0
BITMAP
E8
78
4C
4C
74
ENDCHAR
STARTCHAR uni1CED
ENCODING 7405
SWIDTH 0 0
DWIDTH 0 0
BBX 2 2 -1 -2
BITMAP
80
40
ENDCHAR
STARTCHAR uni1CEE
ENCODING 7406
SWIDTH 539 0
DWIDTH 4 0
BBX 4 5 0 0
BITMAP
60
80
70
40
70
ENDCHAR
STARTCHAR uni1CEF
ENCODING 7407
SWIDTH 460 0
DWIDTH 4 0
BBX 3 5 0 0
BITMAP
60
A0
60
60
60
ENDCHAR
STARTCHAR uni1CF0
ENCODING 7408
SWIDTH 543 0
DWIDTH 4 0
BBX 4 5 0 0
BITMAP
60
50
60
90
70
ENDCHAR
STARTCHAR uni1CF1
ENCODING 7409
SWIDTH 503 0
DWIDTH 4 0
BBX 4 5 0 0
BITMAP
40
A0
E0
10
60
ENDCHAR
STARTCHAR uni1CF2
ENCODING 7410
SWIDTH 514 0
DWIDTH 4 0
BBX 4 4 0 0
BITMAP
90
60
60
90
ENDCHAR
STARTCHAR uni1CF3
ENCODING 7411
SWIDTH 542 0
DWIDTH 4 0
BBX 4 4 0 0
BITMAP
90
60
60
90
ENDCHAR
STARTCHAR uni1CF4
ENCODING 7412
SWIDTH 0 0
DWIDTH 0 0
BBX 4 1 -3 8
BITMAP
F0
ENDCHAR
STARTCHAR uni1CF5
ENCODING 7413
SWIDTH 522 0
DWIDTH 4 0
BBX 4 4 0 0
BITMAP
D0
60
60
90
ENDCHAR
STARTCHAR uni1CF6
ENCODING 7414
SWIDTH 628 0
DWIDTH 5 0
BBX 5 1 0 2
BITMAP
F8
ENDCHAR
STARTCHAR uni1CF8
ENCODING 7416
SWIDTH 0 0
DWIDTH 0 0
BBX 2 2 -2 5
BITMAP
80
C0
ENDCHAR
STARTCHAR uni1CF9
ENCODING 7417
SWIDTH 0 0
DWIDTH 0 0
BBX 4 2 -3 5
BITMAP
60
F0
ENDCHAR
STARTCHAR uni1D00
ENCODING 7424
SWIDTH 527 0
DWIDTH 4 0
BBX 4 4 0 0
BITMAP
60
60
70
90
ENDCHAR
STARTCHAR uni1D01
ENCODING 7425
SWIDTH 709 0
DWIDTH 6 0
BBX 5 4 0 0
BITMAP
38
58
70
98
ENDCHAR
STARTCHAR aeturned
ENCODING 7426
SWIDTH 864 0
DWIDTH 7 0
BBX 7 4 0 0
BITMAP
FE
14
F8
7C
ENDCHAR
STARTCHAR Bbarredsmall
ENCODING 7427
SWIDTH 576 0
DWIDTH 5 0
BBX 5 4 0 0
BITMAP
70
F8
50
70
ENDCHAR
STARTCHAR uni1D04
ENCODING 7428
SWIDTH 522 0
DWIDTH 4 0
BBX 4 4 0 0
BITMAP
70
80
80
70
ENDCHAR
STARTCHAR uni1D05
ENCODING 7429
SWIDTH 596 0
DWIDTH 5 0
BBX 3 4 1 0
BITMAP
E0
A0
A0
E0
ENDCHAR
STARTCHAR Ethsmall
ENCODING 7430
SWIDTH 596 0
DWIDTH 5 0
BBX 4 4 0 0
BITMAP
70
F0
50
70
ENDCHAR
STARTCHAR uni1D07
ENCODING 7431
SWIDTH 465 0
DWIDTH 4 0
BBX 2 4 1 0
BITMAP
C0
C0
80
C0
ENDCHAR
STARTCHAR eturnedopen
ENCODING 7432
SWIDTH 490 0
DWIDTH 4 0
BBX 4 4 0 0
BITMAP
F0
60
20
E0
ENDCHAR
STARTCHAR iturned
ENCODING 7433
SWIDTH 275 0
DWIDTH 2 0
BBX 1 6 1 -2
BITMAP
80
80
80
80
00
80
ENDCHAR
STARTCHAR uni1D0A
ENCODING 7434
SWIDTH 347 0
DWIDTH 3 0
BBX 2 4 0 0
BITMAP
40
40
40
C0
ENDCHAR
STARTCHAR uni1D0B
ENCODING 7435
SWIDTH 512 0
DWIDTH 4 0
BBX 3 4 1 0
BITMAP
E0
80
C0
A0
ENDCHAR
STARTCHAR Lstrokesmall
ENCODING 7436
SWIDTH 441 0
DWIDTH 4 0
BBX 3 4 0 0
BITMAP
40
40
80
60
ENDCHAR
STARTCHAR uni1D0D
ENCODING 7437
SWIDTH 728 0
DWIDTH 6 0
BBX 4 4 1 0
BITMAP
90
B0
F0
D0
ENDCHAR
STARTCHAR Nreversedsmall
ENCODING 7438
SWIDTH 618 0
DWIDTH 5 0
BBX 3 4 1 0
BITMAP
A0
E0
A0
A0
ENDCHAR
STARTCHAR uni1D0F
ENCODING 7439
SWIDTH 634 0
DWIDTH 5 0
BBX 5 4 0 0
BITMAP
70
88
88
70
ENDCHAR
STARTCHAR Oopensmall
ENCODING 7440
SWIDTH 522 0
DWIDTH 4 0
BBX 4 4 0 0
BITMAP
E0
10
10
E0
ENDCHAR
STARTCHAR osideways
ENCODING 7441
SWIDTH 606 0
DWIDTH 5 0
BBX 5 4 0 0
BITMAP
70
88
88
70
ENDCHAR
STARTCHAR osidewaysopen
ENCODING 7442
SWIDTH 606 0
DWIDTH 5 0
BBX 5 3 0 1
BITMAP
70
88
88
ENDCHAR
STARTCHAR oslashsideways
ENCODING 7443
SWIDTH 606 0
DWIDTH 5 0
BBX 5 4 0 0
BITMAP
F0
E8
98
78
ENDCHAR
STARTCHAR oeturned
ENCODING 7444
SWIDTH 946 0
DWIDTH 8 0
BBX 7 4 0 0
BITMAP
FE
12
F2
6E
ENDCHAR
STARTCHAR uni1D15
ENCODING 7445
SWIDTH 551 0
DWIDTH 4 0
BBX 4 4 0 0
BITMAP
50
60
90
70
ENDCHAR
STARTCHAR otophalf
ENCODING 7446
SWIDTH 634 0
DWIDTH 5 0
BBX 5 2 0 2
BITMAP
70
88
ENDCHAR
STARTCHAR obottomhalf
ENCODING 7447
SWIDTH 634 0
DWIDTH 5 0
BBX 5 2 0 0
BITMAP
88
70
ENDCHAR
STARTCHAR uni1D18
ENCODING 7448
SWIDTH 502 0
DWIDTH 4 0
BBX 3 4 1 0
BITMAP
E0
A0
C0
80
ENDCHAR
STARTCHAR Rreversedsmall
ENCODING 7449
SWIDTH 527 0
DWIDTH 4 0
BBX 4 4 0 0
BITMAP
70
70
50
90
ENDCHAR
STARTCHAR Rturnedsmall
ENCODING 7450
SWIDTH 527 0
DWIDTH 4 0
BBX 4 4 0 0
BITMAP
D0
70
90
70
ENDCHAR
STARTCHAR uni1D1B
ENCODING 7451
SWIDTH 465 0
DWIDTH 4 0
BBX 4 4 0 0
BITMAP
F0
40
40
40
ENDCHAR
STARTCHAR uni1D1C
ENCODING 7452
SWIDTH 596 0
DWIDTH 5 0
BBX 3 4 1 0
BITMAP
A0
A0
A0
E0
ENDCHAR
STARTCHAR usideways
ENCODING 7453
SWIDTH 618 0
DWIDTH 5 0
BBX 5 4 0 0
BITMAP
F8
08
08
F0
ENDCHAR
STARTCHAR udieresissideways
ENCODING 7454
SWIDTH 787 0
DWIDTH 6 0
BBX 6 4 0 0
BITMAP
3C
84
84
38
ENDCHAR
STARTCHAR msidewaysturned
ENCODING 7455
SWIDTH 618 0
DWIDTH 5 0
BBX 5 6 0 -1
BITMAP
F8
08
F8
08
08
F0
ENDCHAR
STARTCHAR uni1D20
ENCODING 7456
SWIDTH 479 0
DWIDTH 4 0
BBX 4 4 0 0
BITMAP
90
A0
60
40
ENDCHAR
STARTCHAR uni1D21
ENCODING 7457
SWIDTH 712 0
DWIDTH 6 0
BBX 6 4 0 0
BITMAP
A4
B8
58
48
ENDCHAR
STARTCHAR uni1D22
ENCODING 7458
SWIDTH 470 0
DWIDTH 4 0
BBX 3 4 0 0
BITMAP
E0
20
40
E0
ENDCHAR
STARTCHAR Ezhsmall
ENCODING 7459
SWIDTH 490 0
DWIDTH 4 0
BBX 4 4 0 0
BITMAP
E0
60
10
E0
ENDCHAR
STARTCHAR spirantvoicedlaryngeal
ENCODING 7460
SWIDTH 426 0
DWIDTH 3 0
BBX 3 6 0 0
BITMAP
E0
20
60
40
80
E0
ENDCHAR
STARTCHAR uni1D25
ENCODING 7461
SWIDTH 505 0
DWIDTH 4 0
BBX 4 4 0 0
BITMAP
60
60
60
F0
ENDCHAR
STARTCHAR uni1D26
ENCODING 7462
SWIDTH 441 0
DWIDTH 4 0
BBX 2 4 1 0
BITMAP
C0
80
80
80
ENDCHAR
STARTCHAR uni1D27
ENCODING 7463
SWIDTH 498 0
DWIDTH 4 0
BBX 4 4 0 0
BITMAP
60
60
A0
90
ENDCHAR
STARTCHAR uni1D28
ENCODING 7464
SWIDTH 596 0
DWIDTH 5 0
BBX 3 4 1 0
BITMAP
E0
A0
A0
A0
ENDCHAR
STARTCHAR uni1D29
ENCODING 7465
SWIDTH 502 0
DWIDTH 4 0
BBX 3 4 1 0
BITMAP
E0
A0
C0
80
ENDCHAR
STARTCHAR uni1D2A
ENCODING 7466
SWIDTH 651 0
DWIDTH 5 0
BBX 5 4 0 0
BITMAP
A8
A8
70
20
ENDCHAR
STARTCHAR uni1D2B
ENCODING 7467
SWIDTH 579 0
DWIDTH 5 0
BBX 4 4 0 0
BITMAP
70
50
50
90
ENDCHAR
STARTCHAR uni1D2C
ENCODING 7468
SWIDTH 415 0
DWIDTH 3 0
BBX 3 4 0 2
BITMAP
40
40
60
A0
ENDCHAR
STARTCHAR AEmod
ENCODING 7469
SWIDTH 573 0
DWIDTH 5 0
BBX 4 4 0 2
BITMAP
30
70
60
B0
ENDCHAR
STARTCHAR uni1D2E
ENCODING 7470
SWIDTH 423 0
DWIDTH 3 0
BBX 3 4 0 2
BITMAP
E0
E0
A0
E0
ENDCHAR
STARTCHAR Bbarredmod
ENCODING 7471
SWIDTH 423 0
DWIDTH 3 0
BBX 3 4 0 2
BITMAP
E0
E0
A0
E0
ENDCHAR
STARTCHAR uni1D30
ENCODING 7472
SWIDTH 475 0
DWIDTH 4 0
BBX 3 4 0 2
BITMAP
E0
A0
A0
E0
ENDCHAR
STARTCHAR uni1D31
ENCODING 7473
SWIDTH 361 0
DWIDTH 3 0
BBX 3 4 0 2
BITMAP
E0
C0
80
E0
ENDCHAR
STARTCHAR Ereversedmod
ENCODING 7474
SWIDTH 361 0
DWIDTH 3 0
BBX 2 4 0 2
BITMAP
C0
C0
40
C0
ENDCHAR
STARTCHAR uni1D33
ENCODING 7475
SWIDTH 473 0
DWIDTH 4 0
BBX 3 4 0 2
BITMAP
60
80
A0
60
ENDCHAR
STARTCHAR uni1D34
ENCODING 7476
SWIDTH 482 0
DWIDTH 4 0
BBX 3 4 0 2
BITMAP
A0
E0
A0
A0
ENDCHAR
STARTCHAR uni1D35
ENCODING 7477
SWIDTH 220 0
DWIDTH 2 0
BBX 2 4 0 2
BITMAP
C0
80
80
C0
ENDCHAR
STARTCHAR uni1D36
ENCODING 7478
SWIDTH 177 0
DWIDTH 1 0
BBX 1 5 0 1
BITMAP
80
80
80
80
80
ENDCHAR
STARTCHAR uni1D37
ENCODING 7479
SWIDTH 402 0
DWIDTH 3 0
BBX 3 4 0 2
BITMAP
A0
C0
C0
A0
ENDCHAR
STARTCHAR uni1D38
ENCODING 7480
SWIDTH 341 0
DWIDTH 3 0
BBX 3 4 0 2
BITMAP
80
80
80
E0
ENDCHAR
STARTCHAR uni1D39
ENCODING 7481
SWIDTH 590 0
DWIDTH 5 0
BBX 4 4 0 2
BITMAP
90
D0
F0
B0
ENDCHAR
STARTCHAR uni1D3A
ENCODING 7482
SWIDTH 494 0
DWIDTH 4 0
BBX 3 4 0 2
BITMAP
A0
E0
A0
A0
ENDCHAR
STARTCHAR Nreversedmod
ENCODING 7483
SWIDTH 494 0
DWIDTH 4 0
BBX 3 4 0 2
BITMAP
A0
A0
E0
A0
ENDCHAR
STARTCHAR uni1D3C
ENCODING 7484
SWIDTH 508 0
DWIDTH 4 0
BBX 4 4 0 2
BITMAP
60
90
90
60
ENDCHAR
STARTCHAR uni1D3D
ENCODING 7485
SWIDTH 436 0
DWIDTH 3 0
BBX 3 4 0 2
BITMAP
A0
60
A0
60
ENDCHAR
STARTCHAR uni1D3E
ENCODING 7486
SWIDTH 393 0
DWIDTH 3 0
BBX 3 4 0 2
BITMAP
C0
A0
C0
80
ENDCHAR
STARTCHAR uni1D3F
ENCODING 7487
SWIDTH 404 0
DWIDTH 3 0
BBX 3 4 0 2
BITMAP
E0
A0
E0
A0
ENDCHAR
STARTCHAR uni1D40
ENCODING 7488
SWIDTH 361 0
DWIDTH 3 0
BBX 3 4 0 2
BITMAP
E0
40
40
40
ENDCHAR
STARTCHAR uni1D41
ENCODING 7489
SWIDTH 475 0
DWIDTH 4 0
BBX 3 4 0 2
BITMAP
A0
A0
A0
60
ENDCHAR
STARTCHAR uni1D42
ENCODING 7490
SWIDTH 605 0
DWIDTH 5 0
BBX 5 4 0 2
BITMAP
A8
E8
50
50
ENDCHAR
STARTCHAR uni1D43
ENCODING 7491
SWIDTH 365 0
DWIDTH 3 0
BBX 3 3 0 2
BITMAP
E0
E0
E0
ENDCHAR
STARTCHAR aturnedmod
ENCODING 7492
SWIDTH 365 0
DWIDTH 3 0
BBX 3 3 0 2
BITMAP
E0
C0
40
ENDCHAR
STARTCHAR uni1D45
ENCODING 7493
SWIDTH 400 0
DWIDTH 3 0
BBX 3 3 0 2
BITMAP
E0
A0
60
ENDCHAR
STARTCHAR aeturnedmod
ENCODING 7494
SWIDTH 562 0
DWIDTH 5 0
BBX 4 3 0 2
BITMAP
F0
F0
70
ENDCHAR
STARTCHAR uni1D47
ENCODING 7495
SWIDTH 400 0
DWIDTH 3 0
BBX 3 4 0 2
BITMAP
80
E0
A0
E0
ENDCHAR
STARTCHAR uni1D48
ENCODING 7496
SWIDTH 400 0
DWIDTH 3 0
BBX 3 4 0 2
BITMAP
20
E0
A0
60
ENDCHAR
STARTCHAR uni1D49
ENCODING 7497
SWIDTH 367 0
DWIDTH 3 0
BBX 3 3 0 2
BITMAP
E0
E0
60
ENDCHAR
STARTCHAR uni1D4A
ENCODING 7498
SWIDTH 367 0
DWIDTH 3 0
BBX 3 3 0 2
BITMAP
E0
E0
40
ENDCHAR
STARTCHAR eopenmod
ENCODING 7499
SWIDTH 314 0
DWIDTH 3 0
BBX 2 3 0 2
BITMAP
C0
40
C0
ENDCHAR
STARTCHAR eturnedopenmod
ENCODING 7500
SWIDTH 318 0
DWIDTH 3 0
BBX 2 3 0 2
BITMAP
C0
40
C0
ENDCHAR
STARTCHAR uni1D4D
ENCODING 7501
SWIDTH 400 0
DWIDTH 3 0
BBX 3 4 0 1
BITMAP
E0
A0
60
E0
ENDCHAR
STARTCHAR iturnedmod
ENCODING 7502
SWIDTH 179 0
DWIDTH 1 0
BBX 1 4 0 1
BITMAP
80
80
80
80
ENDCHAR
STARTCHAR uni1D4F
ENCODING 7503
SWIDTH 347 0
DWIDTH 3 0
BBX 3 4 0 2
BITMAP
80
E0
C0
A0
ENDCHAR
STARTCHAR uni1D50
ENCODING 7504
SWIDTH 608 0
DWIDTH 5 0
BBX 4 3 0 2
BITMAP
F0
B0
B0
ENDCHAR
STARTCHAR uni1D51
ENCODING 7505
SWIDTH 402 0
DWIDTH 3 0
BBX 3 4 0 1
BITMAP
E0
A0
A0
20
ENDCHAR
STARTCHAR uni1D52
ENCODING 7506
SWIDTH 393 0
DWIDTH 3 0
BBX 3 3 0 2
BITMAP
E0
A0
40
ENDCHAR
STARTCHAR oopenmod
ENCODING 7507
SWIDTH 312 0
DWIDTH 3 0
BBX 2 3 0 2
BITMAP
C0
40
C0
ENDCHAR
STARTCHAR otophalfmod
ENCODING 7508
SWIDTH 412 0
DWIDTH 3 0
BBX 3 1 0 4
BITMAP
E0
ENDCHAR
STARTCHAR obottomhalfmod
ENCODING 7509
SWIDTH 412 0
DWIDTH 3 0
BBX 3 2 0 2
BITMAP
A0
40
ENDCHAR
STARTCHAR uni1D56
ENCODING 7510
SWIDTH 400 0
DWIDTH 3 0
BBX 3 4 0 1
BITMAP
E0
A0
E0
80
ENDCHAR
STARTCHAR uni1D57
ENCODING 7511
SWIDTH 235 0
DWIDTH 2 0
BBX 2 3 0 2
BITMAP
C0
80
40
ENDCHAR
STARTCHAR uni1D58
ENCODING 7512
SWIDTH 402 0
DWIDTH 3 0
BBX 3 3 0 2
BITMAP
A0
A0
60
ENDCHAR
STARTCHAR usidewaysmod
ENCODING 7513
SWIDTH 402 0
DWIDTH 3 0
BBX 3 2 0 3
BITMAP
E0
E0
ENDCHAR
STARTCHAR mturnedmod
ENCODING 7514
SWIDTH 608 0
DWIDTH 5 0
BBX 4 3 0 2
BITMAP
B0
B0
70
ENDCHAR
STARTCHAR uni1D5B
ENCODING 7515
SWIDTH 330 0
DWIDTH 3 0
BBX 3 3 0 2
BITMAP
A0
C0
40
ENDCHAR
STARTCHAR uni1D5C
ENCODING 7516
SWIDTH 328 0
DWIDTH 3 0
BBX 3 3 0 2
BITMAP
C0
40
A0
ENDCHAR
STARTCHAR uni1D5D
ENCODING 7517
SWIDTH 410 0
DWIDTH 3 0
BBX 3 5 0 1
BITMAP
E0
E0
A0
E0
80
ENDCHAR
STARTCHAR uni1D5E
ENCODING 7518
SWIDTH 337 0
DWIDTH 3 0
BBX 3 4 0 1
BITMAP
A0
A0
40
40
ENDCHAR
STARTCHAR uni1D5F
ENCODING 7519
SWIDTH 393 0
DWIDTH 3 0
BBX 3 4 0 2
BITMAP
E0
40
A0
40
ENDCHAR
STARTCHAR uni1D60
ENCODING 7520
SWIDTH 471 0
DWIDTH 4 0
BBX 3 5 0 1
BITMAP
40
A0
E0
60
40
ENDCHAR
STARTCHAR uni1D61
ENCODING 7521
SWIDTH 358 0
DWIDTH 3 0
BBX 3 4 0 1
BITMAP
A0
40
40
A0
ENDCHAR
STARTCHAR uni1D62
ENCODING 7522
SWIDTH 168 0
DWIDTH 1 0
BBX 1 4 0 -1
BITMAP
80
80
80
80
ENDCHAR
STARTCHAR uni1D63
ENCODING 7523
SWIDTH 268 0
DWIDTH 2 0
BBX 2 3 0 -1
BITMAP
C0
80
80
ENDCHAR
STARTCHAR uni1D64
ENCODING 7524
SWIDTH 402 0
DWIDTH 3 0
BBX 3 3 0 -1
BITMAP
A0
A0
60
ENDCHAR
STARTCHAR uni1D65
ENCODING 7525
SWIDTH 330 0
DWIDTH 3 0
BBX 3 3 0 -1
BITMAP
A0
C0
40
ENDCHAR
STARTCHAR uni1D66
ENCODING 7526
SWIDTH 410 0
DWIDTH 3 0
BBX 3 5 0 -2
BITMAP
E0
E0
A0
E0
80
ENDCHAR
STARTCHAR uni1D67
ENCODING 7527
SWIDTH 337 0
DWIDTH 3 0
BBX 3 4 0 -2
BITMAP
A0
A0
40
40
ENDCHAR
STARTCHAR uni1D68
ENCODING 7528
SWIDTH 393 0
DWIDTH 3 0
BBX 3 4 0 -2
BITMAP
40
A0
C0
80
ENDCHAR
STARTCHAR uni1D69
ENCODING 7529
SWIDTH 471 0
DWIDTH 4 0
BBX 3 5 0 -2
BITMAP
40
60
E0
60
40
ENDCHAR
STARTCHAR uni1D6A
ENCODING 7530
SWIDTH 358 0
DWIDTH 3 0
BBX 3 4 0 -2
BITMAP
A0
40
40
A0
ENDCHAR
STARTCHAR uni1D6B
ENCODING 7531
SWIDTH 930 0
DWIDTH 7 0
BBX 6 4 1 0
BITMAP
BC
BC
A0
FC
ENDCHAR
STARTCHAR uni1D6C
ENCODING 7532
SWIDTH 615 0
DWIDTH 5 0
BBX 4 6 0 0
BITMAP
A0
60
50
50
50
70
ENDCHAR
STARTCHAR uni1D6D
ENCODING 7533
SWIDTH 615 0
DWIDTH 5 0
BBX 5 6 0 0
BITMAP
18
30
50
90
90
70
ENDCHAR
STARTCHAR uni1D6E
ENCODING 7534
SWIDTH 344 0
DWIDTH 3 0
BBX 3 6 0 0
BITMAP
60
60
C0
E0
40
40
ENDCHAR
STARTCHAR uni1D6F
ENCODING 7535
SWIDTH 935 0
DWIDTH 7 0
BBX 8 4 0 0
BITMAP
7E
F3
5E
52
ENDCHAR
STARTCHAR uni1D70
ENCODING 7536
SWIDTH 618 0
DWIDTH 5 0
BBX 5 4 0 0
BITMAP
70
F8
50
50
ENDCHAR
STARTCHAR uni1D71
ENCODING 7537
SWIDTH 615 0
DWIDTH 5 0
BBX 4 6 0 -2
BITMAP
70
50
50
70
A0
40
ENDCHAR
STARTCHAR uni1D72
ENCODING 7538
SWIDTH 413 0
DWIDTH 3 0
BBX 3 4 0 0
BITMAP
60
40
C0
40
ENDCHAR
STARTCHAR uni1D73
ENCODING 7539
SWIDTH 346 0
DWIDTH 3 0
BBX 3 4 0 0
BITMAP
60
40
C0
40
ENDCHAR
STARTCHAR uni1D74
ENCODING 7540
SWIDTH 479 0
DWIDTH 4 0
BBX 4 4 0 0
BITMAP
E0
D0
30
E0
ENDCHAR
STARTCHAR uni1D75
ENCODING 7541
SWIDTH 361 0
DWIDTH 3 0
BBX 3 5 0 0
BITMAP
60
C0
A0
40
60
ENDCHAR
STARTCHAR uni1D76
ENCODING 7542
SWIDTH 470 0
DWIDTH 4 0
BBX 3 4 0 0
BITMAP
E0
E0
40
E0
ENDCHAR
STARTCHAR uni1D77
ENCODING 7543
SWIDTH 615 0
DWIDTH 5 0
BBX 3 6 1 0
BITMAP
E0
C0
A0
A0
A0
E0
ENDCHAR
STARTCHAR uni1D78
ENCODING 7544
SWIDTH 414 0
DWIDTH 3 0
BBX 3 3 0 2
BITMAP
A0
E0
A0
ENDCHAR
STARTCHAR uni1D79
ENCODING 7545
SWIDTH 586 0
DWIDTH 5 0
BBX 4 6 0 -2
BITMAP
70
40
70
90
90
70
ENDCHAR
STARTCHAR uni1D7A
ENCODING 7546
SWIDTH 979 0
DWIDTH 8 0
BBX 7 7 0 -1
BITMAP
14
6C
CA
52
72
72
80
ENDCHAR
STARTCHAR iotaserifedstroke
ENCODING 7547
SWIDTH 320 0
DWIDTH 3 0
BBX 2 4 0 0
BITMAP
C0
C0
40
C0
ENDCHAR
STARTCHAR uni1D7C
ENCODING 7548
SWIDTH 346 0
DWIDTH 3 0
BBX 2 4 0 0
BITMAP
40
C0
40
40
ENDCHAR
STARTCHAR uni1D7D
ENCODING 7549
SWIDTH 615 0
DWIDTH 5 0
BBX 5 6 0 -2
BITMAP
70
F8
48
70
40
40
ENDCHAR
STARTCHAR Usmallstroke
ENCODING 7550
SWIDTH 596 0
DWIDTH 5 0
BBX 5 4 0 0
BITMAP
90
F8
90
70
ENDCHAR
STARTCHAR uni1D7F
ENCODING 7551
SWIDTH 605 0
DWIDTH 5 0
BBX 5 4 0 0
BITMAP
D8
F8
88
70
ENDCHAR
STARTCHAR uni1D80
ENCODING 7552
SWIDTH 615 0
DWIDTH 5 0
BBX 3 8 1 -2
BITMAP
80
C0
A0
A0
A0
E0
20
40
ENDCHAR
STARTCHAR uni1D81
ENCODING 7553
SWIDTH 615 0
DWIDTH 5 0
BBX 5 8 0 -2
BITMAP
10
30
50
90
90
68
08
10
ENDCHAR
STARTCHAR uni1D82
ENCODING 7554
SWIDTH 344 0
DWIDTH 3 0
BBX 3 8 0 -2
BITMAP
60
60
C0
40
40
40
40
80
ENDCHAR
STARTCHAR uni1D83
ENCODING 7555
SWIDTH 780 0
DWIDTH 6 0
BBX 6 6 0 -2
BITMAP
70
90
90
6C
14
74
ENDCHAR
STARTCHAR uni1D84
ENCODING 7556
SWIDTH 534 0
DWIDTH 4 0
BBX 3 8 1 -2
BITMAP
80
80
E0
80
C0
A0
20
20
ENDCHAR
STARTCHAR uni1D85
ENCODING 7557
SWIDTH 258 0
DWIDTH 2 0
BBX 2 8 0 -2
BITMAP
40
40
40
40
40
40
40
80
ENDCHAR
STARTCHAR uni1D86
ENCODING 7558
SWIDTH 935 0
DWIDTH 7 0
BBX 6 6 1 -2
BITMAP
FC
A4
A4
A4
04
04
ENDCHAR
STARTCHAR uni1D87
ENCODING 7559
SWIDTH 618 0
DWIDTH 5 0
BBX 4 6 1 -2
BITMAP
E0
A0
A0
90
10
20
ENDCHAR
STARTCHAR uni1D88
ENCODING 7560
SWIDTH 615 0
DWIDTH 5 0
BBX 3 6 1 -2
BITMAP
E0
A0
A0
E0
A0
C0
ENDCHAR
STARTCHAR uni1D89
ENCODING 7561
SWIDTH 413 0
DWIDTH 3 0
BBX 3 6 0 -2
BITMAP
60
40
40
40
40
80
ENDCHAR
STARTCHAR uni1D8A
ENCODING 7562
SWIDTH 479 0
DWIDTH 4 0
BBX 3 6 0 -2
BITMAP
E0
40
20
E0
20
20
ENDCHAR
STARTCHAR uni1D8B
ENCODING 7563
SWIDTH 424 0
DWIDTH 3 0
BBX 3 8 0 -2
BITMAP
40
40
40
40
40
60
60
A0
ENDCHAR
STARTCHAR uni1D8C
ENCODING 7564
SWIDTH 508 0
DWIDTH 4 0
BBX 4 6 0 -2
BITMAP
90
50
60
70
10
20
ENDCHAR
STARTCHAR uni1D8D
ENCODING 7565
SWIDTH 529 0
DWIDTH 4 0
BBX 4 6 0 -2
BITMAP
D0
60
60
90
10
10
ENDCHAR
STARTCHAR uni1D8E
ENCODING 7566
SWIDTH 470 0
DWIDTH 4 0
BBX 3 6 0 -2
BITMAP
E0
20
40
E0
20
20
ENDCHAR
STARTCHAR uni1D8F
ENCODING 7567
SWIDTH 561 0
DWIDTH 4 0
BBX 5 6 0 -2
BITMAP
70
70
90
70
10
08
ENDCHAR
STARTCHAR uni1D90
ENCODING 7568
SWIDTH 615 0
DWIDTH 5 0
BBX 6 6 0 -2
BITMAP
70
90
90
68
08
04
ENDCHAR
STARTCHAR uni1D91
ENCODING 7569
SWIDTH 615 0
DWIDTH 5 0
BBX 5 8 0 -2
BITMAP
08
30
50
90
90
70
10
08
ENDCHAR
STARTCHAR uni1D92
ENCODING 7570
SWIDTH 564 0
DWIDTH 5 0
BBX 5 6 0 -2
BITMAP
70
F0
80
70
10
08
ENDCHAR
STARTCHAR uni1D93
ENCODING 7571
SWIDTH 493 0
DWIDTH 4 0
BBX 4 6 0 -2
BITMAP
F0
60
80
70
10
10
ENDCHAR
STARTCHAR uni1D94
ENCODING 7572
SWIDTH 490 0
DWIDTH 4 0
BBX 4 6 0 -2
BITMAP
F0
60
10
E0
80
40
ENDCHAR
STARTCHAR uni1D95
ENCODING 7573
SWIDTH 649 0
DWIDTH 5 0
BBX 5 6 0 -2
BITMAP
F0
10
F8
78
08
08
ENDCHAR
STARTCHAR uni1D96
ENCODING 7574
SWIDTH 258 0
DWIDTH 2 0
BBX 2 8 1 -2
BITMAP
80
00
80
80
80
80
80
40
ENDCHAR
STARTCHAR uni1D97
ENCODING 7575
SWIDTH 480 0
DWIDTH 4 0
BBX 3 6 0 -2
BITMAP
E0
20
20
E0
80
40
ENDCHAR
STARTCHAR uni1D98
ENCODING 7576
SWIDTH 258 0
DWIDTH 2 0
BBX 2 8 0 -2
BITMAP
40
40
40
40
40
80
80
80
ENDCHAR
STARTCHAR uni1D99
ENCODING 7577
SWIDTH 618 0
DWIDTH 5 0
BBX 4 6 1 -2
BITMAP
A0
A0
A0
F0
10
10
ENDCHAR
STARTCHAR uni1D9A
ENCODING 7578
SWIDTH 490 0
DWIDTH 4 0
BBX 4 6 0 -2
BITMAP
E0
60
10
E0
80
40
ENDCHAR
STARTCHAR uni1D9B
ENCODING 7579
SWIDTH 400 0
DWIDTH 3 0
BBX 3 3 0 2
BITMAP
E0
A0
E0
ENDCHAR
STARTCHAR uni1D9C
ENCODING 7580
SWIDTH 312 0
DWIDTH 3 0
BBX 2 3 0 2
BITMAP
C0
80
40
ENDCHAR
STARTCHAR uni1D9D
ENCODING 7581
SWIDTH 345 0
DWIDTH 3 0
BBX 3 3 0 2
BITMAP
E0
C0
E0
ENDCHAR
STARTCHAR uni1D9E
ENCODING 7582
SWIDTH 393 0
DWIDTH 3 0
BBX 3 4 0 2
BITMAP
60
60
A0
40
ENDCHAR
STARTCHAR ereversedopenmod
ENCODING 7583
SWIDTH 319 0
DWIDTH 3 0
BBX 2 3 0 2
BITMAP
C0
40
C0
ENDCHAR
STARTCHAR uni1DA0
ENCODING 7584
SWIDTH 224 0
DWIDTH 2 0
BBX 2 4 0 2
BITMAP
C0
C0
80
80
ENDCHAR
STARTCHAR uni1DA1
ENCODING 7585
SWIDTH 168 0
DWIDTH 1 0
BBX 1 4 0 1
BITMAP
80
80
80
80
ENDCHAR
STARTCHAR uni1DA2
ENCODING 7586
SWIDTH 400 0
DWIDTH 3 0
BBX 3 4 0 1
BITMAP
E0
A0
60
E0
ENDCHAR
STARTCHAR uni1DA3
ENCODING 7587
SWIDTH 402 0
DWIDTH 3 0
BBX 3 4 0 1
BITMAP
A0
A0
60
20
ENDCHAR
STARTCHAR uni1DA4
ENCODING 7588
SWIDTH 168 0
DWIDTH 1 0
BBX 1 4 0 2
BITMAP
80
80
80
80
ENDCHAR
STARTCHAR uni1DA5
ENCODING 7589
SWIDTH 225 0
DWIDTH 2 0
BBX 2 3 0 2
BITMAP
80
80
40
ENDCHAR
STARTCHAR iotaserifedmod
ENCODING 7590
SWIDTH 208 0
DWIDTH 2 0
BBX 1 3 0 2
BITMAP
80
80
80
ENDCHAR
STARTCHAR iotaserifedstrokemod
ENCODING 7591
SWIDTH 208 0
DWIDTH 2 0
BBX 1 3 0 2
BITMAP
80
80
80
ENDCHAR
STARTCHAR uni1DA8
ENCODING 7592
SWIDTH 168 0
DWIDTH 1 0
BBX 2 5 -1 1
BITMAP
40
40
40
40
C0
ENDCHAR
STARTCHAR uni1DA9
ENCODING 7593
SWIDTH 167 0
DWIDTH 1 0
BBX 2 5 0 1
BITMAP
80
80
80
80
40
ENDCHAR
STARTCHAR uni1DAA
ENCODING 7594
SWIDTH 168 0
DWIDTH 1 0
BBX 1 5 0 1
BITMAP
80
80
80
80
80
ENDCHAR
STARTCHAR uni1DAB
ENCODING 7595
SWIDTH 283 0
DWIDTH 2 0
BBX 2 3 0 2
BITMAP
80
80
C0
ENDCHAR
STARTCHAR uni1DAC
ENCODING 7596
SWIDTH 608 0
DWIDTH 5 0
BBX 4 4 0 1
BITMAP
F0
B0
B0
10
ENDCHAR
STARTCHAR uni1DAD
ENCODING 7597
SWIDTH 608 0
DWIDTH 5 0
BBX 4 4 0 1
BITMAP
B0
B0
70
10
ENDCHAR
STARTCHAR uni1DAE
ENCODING 7598
SWIDTH 402 0
DWIDTH 3 0
BBX 3 4 0 1
BITMAP
E0
A0
A0
80
ENDCHAR
STARTCHAR uni1DAF
ENCODING 7599
SWIDTH 402 0
DWIDTH 3 0
BBX 3 4 0 1
BITMAP
E0
A0
A0
20
ENDCHAR
STARTCHAR uni1DB0
ENCODING 7600
SWIDTH 411 0
DWIDTH 3 0
BBX 3 3 0 2
BITMAP
A0
E0
A0
ENDCHAR
STARTCHAR uni1DB1
ENCODING 7601
SWIDTH 393 0
DWIDTH 3 0
BBX 3 3 0 2
BITMAP
E0
E0
40
ENDCHAR
STARTCHAR phimodlatin
ENCODING 7602
SWIDTH 471 0
DWIDTH 4 0
BBX 3 5 0 1
BITMAP
40
A0
E0
60
40
ENDCHAR
STARTCHAR uni1DB3
ENCODING 7603
SWIDTH 311 0
DWIDTH 2 0
BBX 2 4 0 1
BITMAP
C0
40
C0
80
ENDCHAR
STARTCHAR uni1DB4
ENCODING 7604
SWIDTH 168 0
DWIDTH 1 0
BBX 2 5 0 1
BITMAP
C0
80
80
80
80
ENDCHAR
STARTCHAR uni1DB5
ENCODING 7605
SWIDTH 235 0
DWIDTH 2 0
BBX 2 4 0 1
BITMAP
C0
80
40
40
ENDCHAR
STARTCHAR uni1DB6
ENCODING 7606
SWIDTH 402 0
DWIDTH 3 0
BBX 3 3 0 2
BITMAP
A0
E0
60
ENDCHAR
STARTCHAR uni1DB7
ENCODING 7607
SWIDTH 393 0
DWIDTH 3 0
BBX 3 3 0 2
BITMAP
E0
A0
40
ENDCHAR
STARTCHAR uni1DB8
ENCODING 7608
SWIDTH 387 0
DWIDTH 3 0
BBX 3 3 0 2
BITMAP
A0
A0
40
ENDCHAR
STARTCHAR uni1DB9
ENCODING 7609
SWIDTH 398 0
DWIDTH 3 0
BBX 3 3 0 2
BITMAP
A0
A0
40
ENDCHAR
STARTCHAR uni1DBA
ENCODING 7610
SWIDTH 330 0
DWIDTH 3 0
BBX 3 3 0 2
BITMAP
40
C0
A0
ENDCHAR
STARTCHAR uni1DBB
ENCODING 7611
SWIDTH 306 0
DWIDTH 2 0
BBX 2 3 0 2
BITMAP
C0
40
C0
ENDCHAR
STARTCHAR uni1DBC
ENCODING 7612
SWIDTH 306 0
DWIDTH 2 0
BBX 3 4 0 1
BITMAP
C0
40
C0
20
ENDCHAR
STARTCHAR uni1DBD
ENCODING 7613
SWIDTH 352 0
DWIDTH 3 0
BBX 3 3 0 2
BITMAP
C0
40
E0
ENDCHAR
STARTCHAR uni1DBE
ENCODING 7614
SWIDTH 324 0
DWIDTH 3 0
BBX 2 4 0 1
BITMAP
C0
80
40
C0
ENDCHAR
STARTCHAR uni1DBF
ENCODING 7615
SWIDTH 387 0
DWIDTH 3 0
BBX 3 4 0 2
BITMAP
E0
E0
A0
40
ENDCHAR
STARTCHAR uni1DC0
ENCODING 7616
SWIDTH 0 0
DWIDTH 0 0
BBX 1 1 -1 5
BITMAP
80
ENDCHAR
STARTCHAR uni1DC1
ENCODING 7617
SWIDTH 0 0
DWIDTH 0 0
BBX 4 1 -2 5
BITMAP
F0
ENDCHAR
STARTCHAR uni1DC2
ENCODING 7618
SWIDTH 0 0
DWIDTH 0 0
BBX 1 2 -1 -2
BITMAP
80
80
ENDCHAR
STARTCHAR uni1DC3
ENCODING 7619
SWIDTH 0 0
DWIDTH 0 0
BBX 2 1 -1 5
BITMAP
C0
ENDCHAR
STARTCHAR uni1DC4
ENCODING 7620
SWIDTH 0 0
DWIDTH 0 0
BBX 2 1 -1 5
BITMAP
C0
ENDCHAR
STARTCHAR uni1DC5
ENCODING 7621
SWIDTH 0 0
DWIDTH 0 0
BBX 2 1 -1 5
BITMAP
C0
ENDCHAR
STARTCHAR uni1DC6
ENCODING 7622
SWIDTH 0 0
DWIDTH 0 0
BBX 2 1 -1 5
BITMAP
C0
ENDCHAR
STARTCHAR uni1DC7
ENCODING 7623
SWIDTH 0 0
DWIDTH 0 0
BBX 2 1 -1 5
BITMAP
C0
ENDCHAR
STARTCHAR uni1DC8
ENCODING 7624
SWIDTH 0 0
DWIDTH 0 0
BBX 4 1 -2 5
BITMAP
F0
ENDCHAR
STARTCHAR uni1DC9
ENCODING 7625
SWIDTH 0 0
DWIDTH 0 0
BBX 4 1 -2 5
BITMAP
F0
ENDCHAR
STARTCHAR uni1DCA
ENCODING 7626
SWIDTH 0 0
DWIDTH 0 0
BBX 1 2 0 -2
BITMAP
80
80
ENDCHAR
STARTCHAR uni1DCB
ENCODING 7627
SWIDTH 0 0
DWIDTH 0 0
BBX 4 1 -4 5
BITMAP
F0
ENDCHAR
STARTCHAR uni1DCC
ENCODING 7628
SWIDTH 0 0
DWIDTH 0 0
BBX 4 1 -4 5
BITMAP
F0
ENDCHAR
STARTCHAR uni1DCD
ENCODING 7629
SWIDTH 0 0
DWIDTH 0 0
BBX 6 1 -3 5
BITMAP
FC
ENDCHAR
STARTCHAR uni1DCE
ENCODING 7630
SWIDTH 0 0
DWIDTH 0 0
BBX 1 2 -3 4
BITMAP
80
80
ENDCHAR
STARTCHAR uni1DCF
ENCODING 7631
SWIDTH 0 0
DWIDTH 0 0
BBX 2 1 -3 -2
BITMAP
C0
ENDCHAR
STARTCHAR uni1DD0
ENCODING 7632
SWIDTH 0 0
DWIDTH 0 0
BBX 4 2 -2 -2
BITMAP
D0
B0
ENDCHAR
STARTCHAR uni1DD1
ENCODING 7633
SWIDTH 0 0
DWIDTH 0 0
BBX 4 2 -2 5
BITMAP
60
B0
ENDCHAR
STARTCHAR uni1DD2
ENCODING 7634
SWIDTH 0 0
DWIDTH 0 0
BBX 2 3 -1 4
BITMAP
40
C0
40
ENDCHAR
STARTCHAR uni1DD3
ENCODING 7635
SWIDTH 0 0
DWIDTH 0 0
BBX 4 1 -2 5
BITMAP
F0
ENDCHAR
STARTCHAR uni1DD4
ENCODING 7636
SWIDTH 0 0
DWIDTH 0 0
BBX 2 2 -1 5
BITMAP
C0
C0
ENDCHAR
STARTCHAR uni1DD5
ENCODING 7637
SWIDTH 0 0
DWIDTH 0 0
BBX 3 2 -1 5
BITMAP
C0
E0
ENDCHAR
STARTCHAR uni1DD6
ENCODING 7638
SWIDTH 0 0
DWIDTH 0 0
BBX 3 2 -1 5
BITMAP
A0
C0
ENDCHAR
STARTCHAR uni1DD7
ENCODING 7639
SWIDTH 0 0
DWIDTH 0 0
BBX 2 3 -1 5
BITMAP
40
80
40
ENDCHAR
STARTCHAR uni1DD8
ENCODING 7640
SWIDTH 0 0
DWIDTH 0 0
BBX 2 2 -1 5
BITMAP
C0
C0
ENDCHAR
STARTCHAR uni1DD9
ENCODING 7641
SWIDTH 0 0
DWIDTH 0 0
BBX 2 2 -1 5
BITMAP
40
C0
ENDCHAR
STARTCHAR uni1DDA
ENCODING 7642
SWIDTH 0 0
DWIDTH 0 0
BBX 2 3 -1 5
BITMAP
80
C0
C0
ENDCHAR
STARTCHAR uni1DDB
ENCODING 7643
SWIDTH 0 0
DWIDTH 0 0
BBX 2 2 -1 5
BITMAP
40
C0
ENDCHAR
STARTCHAR uni1DDC
ENCODING 7644
SWIDTH 0 0
DWIDTH 0 0
BBX 2 2 -1 5
BITMAP
C0
C0
ENDCHAR
STARTCHAR uni1DDD
ENCODING 7645
SWIDTH 0 0
DWIDTH 0 0
BBX 1 2 0 5
BITMAP
80
80
ENDCHAR
STARTCHAR uni1DDE
ENCODING 7646
SWIDTH 0 0
DWIDTH 0 0
BBX 1 2 0 5
BITMAP
80
80
ENDCHAR
STARTCHAR uni1DDF
ENCODING 7647
SWIDTH 0 0
DWIDTH 0 0
BBX 2 2 -1 5
BITMAP
C0
C0
ENDCHAR
STARTCHAR uni1DE0
ENCODING 7648
SWIDTH 0 0
DWIDTH 0 0
BBX 2 2 -1 5
BITMAP
C0
C0
ENDCHAR
STARTCHAR uni1DE1
ENCODING 7649
SWIDTH 0 0
DWIDTH 0 0
BBX 2 2 -1 5
BITMAP
C0
C0
ENDCHAR
STARTCHAR uni1DE2
ENCODING 7650
SWIDTH 0 0
DWIDTH 0 0
BBX 2 2 -1 5
BITMAP
C0
C0
ENDCHAR
STARTCHAR uni1DE3
ENCODING 7651
SWIDTH 0 0
DWIDTH 0 0
BBX 2 2 -1 5
BITMAP
C0
40
ENDCHAR
STARTCHAR uni1DE4
ENCODING 7652
SWIDTH 0 0
DWIDTH 0 0
BBX 2 2 -1 5
BITMAP
C0
C0
ENDCHAR
STARTCHAR uni1DE5
ENCODING 7653
SWIDTH 0 0
DWIDTH 0 0
BBX 1 2 0 5
BITMAP
80
80
ENDCHAR
STARTCHAR uni1DE6
ENCODING 7654
SWIDTH 0 0
DWIDTH 0 0
BBX 2 2 -1 5
BITMAP
C0
C0
ENDCHAR
STARTCHAR uni1DE7
ENCODING 7655
SWIDTH 0 0
DWIDTH 0 0
BBX 2 2 -1 5
BITMAP
C0
C0
ENDCHAR
STARTCHAR uni1DE8
ENCODING 7656
SWIDTH 0 0
DWIDTH 0 0
BBX 2 2 -1 5
BITMAP
C0
C0
ENDCHAR
STARTCHAR uni1DE9
ENCODING 7657
SWIDTH 0 0
DWIDTH 0 0
BBX 2 3 -1 5
BITMAP
C0
C0
80
ENDCHAR
STARTCHAR uni1DEA
ENCODING 7658
SWIDTH 0 0
DWIDTH 0 0
BBX 2 2 -1 5
BITMAP
C0
C0
ENDCHAR
STARTCHAR uni1DEB
ENCODING 7659
SWIDTH 0 0
DWIDTH 0 0
BBX 1 2 0 5
BITMAP
80
80
ENDCHAR
STARTCHAR uni1DEC
ENCODING 7660
SWIDTH 0 0
DWIDTH 0 0
BBX 2 2 -1 5
BITMAP
C0
40
ENDCHAR
STARTCHAR uni1DED
ENCODING 7661
SWIDTH 0 0
DWIDTH 0 0
BBX 2 3 -1 4
BITMAP
C0
C0
80
ENDCHAR
STARTCHAR uni1DEE
ENCODING 7662
SWIDTH 0 0
DWIDTH 0 0
BBX 2 3 -1 5
BITMAP
40
C0
80
ENDCHAR
STARTCHAR uni1DEF
ENCODING 7663
SWIDTH 0 0
DWIDTH 0 0
BBX 1 3 0 5
BITMAP
80
80
80
ENDCHAR
STARTCHAR uni1DF0
ENCODING 7664
SWIDTH 0 0
DWIDTH 0 0
BBX 2 3 -1 4
BITMAP
C0
C0
80
ENDCHAR
STARTCHAR uni1DF1
ENCODING 7665
SWIDTH 0 0
DWIDTH 0 0
BBX 2 2 -1 5
BITMAP
C0
C0
ENDCHAR
STARTCHAR uni1DF2
ENCODING 7666
SWIDTH 0 0
DWIDTH 0 0
BBX 2 2 -1 5
BITMAP
C0
C0
ENDCHAR
STARTCHAR uni1DF3
ENCODING 7667
SWIDTH 0 0
DWIDTH 0 0
BBX 2 2 -1 5
BITMAP
C0
C0
ENDCHAR
STARTCHAR uni1DF4
ENCODING 7668
SWIDTH 0 0
DWIDTH 0 0
BBX 2 2 -1 5
BITMAP
C0
C0
ENDCHAR
STARTCHAR uni1DF5
ENCODING 7669
SWIDTH 0 0
DWIDTH 0 0
BBX 2 2 -1 3
BITMAP
80
C0
ENDCHAR
STARTCHAR kavykaaboverightcmb
ENCODING 7670
SWIDTH 0 0
DWIDTH 0 0
BBX 2 1 -1 5
BITMAP
C0
ENDCHAR
STARTCHAR kavykaaboveleftcmb
ENCODING 7671
SWIDTH 0 0
DWIDTH 0 0
BBX 2 1 -1 5
BITMAP
C0
ENDCHAR
STARTCHAR dotaboveleftcmb
ENCODING 7672
SWIDTH 0 0
DWIDTH 0 0
BBX 1 1 0 5
BITMAP
80
ENDCHAR
STARTCHAR wideinvertedbridgebelowcmb
ENCODING 7673
SWIDTH 0 0
DWIDTH 0 0
BBX 4 2 -2 -2
BITMAP
90
F0
ENDCHAR
STARTCHAR deletionmarkcmb
ENCODING 7675
SWIDTH 0 0
DWIDTH 0 0
BBX 4 2 -2 4
BITMAP
B0
D0
ENDCHAR
STARTCHAR uni1DFC
ENCODING 7676
SWIDTH 0 0
DWIDTH 0 0
BBX 6 2 -3 -2
BITMAP
78
84
ENDCHAR
STARTCHAR uni1DFD
ENCODING 7677
SWIDTH 0 0
DWIDTH 0 0
BBX 2 2 -1 -2
BITMAP
C0
C0
ENDCHAR
STARTCHAR uni1DFE
ENCODING 7678
SWIDTH 0 0
DWIDTH 0 0
BBX 2 1 -1 5
BITMAP
C0
ENDCHAR
STARTCHAR uni1DFF
ENCODING 7679
SWIDTH 0 0
DWIDTH 0 0
BBX 3 2 -1 -2
BITMAP
A0
C0
ENDCHAR
STARTCHAR uni1E00
ENCODING 7680
SWIDTH 639 0
DWIDTH 5 0
BBX 5 8 0 -2
BITMAP
20
20
50
70
88
88
20
70
ENDCHAR
STARTCHAR uni1E01
ENCODING 7681
SWIDTH 561 0
DWIDTH 4 0
BBX 4 6 0 -2
BITMAP
70
70
90
70
20
60
ENDCHAR
STARTCHAR uni1E02
ENCODING 7682
SWIDTH 650 0
DWIDTH 5 0
BBX 4 7 1 0
BITMAP
40
E0
90
A0
D0
90
E0
ENDCHAR
STARTCHAR uni1E03
ENCODING 7683
SWIDTH 615 0
DWIDTH 5 0
BBX 3 8 1 0
BITMAP
40
00
80
C0
A0
A0
A0
E0
ENDCHAR
STARTCHAR uni1E04
ENCODING 7684
SWIDTH 650 0
DWIDTH 5 0
BBX 4 7 1 -1
BITMAP
E0
90
A0
D0
90
E0
40
ENDCHAR
STARTCHAR uni1E05
ENCODING 7685
SWIDTH 615 0
DWIDTH 5 0
BBX 3 7 1 -1
BITMAP
80
C0
A0
A0
A0
E0
40
ENDCHAR
STARTCHAR uni1E06
ENCODING 7686
SWIDTH 650 0
DWIDTH 5 0
BBX 4 7 1 -1
BITMAP
E0
90
A0
D0
90
E0
E0
ENDCHAR
STARTCHAR uni1E07
ENCODING 7687
SWIDTH 615 0
DWIDTH 5 0
BBX 3 7 1 -1
BITMAP
80
C0
A0
A0
A0
E0
E0
ENDCHAR
STARTCHAR uni1E08
ENCODING 7688
SWIDTH 632 0
DWIDTH 5 0
BBX 5 9 0 -2
BITMAP
10
38
40
80
80
40
78
20
30
ENDCHAR
STARTCHAR uni1E09
ENCODING 7689
SWIDTH 480 0
DWIDTH 4 0
BBX 4 8 0 -2
BITMAP
20
30
40
80
80
70
20
60
ENDCHAR
STARTCHAR uni1E0A
ENCODING 7690
SWIDTH 730 0
DWIDTH 6 0
BBX 4 7 1 0
BITMAP
40
E0
90
90
90
90
E0
ENDCHAR
STARTCHAR uni1E0B
ENCODING 7691
SWIDTH 615 0
DWIDTH 5 0
BBX 4 8 0 0
BITMAP
20
00
10
30
50
90
90
70
ENDCHAR
STARTCHAR uni1E0C
ENCODING 7692
SWIDTH 730 0
DWIDTH 6 0
BBX 4 7 1 -1
BITMAP
E0
90
90
90
90
E0
40
ENDCHAR
STARTCHAR uni1E0D
ENCODING 7693
SWIDTH 615 0
DWIDTH 5 0
BBX 4 7 0 -1
BITMAP
10
30
50
90
90
70
20
ENDCHAR
STARTCHAR uni1E0E
ENCODING 7694
SWIDTH 730 0
DWIDTH 6 0
BBX 4 7 1 -1
BITMAP
E0
90
90
90
90
E0
60
ENDCHAR
STARTCHAR uni1E0F
ENCODING 7695
SWIDTH 615 0
DWIDTH 5 0
BBX 4 7 0 -1
BITMAP
10
30
50
90
90
70
70
ENDCHAR
STARTCHAR uni1E10
ENCODING 7696
SWIDTH 730 0
DWIDTH 6 0
BBX 4 8 1 -2
BITMAP
E0
90
90
90
90
E0
40
60
ENDCHAR
STARTCHAR uni1E11
ENCODING 7697
SWIDTH 615 0
DWIDTH 5 0
BBX 4 8 0 -2
BITMAP
10
30
50
90
90
70
20
20
ENDCHAR
STARTCHAR uni1E12
ENCODING 7698
SWIDTH 730 0
DWIDTH 6 0
BBX 4 7 1 -1
BITMAP
E0
90
90
90
90
E0
E0
ENDCHAR
STARTCHAR uni1E13
ENCODING 7699
SWIDTH 615 0
DWIDTH 5 0
BBX 4 7 0 -1
BITMAP
10
30
50
90
90
70
70
ENDCHAR
STARTCHAR uni1E14
ENCODING 7700
SWIDTH 556 0
DWIDTH 4 0
BBX 3 9 1 0
BITMAP
80
40
E0
E0
80
80
E0
80
E0
ENDCHAR
STARTCHAR uni1E15
ENCODING 7701
SWIDTH 564 0
DWIDTH 5 0
BBX 4 7 0 0
BITMAP
40
60
20
50
F0
80
70
ENDCHAR
STARTCHAR uni1E16
ENCODING 7702
SWIDTH 556 0
DWIDTH 4 0
BBX 3 9 1 0
BITMAP
20
40
E0
E0
80
80
E0
80
E0
ENDCHAR
STARTCHAR uni1E17
ENCODING 7703
SWIDTH 564 0
DWIDTH 5 0
BBX 4 7 0 0
BITMAP
20
60
20
50
F0
80
70
ENDCHAR
STARTCHAR uni1E18
ENCODING 7704
SWIDTH 556 0
DWIDTH 4 0
BBX 3 7 1 -1
BITMAP
E0
80
80
E0
80
E0
E0
ENDCHAR
STARTCHAR uni1E19
ENCODING 7705
SWIDTH 564 0
DWIDTH 5 0
BBX 4 5 0 -1
BITMAP
70
F0
80
70
70
ENDCHAR
STARTCHAR uni1E1A
ENCODING 7706
SWIDTH 556 0
DWIDTH 4 0
BBX 3 7 1 -1
BITMAP
E0
80
80
E0
80
E0
E0
ENDCHAR
STARTCHAR uni1E1B
ENCODING 7707
SWIDTH 564 0
DWIDTH 5 0
BBX 4 5 0 -1
BITMAP
70
F0
80
70
70
ENDCHAR
STARTCHAR uni1E1C
ENCODING 7708
SWIDTH 556 0
DWIDTH 4 0
BBX 3 9 1 -2
BITMAP
A0
E0
80
80
E0
80
E0
40
40
ENDCHAR
STARTCHAR uni1E1D
ENCODING 7709
SWIDTH 564 0
DWIDTH 5 0
BBX 4 8 0 -2
BITMAP
50
20
50
F0
80
70
20
20
ENDCHAR
STARTCHAR uni1E1E
ENCODING 7710
SWIDTH 519 0
DWIDTH 4 0
BBX 3 7 1 0
BITMAP
40
E0
80
80
E0
80
80
ENDCHAR
STARTCHAR uni1E1F
ENCODING 7711
SWIDTH 344 0
DWIDTH 3 0
BBX 3 8 0 0
BITMAP
40
00
60
60
C0
40
40
40
ENDCHAR
STARTCHAR uni1E20
ENCODING 7712
SWIDTH 728 0
DWIDTH 6 0
BBX 5 6 0 0
BITMAP
38
40
80
98
48
78
ENDCHAR
STARTCHAR uni1E21
ENCODING 7713
SWIDTH 615 0
DWIDTH 5 0
BBX 4 7 0 -2
BITMAP
70
50
90
90
70
10
70
ENDCHAR
STARTCHAR uni1E22
ENCODING 7714
SWIDTH 741 0
DWIDTH 6 0
BBX 4 7 1 0
BITMAP
40
90
90
90
F0
90
90
ENDCHAR
STARTCHAR uni1E23
ENCODING 7715
SWIDTH 618 0
DWIDTH 5 0
BBX 3 8 1 0
BITMAP
80
00
80
C0
A0
A0
A0
A0
ENDCHAR
STARTCHAR uni1E24
ENCODING 7716
SWIDTH 741 0
DWIDTH 6 0
BBX 4 6 1 0
BITMAP
90
90
90
F0
90
90
ENDCHAR
STARTCHAR uni1E25
ENCODING 7717
SWIDTH 618 0
DWIDTH 5 0
BBX 3 7 1 -1
BITMAP
80
C0
A0
A0
A0
A0
40
ENDCHAR
STARTCHAR uni1E26
ENCODING 7718
SWIDTH 741 0
DWIDTH 6 0
BBX 4 7 1 0
BITMAP
60
90
90
90
F0
90
90
ENDCHAR
STARTCHAR uni1E27
ENCODING 7719
SWIDTH 618 0
DWIDTH 5 0
BBX 4 8 0 0
BITMAP
C0
00
40
60
50
50
50
50
ENDCHAR
STARTCHAR uni1E28
ENCODING 7720
SWIDTH 741 0
DWIDTH 6 0
BBX 5 8 0 -2
BITMAP
48
48
48
78
48
48
40
C0
ENDCHAR
STARTCHAR uni1E29
ENCODING 7721
SWIDTH 618 0
DWIDTH 5 0
BBX 4 8 0 -2
BITMAP
40
60
50
50
50
50
80
C0
ENDCHAR
STARTCHAR uni1E2A
ENCODING 7722
SWIDTH 741 0
DWIDTH 6 0
BBX 4 7 1 -1
BITMAP
90
90
90
F0
90
90
60
ENDCHAR
STARTCHAR uni1E2B
ENCODING 7723
SWIDTH 618 0
DWIDTH 5 0
BBX 3 7 1 -1
BITMAP
80
C0
A0
A0
A0
A0
E0
ENDCHAR
STARTCHAR uni1E2C
ENCODING 7724
SWIDTH 339 0
DWIDTH 3 0
BBX 3 7 0 -1
BITMAP
C0
40
40
40
40
40
E0
ENDCHAR
STARTCHAR uni1E2D
ENCODING 7725
SWIDTH 258 0
DWIDTH 2 0
BBX 3 7 0 -1
BITMAP
40
00
40
40
40
40
E0
ENDCHAR
STARTCHAR uni1E2E
ENCODING 7726
SWIDTH 339 0
DWIDTH 3 0
BBX 3 8 0 0
BITMAP
60
A0
C0
40
40
40
40
C0
ENDCHAR
STARTCHAR uni1E2F
ENCODING 7727
SWIDTH 258 0
DWIDTH 2 0
BBX 2 7 0 0
BITMAP
40
C0
00
40
40
40
40
ENDCHAR
STARTCHAR uni1E30
ENCODING 7728
SWIDTH 619 0
DWIDTH 5 0
BBX 4 7 1 0
BITMAP
60
90
A0
C0
C0
A0
90
ENDCHAR
STARTCHAR uni1E31
ENCODING 7729
SWIDTH 534 0
DWIDTH 4 0
BBX 3 8 1 0
BITMAP
80
00
80
80
E0
80
C0
A0
ENDCHAR
STARTCHAR uni1E32
ENCODING 7730
SWIDTH 619 0
DWIDTH 5 0
BBX 4 7 1 -1
BITMAP
90
A0
C0
C0
A0
90
40
ENDCHAR
STARTCHAR uni1E33
ENCODING 7731
SWIDTH 534 0
DWIDTH 4 0
BBX 3 7 1 -1
BITMAP
80
80
E0
80
C0
A0
40
ENDCHAR
STARTCHAR uni1E34
ENCODING 7732
SWIDTH 619 0
DWIDTH 5 0
BBX 4 7 1 -1
BITMAP
90
A0
C0
C0
A0
90
E0
ENDCHAR
STARTCHAR uni1E35
ENCODING 7733
SWIDTH 534 0
DWIDTH 4 0
BBX 3 7 1 -1
BITMAP
80
80
E0
80
C0
A0
C0
ENDCHAR
STARTCHAR uni1E36
ENCODING 7734
SWIDTH 524 0
DWIDTH 4 0
BBX 3 7 1 -1
BITMAP
80
80
80
80
80
E0
40
ENDCHAR
STARTCHAR uni1E37
ENCODING 7735
SWIDTH 258 0
DWIDTH 2 0
BBX 1 6 1 0
BITMAP
80
80
80
80
80
80
ENDCHAR
STARTCHAR uni1E38
ENCODING 7736
SWIDTH 524 0
DWIDTH 4 0
BBX 4 7 0 -1
BITMAP
C0
40
40
40
40
70
20
ENDCHAR
STARTCHAR uni1E39
ENCODING 7737
SWIDTH 258 0
DWIDTH 2 0
BBX 2 7 0 0
BITMAP
C0
40
40
40
40
40
40
ENDCHAR
STARTCHAR uni1E3A
ENCODING 7738
SWIDTH 524 0
DWIDTH 4 0
BBX 3 7 1 -1
BITMAP
80
80
80
80
80
E0
E0
ENDCHAR
STARTCHAR uni1E3B
ENCODING 7739
SWIDTH 258 0
DWIDTH 2 0
BBX 2 7 0 -1
BITMAP
40
40
40
40
40
40
C0
ENDCHAR
STARTCHAR uni1E3C
ENCODING 7740
SWIDTH 524 0
DWIDTH 4 0
BBX 3 7 1 -1
BITMAP
80
80
80
80
80
E0
E0
ENDCHAR
STARTCHAR uni1E3D
ENCODING 7741
SWIDTH 258 0
DWIDTH 2 0
BBX 2 7 0 -1
BITMAP
40
40
40
40
40
40
C0
ENDCHAR
STARTCHAR uni1E3E
ENCODING 7742
SWIDTH 907 0
DWIDTH 7 0
BBX 5 7 1 0
BITMAP
30
88
88
D8
D8
A8
A8
ENDCHAR
STARTCHAR uni1E3F
ENCODING 7743
SWIDTH 935 0
DWIDTH 7 0
BBX 6 6 1 0
BITMAP
10
68
B4
A4
A4
A4
ENDCHAR
STARTCHAR uni1E40
ENCODING 7744
SWIDTH 907 0
DWIDTH 7 0
BBX 5 7 1 0
BITMAP
20
88
88
D8
D8
A8
A8
ENDCHAR
STARTCHAR uni1E41
ENCODING 7745
SWIDTH 935 0
DWIDTH 7 0
BBX 6 6 1 0
BITMAP
20
48
B4
A4
A4
A4
ENDCHAR
STARTCHAR uni1E42
ENCODING 7746
SWIDTH 907 0
DWIDTH 7 0
BBX 5 7 1 -1
BITMAP
88
88
D8
D8
A8
A8
20
ENDCHAR
STARTCHAR uni1E43
ENCODING 7747
SWIDTH 935 0
DWIDTH 7 0
BBX 6 5 1 -1
BITMAP
FC
A4
A4
A4
20
ENDCHAR
STARTCHAR uni1E44
ENCODING 7748
SWIDTH 760 0
DWIDTH 6 0
BBX 4 7 1 0
BITMAP
20
90
90
D0
B0
B0
90
ENDCHAR
STARTCHAR uni1E45
ENCODING 7749
SWIDTH 618 0
DWIDTH 5 0
BBX 3 6 1 0
BITMAP
40
40
A0
A0
A0
A0
ENDCHAR
STARTCHAR uni1E46
ENCODING 7750
SWIDTH 760 0
DWIDTH 6 0
BBX 4 6 1 0
BITMAP
90
90
D0
B0
B0
90
ENDCHAR
STARTCHAR uni1E47
ENCODING 7751
SWIDTH 618 0
DWIDTH 5 0
BBX 3 5 1 -1
BITMAP
E0
A0
A0
A0
40
ENDCHAR
STARTCHAR uni1E48
ENCODING 7752
SWIDTH 760 0
DWIDTH 6 0
BBX 4 7 1 -1
BITMAP
90
90
D0
B0
B0
90
60
ENDCHAR
STARTCHAR uni1E49
ENCODING 7753
SWIDTH 618 0
DWIDTH 5 0
BBX 3 5 1 -1
BITMAP
E0
A0
A0
A0
E0
ENDCHAR
STARTCHAR uni1E4A
ENCODING 7754
SWIDTH 760 0
DWIDTH 6 0
BBX 4 7 1 -1
BITMAP
90
90
D0
B0
B0
90
60
ENDCHAR
STARTCHAR uni1E4B
ENCODING 7755
SWIDTH 618 0
DWIDTH 5 0
BBX 3 5 1 -1
BITMAP
E0
A0
A0
A0
E0
ENDCHAR
STARTCHAR uni1E4C
ENCODING 7756
SWIDTH 781 0
DWIDTH 6 0
BBX 6 8 0 0
BITMAP
30
30
30
48
84
84
44
78
ENDCHAR
STARTCHAR uni1E4D
ENCODING 7757
SWIDTH 605 0
DWIDTH 5 0
BBX 4 7 0 0
BITMAP
30
70
20
50
90
90
70
ENDCHAR
STARTCHAR uni1E4E
ENCODING 7758
SWIDTH 781 0
DWIDTH 6 0
BBX 6 8 0 0
BITMAP
38
50
30
48
84
84
44
78
ENDCHAR
STARTCHAR uni1E4F
ENCODING 7759
SWIDTH 605 0
DWIDTH 5 0
BBX 4 7 0 0
BITMAP
50
70
20
50
90
90
70
ENDCHAR
STARTCHAR uni1E50
ENCODING 7760
SWIDTH 781 0
DWIDTH 6 0
BBX 6 9 0 0
BITMAP
20
10
30
30
48
84
84
44
78
ENDCHAR
STARTCHAR uni1E51
ENCODING 7761
SWIDTH 605 0
DWIDTH 5 0
BBX 4 7 0 0
BITMAP
60
70
20
50
90
90
70
ENDCHAR
STARTCHAR uni1E52
ENCODING 7762
SWIDTH 781 0
DWIDTH 6 0
BBX 6 9 0 0
BITMAP
10
20
30
30
48
84
84
44
78
ENDCHAR
STARTCHAR uni1E53
ENCODING 7763
SWIDTH 605 0
DWIDTH 5 0
BBX 4 7 0 0
BITMAP
20
70
20
50
90
90
70
ENDCHAR
STARTCHAR uni1E54
ENCODING 7764
SWIDTH 605 0
DWIDTH 5 0
BBX 3 7 1 0
BITMAP
60
E0
A0
A0
E0
80
80
ENDCHAR
STARTCHAR uni1E55
ENCODING 7765
SWIDTH 615 0
DWIDTH 5 0
BBX 3 8 1 -2
BITMAP
60
40
A0
A0
A0
E0
80
80
ENDCHAR
STARTCHAR uni1E56
ENCODING 7766
SWIDTH 605 0
DWIDTH 5 0
BBX 3 7 1 0
BITMAP
40
E0
A0
A0
E0
80
80
ENDCHAR
STARTCHAR uni1E57
ENCODING 7767
SWIDTH 615 0
DWIDTH 5 0
BBX 3 8 1 -2
BITMAP
40
40
A0
A0
A0
E0
80
80
ENDCHAR
STARTCHAR uni1E58
ENCODING 7768
SWIDTH 622 0
DWIDTH 5 0
BBX 4 7 1 0
BITMAP
40
E0
90
A0
C0
A0
90
ENDCHAR
STARTCHAR uni1E59
ENCODING 7769
SWIDTH 413 0
DWIDTH 3 0
BBX 2 6 1 0
BITMAP
80
40
80
80
80
80
ENDCHAR
STARTCHAR uni1E5A
ENCODING 7770
SWIDTH 622 0
DWIDTH 5 0
BBX 4 7 1 -1
BITMAP
E0
90
A0
C0
A0
90
40
ENDCHAR
STARTCHAR uni1E5B
ENCODING 7771
SWIDTH 413 0
DWIDTH 3 0
BBX 2 4 1 0
BITMAP
C0
80
80
80
ENDCHAR
STARTCHAR uni1E5C
ENCODING 7772
SWIDTH 622 0
DWIDTH 5 0
BBX 4 7 1 -1
BITMAP
E0
90
A0
C0
A0
90
40
ENDCHAR
STARTCHAR uni1E5D
ENCODING 7773
SWIDTH 413 0
DWIDTH 3 0
BBX 2 5 1 0
BITMAP
C0
80
80
80
80
ENDCHAR
STARTCHAR uni1E5E
ENCODING 7774
SWIDTH 622 0
DWIDTH 5 0
BBX 4 7 1 -1
BITMAP
E0
90
A0
C0
A0
90
E0
ENDCHAR
STARTCHAR uni1E5F
ENCODING 7775
SWIDTH 413 0
DWIDTH 3 0
BBX 3 5 0 -1
BITMAP
60
40
40
40
C0
ENDCHAR
STARTCHAR uni1E60
ENCODING 7776
SWIDTH 549 0
DWIDTH 4 0
BBX 4 7 0 0
BITMAP
20
70
80
40
30
10
F0
ENDCHAR
STARTCHAR uni1E61
ENCODING 7777
SWIDTH 479 0
DWIDTH 4 0
BBX 3 6 0 0
BITMAP
40
60
80
40
20
E0
ENDCHAR
STARTCHAR uni1E62
ENCODING 7778
SWIDTH 549 0
DWIDTH 4 0
BBX 4 6 0 0
BITMAP
70
80
40
30
10
F0
ENDCHAR
STARTCHAR uni1E63
ENCODING 7779
SWIDTH 479 0
DWIDTH 4 0
BBX 3 5 0 -1
BITMAP
E0
40
20
E0
40
ENDCHAR
STARTCHAR uni1E64
ENCODING 7780
SWIDTH 549 0
DWIDTH 4 0
BBX 4 8 0 0
BITMAP
10
60
70
80
40
30
10
F0
ENDCHAR
STARTCHAR uni1E65
ENCODING 7781
SWIDTH 479 0
DWIDTH 4 0
BBX 3 6 0 0
BITMAP
60
60
80
40
20
E0
ENDCHAR
STARTCHAR uni1E66
ENCODING 7782
SWIDTH 549 0
DWIDTH 4 0
BBX 4 8 0 0
BITMAP
70
20
70
80
40
30
10
F0
ENDCHAR
STARTCHAR uni1E67
ENCODING 7783
SWIDTH 479 0
DWIDTH 4 0
BBX 3 7 0 0
BITMAP
40
60
60
80
40
20
E0
ENDCHAR
STARTCHAR uni1E68
ENCODING 7784
SWIDTH 549 0
DWIDTH 4 0
BBX 4 7 0 0
BITMAP
20
70
80
40
30
10
F0
ENDCHAR
STARTCHAR uni1E69
ENCODING 7785
SWIDTH 479 0
DWIDTH 4 0
BBX 3 7 0 -1
BITMAP
40
60
80
40
20
E0
40
ENDCHAR
STARTCHAR uni1E6A
ENCODING 7786
SWIDTH 556 0
DWIDTH 4 0
BBX 4 7 0 0
BITMAP
20
F0
20
20
20
20
20
ENDCHAR
STARTCHAR uni1E6B
ENCODING 7787
SWIDTH 361 0
DWIDTH 3 0
BBX 3 7 0 0
BITMAP
40
00
60
C0
40
40
60
ENDCHAR
STARTCHAR uni1E6C
ENCODING 7788
SWIDTH 556 0
DWIDTH 4 0
BBX 4 7 0 -1
BITMAP
F0
20
20
20
20
20
20
ENDCHAR
STARTCHAR uni1E6D
ENCODING 7789
SWIDTH 361 0
DWIDTH 3 0
BBX 3 6 0 -1
BITMAP
60
C0
40
40
60
40
ENDCHAR
STARTCHAR uni1E6E
ENCODING 7790
SWIDTH 556 0
DWIDTH 4 0
BBX 4 7 0 -1
BITMAP
F0
20
20
20
20
20
60
ENDCHAR
STARTCHAR uni1E6F
ENCODING 7791
SWIDTH 361 0
DWIDTH 3 0
BBX 3 6 0 -1
BITMAP
60
C0
40
40
60
60
ENDCHAR
STARTCHAR uni1E70
ENCODING 7792
SWIDTH 556 0
DWIDTH 4 0
BBX 4 7 0 -1
BITMAP
F0
20
20
20
20
20
70
ENDCHAR
STARTCHAR uni1E71
ENCODING 7793
SWIDTH 361 0
DWIDTH 3 0
BBX 3 6 0 -1
BITMAP
60
C0
40
40
60
E0
ENDCHAR
STARTCHAR uni1E72
ENCODING 7794
SWIDTH 731 0
DWIDTH 6 0
BBX 4 7 1 -1
BITMAP
90
90
90
90
90
F0
60
ENDCHAR
STARTCHAR uni1E73
ENCODING 7795
SWIDTH 618 0
DWIDTH 5 0
BBX 3 5 1 -1
BITMAP
A0
A0
A0
E0
A0
ENDCHAR
STARTCHAR uni1E74
ENCODING 7796
SWIDTH 731 0
DWIDTH 6 0
BBX 4 7 1 -1
BITMAP
90
90
90
90
90
F0
F0
ENDCHAR
STARTCHAR uni1E75
ENCODING 7797
SWIDTH 618 0
DWIDTH 5 0
BBX 3 5 1 -1
BITMAP
A0
A0
A0
E0
E0
ENDCHAR
STARTCHAR uni1E76
ENCODING 7798
SWIDTH 731 0
DWIDTH 6 0
BBX 4 7 1 -1
BITMAP
90
90
90
90
90
F0
60
ENDCHAR
STARTCHAR uni1E77
ENCODING 7799
SWIDTH 618 0
DWIDTH 5 0
BBX 3 5 1 -1
BITMAP
A0
A0
A0
E0
E0
ENDCHAR
STARTCHAR uni1E78
ENCODING 7800
SWIDTH 731 0
DWIDTH 6 0
BBX 4 8 1 0
BITMAP
60
A0
90
90
90
90
90
F0
ENDCHAR
STARTCHAR uni1E79
ENCODING 7801
SWIDTH 618 0
DWIDTH 5 0
BBX 3 7 1 0
BITMAP
60
E0
00
A0
A0
A0
E0
ENDCHAR
STARTCHAR uni1E7A
ENCODING 7802
SWIDTH 731 0
DWIDTH 6 0
BBX 4 8 1 0
BITMAP
60
60
90
90
90
90
90
F0
ENDCHAR
STARTCHAR uni1E7B
ENCODING 7803
SWIDTH 618 0
DWIDTH 5 0
BBX 3 7 1 0
BITMAP
A0
E0
00
A0
A0
A0
E0
ENDCHAR
STARTCHAR uni1E7C
ENCODING 7804
SWIDTH 600 0
DWIDTH 5 0
BBX 5 7 0 0
BITMAP
70
88
90
50
50
60
20
ENDCHAR
STARTCHAR uni1E7D
ENCODING 7805
SWIDTH 508 0
DWIDTH 4 0
BBX 4 6 0 0
BITMAP
70
00
90
50
60
60
ENDCHAR
STARTCHAR uni1E7E
ENCODING 7806
SWIDTH 600 0
DWIDTH 5 0
BBX 5 7 0 -1
BITMAP
88
90
50
50
60
20
20
ENDCHAR
STARTCHAR uni1E7F
ENCODING 7807
SWIDTH 508 0
DWIDTH 4 0
BBX 4 4 0 0
BITMAP
90
50
60
60
ENDCHAR
STARTCHAR Wgrave
ENCODING 7808
SWIDTH 930 0
DWIDTH 7 0
BBX 7 7 0 0
BITMAP
10
92
92
5A
6A
6C
44
ENDCHAR
STARTCHAR wgrave
ENCODING 7809
SWIDTH 786 0
DWIDTH 6 0
BBX 6 6 0 0
BITMAP
30
00
94
B4
68
48
ENDCHAR
STARTCHAR Wacute
ENCODING 7810
SWIDTH 930 0
DWIDTH 7 0
BBX 7 7 0 0
BITMAP
08
92
92
5A
6A
6C
44
ENDCHAR
STARTCHAR wacute
ENCODING 7811
SWIDTH 786 0
DWIDTH 6 0
BBX 6 6 0 0
BITMAP
10
00
94
B4
68
48
ENDCHAR
STARTCHAR Wdieresis
ENCODING 7812
SWIDTH 930 0
DWIDTH 7 0
BBX 7 7 0 0
BITMAP
28
92
92
5A
6A
6C
44
ENDCHAR
STARTCHAR wdieresis
ENCODING 7813
SWIDTH 786 0
DWIDTH 6 0
BBX 6 6 0 0
BITMAP
30
00
94
B4
68
48
ENDCHAR
STARTCHAR uni1E86
ENCODING 7814
SWIDTH 930 0
DWIDTH 7 0
BBX 7 7 0 0
BITMAP
10
92
92
5A
6A
6C
44
ENDCHAR
STARTCHAR uni1E87
ENCODING 7815
SWIDTH 786 0
DWIDTH 6 0
BBX 6 6 0 0
BITMAP
10
00
94
B4
68
48
ENDCHAR
STARTCHAR uni1E88
ENCODING 7816
SWIDTH 930 0
DWIDTH 7 0
BBX 7 7 0 -1
BITMAP
92
92
5A
6A
6C
44
10
ENDCHAR
STARTCHAR uni1E89
ENCODING 7817
SWIDTH 786 0
DWIDTH 6 0
BBX 6 5 0 -1
BITMAP
94
B4
68
48
10
ENDCHAR
STARTCHAR uni1E8A
ENCODING 7818
SWIDTH 586 0
DWIDTH 5 0
BBX 5 7 0 0
BITMAP
20
98
50
20
20
50
98
ENDCHAR
STARTCHAR uni1E8B
ENCODING 7819
SWIDTH 529 0
DWIDTH 4 0
BBX 4 6 0 0
BITMAP
20
80
50
60
60
90
ENDCHAR
STARTCHAR uni1E8C
ENCODING 7820
SWIDTH 586 0
DWIDTH 5 0
BBX 5 7 0 0
BITMAP
50
98
50
20
20
50
98
ENDCHAR
STARTCHAR uni1E8D
ENCODING 7821
SWIDTH 529 0
DWIDTH 4 0
BBX 4 6 0 0
BITMAP
60
80
50
60
60
90
ENDCHAR
STARTCHAR uni1E8E
ENCODING 7822
SWIDTH 566 0
DWIDTH 5 0
BBX 5 7 0 0
BITMAP
20
88
50
60
20
20
20
ENDCHAR
STARTCHAR uni1E8F
ENCODING 7823
SWIDTH 510 0
DWIDTH 4 0
BBX 4 8 0 -2
BITMAP
20
00
90
50
60
20
40
C0
ENDCHAR
STARTCHAR uni1E90
ENCODING 7824
SWIDTH 572 0
DWIDTH 5 0
BBX 4 7 0 0
BITMAP
60
F0
10
20
40
40
F0
ENDCHAR
STARTCHAR uni1E91
ENCODING 7825
SWIDTH 470 0
DWIDTH 4 0
BBX 3 6 0 0
BITMAP
60
C0
20
20
40
E0
ENDCHAR
STARTCHAR uni1E92
ENCODING 7826
SWIDTH 572 0
DWIDTH 5 0
BBX 4 7 0 -1
BITMAP
F0
10
20
40
40
F0
20
ENDCHAR
STARTCHAR uni1E93
ENCODING 7827
SWIDTH 470 0
DWIDTH 4 0
BBX 3 5 0 -1
BITMAP
E0
20
40
E0
40
ENDCHAR
STARTCHAR uni1E94
ENCODING 7828
SWIDTH 572 0
DWIDTH 5 0
BBX 4 7 0 -1
BITMAP
F0
10
20
40
40
F0
60
ENDCHAR
STARTCHAR uni1E95
ENCODING 7829
SWIDTH 470 0
DWIDTH 4 0
BBX 3 5 0 -1
BITMAP
E0
20
40
E0
60
ENDCHAR
STARTCHAR uni1E96
ENCODING 7830
SWIDTH 618 0
DWIDTH 5 0
BBX 3 7 1 -1
BITMAP
80
C0
A0
A0
A0
A0
E0
ENDCHAR
STARTCHAR uni1E97
ENCODING 7831
SWIDTH 361 0
DWIDTH 3 0
BBX 3 7 0 0
BITMAP
C0
00
60
C0
40
40
60
ENDCHAR
STARTCHAR uni1E98
ENCODING 7832
SWIDTH 786 0
DWIDTH 6 0
BBX 6 7 0 0
BITMAP
10
30
00
94
B4
68
48
ENDCHAR
STARTCHAR uni1E99
ENCODING 7833
SWIDTH 510 0
DWIDTH 4 0
BBX 4 9 0 -2
BITMAP
20
60
00
90
50
60
20
40
C0
ENDCHAR
STARTCHAR uni1E9A
ENCODING 7834
SWIDTH 567 0
DWIDTH 5 0
BBX 5 6 0 0
BITMAP
08
20
50
70
90
70
ENDCHAR
STARTCHAR uni1E9B
ENCODING 7835
SWIDTH 326 0
DWIDTH 3 0
BBX 2 7 1 0
BITMAP
80
C0
80
80
80
80
80
ENDCHAR
STARTCHAR uni1E9C
ENCODING 7836
SWIDTH 326 0
DWIDTH 3 0
BBX 3 6 0 0
BITMAP
60
40
C0
40
40
40
ENDCHAR
STARTCHAR uni1E9D
ENCODING 7837
SWIDTH 326 0
DWIDTH 3 0
BBX 3 6 0 0
BITMAP
60
E0
40
40
40
40
ENDCHAR
STARTCHAR uni1E9E
ENCODING 7838
SWIDTH 709 0
DWIDTH 6 0
BBX 4 6 1 0
BITMAP
60
90
A0
90
90
F0
ENDCHAR
STARTCHAR uni1E9F
ENCODING 7839
SWIDTH 604 0
DWIDTH 5 0
BBX 4 6 0 0
BITMAP
70
40
60
90
90
70
ENDCHAR
STARTCHAR uni1EA0
ENCODING 7840
SWIDTH 639 0
DWIDTH 5 0
BBX 5 7 0 -1
BITMAP
20
20
50
70
88
88
20
ENDCHAR
STARTCHAR uni1EA1
ENCODING 7841
SWIDTH 561 0
DWIDTH 4 0
BBX 4 5 0 -1
BITMAP
70
70
90
70
20
ENDCHAR
STARTCHAR uni1EA2
ENCODING 7842
SWIDTH 639 0
DWIDTH 5 0
BBX 5 8 0 0
BITMAP
20
20
20
20
50
70
88
88
ENDCHAR
STARTCHAR uni1EA3
ENCODING 7843
SWIDTH 561 0
DWIDTH 4 0
BBX 4 7 0 0
BITMAP
20
20
20
50
70
90
70
ENDCHAR
STARTCHAR uni1EA4
ENCODING 7844
SWIDTH 639 0
DWIDTH 5 0
BBX 5 8 0 0
BITMAP
28
50
20
20
50
70
88
88
ENDCHAR
STARTCHAR uni1EA5
ENCODING 7845
SWIDTH 561 0
DWIDTH 4 0
BBX 4 7 0 0
BITMAP
10
60
20
50
70
90
70
ENDCHAR
STARTCHAR uni1EA6
ENCODING 7846
SWIDTH 639 0
DWIDTH 5 0
BBX 5 8 0 0
BITMAP
A0
50
20
20
50
70
88
88
ENDCHAR
STARTCHAR uni1EA7
ENCODING 7847
SWIDTH 561 0
DWIDTH 4 0
BBX 4 7 0 0
BITMAP
80
60
20
50
70
90
70
ENDCHAR
STARTCHAR uni1EA8
ENCODING 7848
SWIDTH 639 0
DWIDTH 5 0
BBX 5 8 0 0
BITMAP
38
50
20
20
50
70
88
88
ENDCHAR
STARTCHAR uni1EA9
ENCODING 7849
SWIDTH 561 0
DWIDTH 4 0
BBX 4 7 0 0
BITMAP
10
60
20
50
70
90
70
ENDCHAR
STARTCHAR uni1EAA
ENCODING 7850
SWIDTH 639 0
DWIDTH 5 0
BBX 5 8 0 0
BITMAP
70
50
20
20
50
70
88
88
ENDCHAR
STARTCHAR uni1EAB
ENCODING 7851
SWIDTH 561 0
DWIDTH 4 0
BBX 4 7 0 0
BITMAP
70
60
20
50
70
90
70
ENDCHAR
STARTCHAR uni1EAC
ENCODING 7852
SWIDTH 639 0
DWIDTH 5 0
BBX 5 8 0 -1
BITMAP
70
20
20
50
70
88
88
20
ENDCHAR
STARTCHAR uni1EAD
ENCODING 7853
SWIDTH 561 0
DWIDTH 4 0
BBX 4 7 0 -1
BITMAP
60
30
50
70
90
70
20
ENDCHAR
STARTCHAR uni1EAE
ENCODING 7854
SWIDTH 639 0
DWIDTH 5 0
BBX 5 8 0 0
BITMAP
20
70
20
20
50
70
88
88
ENDCHAR
STARTCHAR uni1EAF
ENCODING 7855
SWIDTH 561 0
DWIDTH 4 0
BBX 4 7 0 0
BITMAP
20
50
20
50
70
90
70
ENDCHAR
STARTCHAR uni1EB0
ENCODING 7856
SWIDTH 639 0
DWIDTH 5 0
BBX 5 8 0 0
BITMAP
20
70
20
20
50
70
88
88
ENDCHAR
STARTCHAR uni1EB1
ENCODING 7857
SWIDTH 561 0
DWIDTH 4 0
BBX 4 7 0 0
BITMAP
40
50
20
50
70
90
70
ENDCHAR
STARTCHAR uni1EB2
ENCODING 7858
SWIDTH 639 0
DWIDTH 5 0
BBX 5 8 0 0
BITMAP
20
70
20
20
50
70
88
88
ENDCHAR
STARTCHAR uni1EB3
ENCODING 7859
SWIDTH 561 0
DWIDTH 4 0
BBX 4 7 0 0
BITMAP
20
50
20
50
70
90
70
ENDCHAR
STARTCHAR uni1EB4
ENCODING 7860
SWIDTH 639 0
DWIDTH 5 0
BBX 5 8 0 0
BITMAP
70
70
20
20
50
70
88
88
ENDCHAR
STARTCHAR uni1EB5
ENCODING 7861
SWIDTH 561 0
DWIDTH 4 0
BBX 4 7 0 0
BITMAP
70
50
20
50
70
90
70
ENDCHAR
STARTCHAR uni1EB6
ENCODING 7862
SWIDTH 639 0
DWIDTH 5 0
BBX 5 8 0 -1
BITMAP
50
20
20
50
70
88
88
20
ENDCHAR
STARTCHAR uni1EB7
ENCODING 7863
SWIDTH 561 0
DWIDTH 4 0
BBX 4 7 0 -1
BITMAP
50
20
50
70
90
70
20
ENDCHAR
STARTCHAR uni1EB8
ENCODING 7864
SWIDTH 556 0
DWIDTH 4 0
BBX 3 7 1 -1
BITMAP
E0
80
80
E0
80
E0
40
ENDCHAR
STARTCHAR uni1EB9
ENCODING 7865
SWIDTH 564 0
DWIDTH 5 0
BBX 4 5 0 -1
BITMAP
70
F0
80
70
20
ENDCHAR
STARTCHAR uni1EBA
ENCODING 7866
SWIDTH 556 0
DWIDTH 4 0
BBX 3 8 1 0
BITMAP
40
40
E0
80
80
E0
80
E0
ENDCHAR
STARTCHAR uni1EBB
ENCODING 7867
SWIDTH 564 0
DWIDTH 5 0
BBX 4 7 0 0
BITMAP
20
20
20
50
F0
80
70
ENDCHAR
STARTCHAR uni1EBC
ENCODING 7868
SWIDTH 556 0
DWIDTH 4 0
BBX 3 7 1 0
BITMAP
E0
E0
80
80
E0
80
E0
ENDCHAR
STARTCHAR uni1EBD
ENCODING 7869
SWIDTH 564 0
DWIDTH 5 0
BBX 4 6 0 0
BITMAP
70
20
50
F0
80
70
ENDCHAR
STARTCHAR uni1EBE
ENCODING 7870
SWIDTH 556 0
DWIDTH 4 0
BBX 3 8 1 0
BITMAP
20
E0
E0
80
80
E0
80
E0
ENDCHAR
STARTCHAR uni1EBF
ENCODING 7871
SWIDTH 564 0
DWIDTH 5 0
BBX 4 7 0 0
BITMAP
10
60
30
50
F0
80
70
ENDCHAR
STARTCHAR uni1EC0
ENCODING 7872
SWIDTH 556 0
DWIDTH 4 0
BBX 4 8 0 0
BITMAP
80
70
70
40
40
70
40
70
ENDCHAR
STARTCHAR uni1EC1
ENCODING 7873
SWIDTH 564 0
DWIDTH 5 0
BBX 4 7 0 0
BITMAP
80
60
30
50
F0
80
70
ENDCHAR
STARTCHAR uni1EC2
ENCODING 7874
SWIDTH 556 0
DWIDTH 4 0
BBX 3 8 1 0
BITMAP
20
E0
E0
80
80
E0
80
E0
ENDCHAR
STARTCHAR uni1EC3
ENCODING 7875
SWIDTH 564 0
DWIDTH 5 0
BBX 4 7 0 0
BITMAP
10
60
30
50
F0
80
70
ENDCHAR
STARTCHAR uni1EC4
ENCODING 7876
SWIDTH 556 0
DWIDTH 4 0
BBX 3 8 1 0
BITMAP
E0
E0
E0
80
80
E0
80
E0
ENDCHAR
STARTCHAR uni1EC5
ENCODING 7877
SWIDTH 564 0
DWIDTH 5 0
BBX 4 7 0 0
BITMAP
70
60
30
50
F0
80
70
ENDCHAR
STARTCHAR uni1EC6
ENCODING 7878
SWIDTH 556 0
DWIDTH 4 0
BBX 3 8 1 -1
BITMAP
C0
E0
80
80
E0
80
E0
40
ENDCHAR
STARTCHAR uni1EC7
ENCODING 7879
SWIDTH 564 0
DWIDTH 5 0
BBX 4 7 0 -1
BITMAP
60
30
50
F0
80
70
20
ENDCHAR
STARTCHAR uni1EC8
ENCODING 7880
SWIDTH 339 0
DWIDTH 3 0
BBX 2 8 0 0
BITMAP
40
40
C0
40
40
40
40
C0
ENDCHAR
STARTCHAR uni1EC9
ENCODING 7881
SWIDTH 258 0
DWIDTH 2 0
BBX 2 7 0 0
BITMAP
80
40
00
40
40
40
40
ENDCHAR
STARTCHAR uni1ECA
ENCODING 7882
SWIDTH 339 0
DWIDTH 3 0
BBX 2 7 0 -1
BITMAP
C0
40
40
40
40
C0
40
ENDCHAR
STARTCHAR uni1ECB
ENCODING 7883
SWIDTH 258 0
DWIDTH 2 0
BBX 1 6 1 0
BITMAP
80
00
80
80
80
80
ENDCHAR
STARTCHAR uni1ECC
ENCODING 7884
SWIDTH 781 0
DWIDTH 6 0
BBX 6 7 0 -1
BITMAP
30
48
84
84
44
78
10
ENDCHAR
STARTCHAR uni1ECD
ENCODING 7885
SWIDTH 605 0
DWIDTH 5 0
BBX 4 5 0 -1
BITMAP
70
90
90
70
20
ENDCHAR
STARTCHAR uni1ECE
ENCODING 7886
SWIDTH 781 0
DWIDTH 6 0
BBX 6 8 0 0
BITMAP
10
10
30
48
84
84
44
78
ENDCHAR
STARTCHAR uni1ECF
ENCODING 7887
SWIDTH 605 0
DWIDTH 5 0
BBX 4 7 0 0
BITMAP
20
20
20
50
90
90
70
ENDCHAR
STARTCHAR uni1ED0
ENCODING 7888
SWIDTH 781 0
DWIDTH 6 0
BBX 6 8 0 0
BITMAP
08
30
30
48
84
84
44
78
ENDCHAR
STARTCHAR uni1ED1
ENCODING 7889
SWIDTH 605 0
DWIDTH 5 0
BBX 5 7 0 0
BITMAP
08
70
30
50
88
90
70
ENDCHAR
STARTCHAR uni1ED2
ENCODING 7890
SWIDTH 781 0
DWIDTH 6 0
BBX 6 8 0 0
BITMAP
40
30
30
48
84
84
44
78
ENDCHAR
STARTCHAR uni1ED3
ENCODING 7891
SWIDTH 605 0
DWIDTH 5 0
BBX 4 7 0 0
BITMAP
80
60
30
50
90
90
70
ENDCHAR
STARTCHAR uni1ED4
ENCODING 7892
SWIDTH 781 0
DWIDTH 6 0
BBX 6 8 0 0
BITMAP
08
30
30
48
84
84
44
78
ENDCHAR
STARTCHAR uni1ED5
ENCODING 7893
SWIDTH 605 0
DWIDTH 5 0
BBX 4 7 0 0
BITMAP
10
60
30
50
90
90
70
ENDCHAR
STARTCHAR uni1ED6
ENCODING 7894
SWIDTH 781 0
DWIDTH 6 0
BBX 6 8 0 0
BITMAP
30
30
30
48
84
84
44
78
ENDCHAR
STARTCHAR uni1ED7
ENCODING 7895
SWIDTH 605 0
DWIDTH 5 0
BBX 4 7 0 0
BITMAP
70
60
30
50
90
90
70
ENDCHAR
STARTCHAR uni1ED8
ENCODING 7896
SWIDTH 781 0
DWIDTH 6 0
BBX 6 8 0 -1
BITMAP
30
38
48
84
84
44
78
10
ENDCHAR
STARTCHAR uni1ED9
ENCODING 7897
SWIDTH 605 0
DWIDTH 5 0
BBX 4 7 0 -1
BITMAP
70
20
50
90
90
70
20
ENDCHAR
STARTCHAR uni1EDA
ENCODING 7898
SWIDTH 784 0
DWIDTH 6 0
BBX 6 7 0 0
BITMAP
10
34
48
84
84
44
78
ENDCHAR
STARTCHAR uni1EDB
ENCODING 7899
SWIDTH 616 0
DWIDTH 5 0
BBX 5 6 0 0
BITMAP
30
28
50
88
90
70
ENDCHAR
STARTCHAR uni1EDC
ENCODING 7900
SWIDTH 784 0
DWIDTH 6 0
BBX 6 7 0 0
BITMAP
20
34
48
84
84
44
78
ENDCHAR
STARTCHAR uni1EDD
ENCODING 7901
SWIDTH 616 0
DWIDTH 5 0
BBX 5 6 0 0
BITMAP
60
28
50
88
90
70
ENDCHAR
STARTCHAR uni1EDE
ENCODING 7902
SWIDTH 784 0
DWIDTH 6 0
BBX 6 8 0 0
BITMAP
20
10
34
48
84
84
44
78
ENDCHAR
STARTCHAR uni1EDF
ENCODING 7903
SWIDTH 616 0
DWIDTH 5 0
BBX 5 7 0 0
BITMAP
20
20
28
50
88
90
70
ENDCHAR
STARTCHAR uni1EE0
ENCODING 7904
SWIDTH 784 0
DWIDTH 6 0
BBX 6 7 0 0
BITMAP
28
34
48
84
84
44
78
ENDCHAR
STARTCHAR uni1EE1
ENCODING 7905
SWIDTH 616 0
DWIDTH 5 0
BBX 5 6 0 0
BITMAP
70
28
50
88
90
70
ENDCHAR
STARTCHAR uni1EE2
ENCODING 7906
SWIDTH 784 0
DWIDTH 6 0
BBX 6 7 0 -1
BITMAP
34
48
84
84
44
78
10
ENDCHAR
STARTCHAR uni1EE3
ENCODING 7907
SWIDTH 616 0
DWIDTH 5 0
BBX 5 6 0 -1
BITMAP
28
50
88
90
70
20
ENDCHAR
STARTCHAR uni1EE4
ENCODING 7908
SWIDTH 731 0
DWIDTH 6 0
BBX 4 7 1 -1
BITMAP
90
90
90
90
90
F0
40
ENDCHAR
STARTCHAR uni1EE5
ENCODING 7909
SWIDTH 618 0
DWIDTH 5 0
BBX 3 5 1 -1
BITMAP
A0
A0
A0
E0
40
ENDCHAR
STARTCHAR uni1EE6
ENCODING 7910
SWIDTH 731 0
DWIDTH 6 0
BBX 4 8 1 0
BITMAP
60
40
90
90
90
90
90
F0
ENDCHAR
STARTCHAR uni1EE7
ENCODING 7911
SWIDTH 618 0
DWIDTH 5 0
BBX 3 7 1 0
BITMAP
40
40
00
A0
A0
A0
E0
ENDCHAR
STARTCHAR uni1EE8
ENCODING 7912
SWIDTH 780 0
DWIDTH 6 0
BBX 6 7 1 0
BITMAP
20
D4
98
90
90
90
F0
ENDCHAR
STARTCHAR uni1EE9
ENCODING 7913
SWIDTH 674 0
DWIDTH 5 0
BBX 5 6 1 0
BITMAP
60
08
90
A0
A0
E0
ENDCHAR
STARTCHAR uni1EEA
ENCODING 7914
SWIDTH 780 0
DWIDTH 6 0
BBX 6 7 1 0
BITMAP
40
94
98
90
90
90
F0
ENDCHAR
STARTCHAR uni1EEB
ENCODING 7915
SWIDTH 674 0
DWIDTH 5 0
BBX 5 6 1 0
BITMAP
C0
08
90
A0
A0
E0
ENDCHAR
STARTCHAR uni1EEC
ENCODING 7916
SWIDTH 780 0
DWIDTH 6 0
BBX 6 8 1 0
BITMAP
60
40
94
98
90
90
90
F0
ENDCHAR
STARTCHAR uni1EED
ENCODING 7917
SWIDTH 674 0
DWIDTH 5 0
BBX 5 7 1 0
BITMAP
40
40
08
90
A0
A0
E0
ENDCHAR
STARTCHAR uni1EEE
ENCODING 7918
SWIDTH 780 0
DWIDTH 6 0
BBX 6 7 1 0
BITMAP
70
94
98
90
90
90
F0
ENDCHAR
STARTCHAR uni1EEF
ENCODING 7919
SWIDTH 674 0
DWIDTH 5 0
BBX 5 6 1 0
BITMAP
E0
08
90
A0
A0
E0
ENDCHAR
STARTCHAR uni1EF0
ENCODING 7920
SWIDTH 780 0
DWIDTH 6 0
BBX 6 6 1 0
BITMAP
94
98
90
90
90
F0
ENDCHAR
STARTCHAR uni1EF1
ENCODING 7921
SWIDTH 674 0
DWIDTH 5 0
BBX 5 6 1 -1
BITMAP
08
90
A0
A0
E0
40
ENDCHAR
STARTCHAR Ygrave
ENCODING 7922
SWIDTH 566 0
DWIDTH 5 0
BBX 5 7 0 0
BITMAP
60
88
50
60
20
20
20
ENDCHAR
STARTCHAR ygrave
ENCODING 7923
SWIDTH 510 0
DWIDTH 4 0
BBX 4 8 0 -2
BITMAP
40
20
90
50
60
20
40
C0
ENDCHAR
STARTCHAR uni1EF4
ENCODING 7924
SWIDTH 566 0
DWIDTH 5 0
BBX 5 7 0 -1
BITMAP
88
50
60
20
20
20
20
ENDCHAR
STARTCHAR uni1EF5
ENCODING 7925
SWIDTH 510 0
DWIDTH 4 0
BBX 4 6 0 -2
BITMAP
90
50
60
20
50
C0
ENDCHAR
STARTCHAR uni1EF6
ENCODING 7926
SWIDTH 566 0
DWIDTH 5 0
BBX 5 8 0 0
BITMAP
20
20
88
50
60
20
20
20
ENDCHAR
STARTCHAR uni1EF7
ENCODING 7927
SWIDTH 510 0
DWIDTH 4 0
BBX 4 9 0 -2
BITMAP
40
20
00
90
50
60
20
40
C0
ENDCHAR
STARTCHAR uni1EF8
ENCODING 7928
SWIDTH 566 0
DWIDTH 5 0
BBX 5 7 0 0
BITMAP
70
88
50
60
20
20
20
ENDCHAR
STARTCHAR uni1EF9
ENCODING 7929
SWIDTH 510 0
DWIDTH 4 0
BBX 4 8 0 -2
BITMAP
70
00
90
50
60
20
40
C0
ENDCHAR
STARTCHAR uni1EFA
ENCODING 7930
SWIDTH 767 0
DWIDTH 6 0
BBX 5 6 1 0
BITMAP
A0
A0
A0
A0
A0
B8
ENDCHAR
STARTCHAR uni1EFB
ENCODING 7931
SWIDTH 516 0
DWIDTH 4 0
BBX 4 6 0 0
BITMAP
50
F0
50
50
50
50
ENDCHAR
STARTCHAR uni1EFC
ENCODING 7932
SWIDTH 733 0
DWIDTH 6 0
BBX 5 6 0 0
BITMAP
20
40
98
88
48
78
ENDCHAR
STARTCHAR uni1EFD
ENCODING 7933
SWIDTH 592 0
DWIDTH 5 0
BBX 4 6 0 0
BITMAP
20
40
B0
90
90
70
ENDCHAR
STARTCHAR uni1EFE
ENCODING 7934
SWIDTH 604 0
DWIDTH 5 0
BBX 5 6 0 0
BITMAP
88
50
50
20
E0
C0
ENDCHAR
STARTCHAR uni1EFF
ENCODING 7935
SWIDTH 517 0
DWIDTH 4 0
BBX 4 6 0 -2
BITMAP
90
50
60
20
C0
C0
ENDCHAR
STARTCHAR uni1F00
ENCODING 7936
SWIDTH 623 0
DWIDTH 5 0
BBX 5 6 0 0
BITMAP
20
20
50
90
90
68
ENDCHAR
STARTCHAR uni1F01
ENCODING 7937
SWIDTH 623 0
DWIDTH 5 0
BBX 5 6 0 0
BITMAP
60
20
50
90
90
68
ENDCHAR
STARTCHAR uni1F02
ENCODING 7938
SWIDTH 623 0
DWIDTH 5 0
BBX 5 6 0 0
BITMAP
60
20
50
90
90
68
ENDCHAR
STARTCHAR uni1F03
ENCODING 7939
SWIDTH 623 0
DWIDTH 5 0
BBX 5 6 0 0
BITMAP
60
20
50
90
90
68
ENDCHAR
STARTCHAR uni1F04
ENCODING 7940
SWIDTH 623 0
DWIDTH 5 0
BBX 5 6 0 0
BITMAP
70
20
50
90
90
68
ENDCHAR
STARTCHAR uni1F05
ENCODING 7941
SWIDTH 623 0
DWIDTH 5 0
BBX 5 6 0 0
BITMAP
70
20
50
90
90
68
ENDCHAR
STARTCHAR uni1F06
ENCODING 7942
SWIDTH 623 0
DWIDTH 5 0
BBX 5 8 0 0
BITMAP
70
00
20
20
50
90
90
68
ENDCHAR
STARTCHAR uni1F07
ENCODING 7943
SWIDTH 623 0
DWIDTH 5 0
BBX 5 8 0 0
BITMAP
70
00
20
20
50
90
90
68
ENDCHAR
STARTCHAR uni1F08
ENCODING 7944
SWIDTH 694 0
DWIDTH 6 0
BBX 6 6 0 0
BITMAP
A0
30
30
78
48
8C
ENDCHAR
STARTCHAR uni1F09
ENCODING 7945
SWIDTH 704 0
DWIDTH 6 0
BBX 6 6 0 0
BITMAP
90
30
30
78
48
44
ENDCHAR
STARTCHAR uni1F0A
ENCODING 7946
SWIDTH 889 0
DWIDTH 7 0
BBX 7 6 0 0
BITMAP
E8
08
14
1C
22
22
ENDCHAR
STARTCHAR uni1F0B
ENCODING 7947
SWIDTH 889 0
DWIDTH 7 0
BBX 7 6 0 0
BITMAP
E8
08
14
1C
22
22
ENDCHAR
STARTCHAR uni1F0C
ENCODING 7948
SWIDTH 869 0
DWIDTH 7 0
BBX 7 6 0 0
BITMAP
E8
18
14
1C
24
22
ENDCHAR
STARTCHAR uni1F0D
ENCODING 7949
SWIDTH 869 0
DWIDTH 7 0
BBX 7 6 0 0
BITMAP
E8
18
14
1C
24
22
ENDCHAR
STARTCHAR uni1F0E
ENCODING 7950
SWIDTH 940 0
DWIDTH 8 0
BBX 8 6 0 0
BITMAP
E8
0C
4C
1E
12
23
ENDCHAR
STARTCHAR uni1F0F
ENCODING 7951
SWIDTH 941 0
DWIDTH 8 0
BBX 8 6 0 0
BITMAP
E8
0C
4C
1E
12
23
ENDCHAR
STARTCHAR uni1F10
ENCODING 7952
SWIDTH 470 0
DWIDTH 4 0
BBX 4 6 0 0
BITMAP
20
20
D0
60
80
60
ENDCHAR
STARTCHAR uni1F11
ENCODING 7953
SWIDTH 470 0
DWIDTH 4 0
BBX 4 6 0 0
BITMAP
60
20
D0
60
80
60
ENDCHAR
STARTCHAR uni1F12
ENCODING 7954
SWIDTH 470 0
DWIDTH 4 0
BBX 4 6 0 0
BITMAP
60
20
D0
60
80
60
ENDCHAR
STARTCHAR uni1F13
ENCODING 7955
SWIDTH 470 0
DWIDTH 4 0
BBX 4 6 0 0
BITMAP
60
20
D0
60
80
60
ENDCHAR
STARTCHAR uni1F14
ENCODING 7956
SWIDTH 470 0
DWIDTH 4 0
BBX 4 6 0 0
BITMAP
60
20
D0
60
80
60
ENDCHAR
STARTCHAR uni1F15
ENCODING 7957
SWIDTH 470 0
DWIDTH 4 0
BBX 4 6 0 0
BITMAP
60
20
D0
60
80
60
ENDCHAR
STARTCHAR uni1F18
ENCODING 7960
SWIDTH 706 0
DWIDTH 6 0
BBX 5 6 0 0
BITMAP
B8
20
20
38
20
38
ENDCHAR
STARTCHAR uni1F19
ENCODING 7961
SWIDTH 716 0
DWIDTH 6 0
BBX 5 6 0 0
BITMAP
B8
20
20
38
20
38
ENDCHAR
STARTCHAR uni1F1A
ENCODING 7962
SWIDTH 901 0
DWIDTH 7 0
BBX 7 6 0 0
BITMAP
EE
10
10
1E
10
0E
ENDCHAR
STARTCHAR uni1F1B
ENCODING 7963
SWIDTH 901 0
DWIDTH 7 0
BBX 7 6 0 0
BITMAP
EE
10
10
1E
10
0E
ENDCHAR
STARTCHAR uni1F1C
ENCODING 7964
SWIDTH 881 0
DWIDTH 7 0
BBX 7 6 0 0
BITMAP
FE
10
10
1C
10
1E
ENDCHAR
STARTCHAR uni1F1D
ENCODING 7965
SWIDTH 881 0
DWIDTH 7 0
BBX 7 6 0 0
BITMAP
FE
10
10
1C
10
1E
ENDCHAR
STARTCHAR uni1F20
ENCODING 7968
SWIDTH 608 0
DWIDTH 5 0
BBX 3 8 1 -2
BITMAP
C0
40
A0
A0
A0
A0
20
20
ENDCHAR
STARTCHAR uni1F21
ENCODING 7969
SWIDTH 608 0
DWIDTH 5 0
BBX 3 8 1 -2
BITMAP
80
40
A0
A0
A0
A0
20
20
ENDCHAR
STARTCHAR uni1F22
ENCODING 7970
SWIDTH 608 0
DWIDTH 5 0
BBX 3 8 1 -2
BITMAP
C0
40
A0
A0
A0
A0
20
20
ENDCHAR
STARTCHAR uni1F23
ENCODING 7971
SWIDTH 608 0
DWIDTH 5 0
BBX 3 8 1 -2
BITMAP
C0
40
A0
A0
A0
A0
20
20
ENDCHAR
STARTCHAR uni1F24
ENCODING 7972
SWIDTH 608 0
DWIDTH 5 0
BBX 3 8 1 -2
BITMAP
C0
40
A0
A0
A0
A0
20
20
ENDCHAR
STARTCHAR uni1F25
ENCODING 7973
SWIDTH 608 0
DWIDTH 5 0
BBX 3 8 1 -2
BITMAP
C0
40
A0
A0
A0
A0
20
20
ENDCHAR
STARTCHAR uni1F26
ENCODING 7974
SWIDTH 608 0
DWIDTH 5 0
BBX 4 10 0 -2
BITMAP
70
80
60
20
50
50
50
50
10
10
ENDCHAR
STARTCHAR uni1F27
ENCODING 7975
SWIDTH 608 0
DWIDTH 5 0
BBX 4 10 0 -2
BITMAP
70
80
60
20
50
50
50
50
10
10
ENDCHAR
STARTCHAR uni1F28
ENCODING 7976
SWIDTH 891 0
DWIDTH 7 0
BBX 6 6 0 0
BITMAP
A4
24
24
3C
24
24
ENDCHAR
STARTCHAR uni1F29
ENCODING 7977
SWIDTH 901 0
DWIDTH 7 0
BBX 6 6 0 0
BITMAP
A4
24
24
3C
24
24
ENDCHAR
STARTCHAR uni1F2A
ENCODING 7978
SWIDTH 1086 0
DWIDTH 9 0
BBX 8 6 0 0
BITMAP
F1
11
11
1F
11
11
ENDCHAR
STARTCHAR uni1F2B
ENCODING 7979
SWIDTH 1086 0
DWIDTH 9 0
BBX 8 6 0 0
BITMAP
F1
11
11
1F
11
11
ENDCHAR
STARTCHAR uni1F2C
ENCODING 7980
SWIDTH 1066 0
DWIDTH 9 0
BBX 8 6 0 0
BITMAP
F1
11
11
1F
11
11
ENDCHAR
STARTCHAR uni1F2D
ENCODING 7981
SWIDTH 1066 0
DWIDTH 9 0
BBX 8 6 0 0
BITMAP
F1
11
11
1F
11
11
ENDCHAR
STARTCHAR uni1F2E
ENCODING 7982
SWIDTH 1137 0
DWIDTH 9 0
BBX 8 6 0 0
BITMAP
E9
09
49
0F
09
09
ENDCHAR
STARTCHAR uni1F2F
ENCODING 7983
SWIDTH 1138 0
DWIDTH 9 0
BBX 8 6 0 0
BITMAP
E9
09
49
0F
09
09
ENDCHAR
STARTCHAR uni1F30
ENCODING 7984
SWIDTH 332 0
DWIDTH 3 0
BBX 1 6 1 0
BITMAP
80
00
80
80
80
80
ENDCHAR
STARTCHAR uni1F31
ENCODING 7985
SWIDTH 332 0
DWIDTH 3 0
BBX 2 6 0 0
BITMAP
C0
00
40
40
40
40
ENDCHAR
STARTCHAR uni1F32
ENCODING 7986
SWIDTH 332 0
DWIDTH 3 0
BBX 2 6 0 0
BITMAP
C0
00
40
40
40
40
ENDCHAR
STARTCHAR uni1F33
ENCODING 7987
SWIDTH 332 0
DWIDTH 3 0
BBX 2 6 0 0
BITMAP
C0
00
40
40
40
40
ENDCHAR
STARTCHAR uni1F34
ENCODING 7988
SWIDTH 332 0
DWIDTH 3 0
BBX 2 6 0 0
BITMAP
C0
00
40
40
40
40
ENDCHAR
STARTCHAR uni1F35
ENCODING 7989
SWIDTH 332 0
DWIDTH 3 0
BBX 2 6 0 0
BITMAP
C0
00
40
40
40
40
ENDCHAR
STARTCHAR uni1F36
ENCODING 7990
SWIDTH 332 0
DWIDTH 3 0
BBX 3 8 0 0
BITMAP
E0
00
40
00
40
40
40
40
ENDCHAR
STARTCHAR uni1F37
ENCODING 7991
SWIDTH 332 0
DWIDTH 3 0
BBX 3 8 0 0
BITMAP
E0
00
C0
00
40
40
40
40
ENDCHAR
STARTCHAR uni1F38
ENCODING 7992
SWIDTH 509 0
DWIDTH 4 0
BBX 4 6 0 0
BITMAP
B0
20
20
20
20
30
ENDCHAR
STARTCHAR uni1F39
ENCODING 7993
SWIDTH 519 0
DWIDTH 4 0
BBX 4 6 0 0
BITMAP
B0
20
20
20
20
30
ENDCHAR
STARTCHAR uni1F3A
ENCODING 7994
SWIDTH 704 0
DWIDTH 6 0
BBX 5 6 0 0
BITMAP
F8
08
08
08
08
18
ENDCHAR
STARTCHAR uni1F3B
ENCODING 7995
SWIDTH 704 0
DWIDTH 6 0
BBX 5 6 0 0
BITMAP
F8
08
08
08
08
18
ENDCHAR
STARTCHAR uni1F3C
ENCODING 7996
SWIDTH 684 0
DWIDTH 5 0
BBX 5 6 0 0
BITMAP
F8
08
08
08
08
18
ENDCHAR
STARTCHAR uni1F3D
ENCODING 7997
SWIDTH 684 0
DWIDTH 5 0
BBX 5 6 0 0
BITMAP
F8
08
08
08
08
18
ENDCHAR
STARTCHAR uni1F3E
ENCODING 7998
SWIDTH 755 0
DWIDTH 6 0
BBX 6 6 0 0
BITMAP
EC
08
48
08
08
0C
ENDCHAR
STARTCHAR uni1F3F
ENCODING 7999
SWIDTH 756 0
DWIDTH 6 0
BBX 6 6 0 0
BITMAP
EC
08
48
08
08
0C
ENDCHAR
STARTCHAR uni1F40
ENCODING 8000
SWIDTH 605 0
DWIDTH 5 0
BBX 4 6 0 0
BITMAP
20
20
50
90
90
70
ENDCHAR
STARTCHAR uni1F41
ENCODING 8001
SWIDTH 605 0
DWIDTH 5 0
BBX 4 6 0 0
BITMAP
20
20
50
90
90
70
ENDCHAR
STARTCHAR uni1F42
ENCODING 8002
SWIDTH 605 0
DWIDTH 5 0
BBX 4 6 0 0
BITMAP
70
20
50
90
90
70
ENDCHAR
STARTCHAR uni1F43
ENCODING 8003
SWIDTH 605 0
DWIDTH 5 0
BBX 4 6 0 0
BITMAP
70
20
50
90
90
70
ENDCHAR
STARTCHAR uni1F44
ENCODING 8004
SWIDTH 605 0
DWIDTH 5 0
BBX 4 6 0 0
BITMAP
70
20
50
90
90
70
ENDCHAR
ENDFONT
